<?xml version="1.0" standalone="no"?>
<!DOCTYPE svg PUBLIC "-//W3C//DTD SVG 1.1//EN" "http://www.w3.org/Graphics/SVG/1.1/DTD/svg11.dtd" >
<svg xmlns="http://www.w3.org/2000/svg" xmlns:xlink="http://www.w3.org/1999/xlink" version="1.1">
<metadata>
Created by FontForge 20170731 at Thu Dec 22 23:13:16 2022
 By Aleksey,,,
Created by Fabian De Smet
</metadata>
<defs>
<font id="Butler-Black" horiz-adv-x="1255" >
  <font-face 
    font-family="Butler"
    font-weight="900"
    font-stretch="normal"
    units-per-em="2048"
    panose-1="2 0 5 3 9 0 0 2 0 3"
    ascent="1505"
    descent="-543"
    x-height="946"
    cap-height="1442"
    bbox="-299 -739 2548 2009"
    underline-thickness="102"
    underline-position="-307"
    unicode-range="U+0020-FB02"
  />
<missing-glyph horiz-adv-x="1038" 
d="M-2 1442h1040v-1442h-1040v1442zM154 295l272 426l-272 428v-854zM518 866l270 418h-538zM788 156l-270 424l-268 -424h538zM610 721l275 -426v854z" />
    <glyph glyph-name="f_i" unicode="fi" horiz-adv-x="1320" 
d="M1245 16v-16h-512v16q28 8 45 27t24.5 52t9 60t1.5 76v533v10q0 29 -0.5 44t-4 39.5t-11 37.5t-22.5 23t-36 10h-221v-697q0 -97 16.5 -149t67.5 -66v-16h-512v16q28 8 45 27t24.5 52t9 60t1.5 76v697h-133v18h133q0 133 31 236t81.5 167t122 104.5t145 56.5t157.5 16
q75 0 155.5 -15.5t156 -53.5t105.5 -91q23 -43 20.5 -99t-30.5 -102q-40 -58 -111 -72.5t-131 23.5q-62 40 -76 110t27 132q34 58 103 74q27 6 0 26q-47 34 -154 45l-67 4q-36 0 -64 -14t-47.5 -37.5t-33.5 -63.5t-22 -82.5t-12.5 -105t-6 -120.5t-1.5 -138h221
q130 0 235.5 15.5t145.5 30.5l41 16v-777q0 -98 16.5 -150.5t67.5 -64.5z" />
    <glyph glyph-name="f_l" unicode="fl" horiz-adv-x="1271" 
d="M1241 16v-16h-512v16q28 8 45 27t24.5 52t9 60t1.5 76v1063q0 62 -13 95t-59 53q-33 9 -61 9.5t-50.5 -6.5t-40 -23.5t-31 -39t-23 -56t-16 -71t-10.5 -87.5t-5.5 -103t-1.5 -119h219v-18h-219v-697q0 -97 16.5 -149t67.5 -66v-16h-512v16q28 8 45 27t24.5 52t9 60
t1.5 76v697h-134v18h134v164q0 103 27.5 182t66.5 121.5t90 69.5t90.5 35t75.5 8q3 -1 17 0.5t42.5 -2t58 -9t62.5 -20t57 -35.5l420 68v-1297q0 -98 16.5 -150.5t67.5 -64.5z" />
    <glyph glyph-name=".notdef" horiz-adv-x="1038" 
d="M-2 1442h1040v-1442h-1040v1442zM154 295l272 426l-272 428v-854zM518 866l270 418h-538zM788 156l-270 424l-268 -424h538zM610 721l275 -426v854z" />
    <glyph glyph-name=".null" horiz-adv-x="0" 
 />
    <glyph glyph-name="nonmarkingreturn" horiz-adv-x="682" 
 />
    <glyph glyph-name="space" unicode=" " horiz-adv-x="573" 
 />
    <glyph glyph-name="exclam" unicode="!" horiz-adv-x="774" 
d="M502 532h-236l-76 996h394zM580 180q0 82 -57.5 139.5t-139.5 57.5t-139.5 -57.5t-57.5 -139.5q0 -83 57.5 -140.5t139.5 -57.5t139.5 57.5t57.5 140.5z" />
    <glyph glyph-name="quotedbl" unicode="&#x22;" horiz-adv-x="1232" 
d="M268 772l-61 670h340l-58 -670h-221zM743 772l-61 670h342l-59 -670h-222z" />
    <glyph glyph-name="numbersign" unicode="#" horiz-adv-x="1599" 
d="M1251 1182h217v-244h-272l-68 -285h211v-243h-266l-94 -410h-238l95 410h-279l-94 -410h-238l94 410h-229v243h287l65 285h-223v244h279l82 346h237l-80 -346h277l82 346h237zM891 653l67 285h-278l-66 -285h277z" />
    <glyph glyph-name="dollar" unicode="$" horiz-adv-x="1196" 
d="M594 0q64 0 111.5 29.5t66.5 79t14.5 107.5t-45.5 122.5t-112 116.5l-35 22v-477zM575 1008v434q-65 0 -112.5 -26.5t-66.5 -71.5t-13 -98.5t50.5 -113.5t121.5 -110zM870 813q202 -133 253.5 -314.5t-64.5 -348.5q-5 -7 -14.5 -18t-47.5 -40t-86 -51.5t-133 -40.5
t-184 -18v-250h-19v250q-108 1 -202.5 12t-152 26.5t-100 30t-60.5 25.5l-17 10v393h18q11 -46 36 -102t70 -122t101.5 -120.5t137 -92.5t169.5 -42v487l-262 166q-218 136 -268.5 312t80.5 340q5 6 14.5 16.5t47.5 37.5t84.5 47t128 37t175.5 17v250h19v-250
q94 -1 176.5 -11t133 -24t87.5 -27t53 -22l15 -10v-344h-19q-11 38 -21.5 69.5t-30.5 76t-42.5 79t-57.5 72t-76 62.5t-97 42t-121 19v-447z" />
    <glyph glyph-name="percent" unicode="%" horiz-adv-x="2295" 
d="M637 1391q114 0 194 -52.5t116 -135t36 -187.5q0 -159 -88.5 -260t-257.5 -101q-171 0 -259.5 101t-88.5 260q0 162 89 268.5t259 106.5zM637 674q25 0 41 5t28 22.5t18 38t9.5 65t4.5 88.5t1 123q0 220 -17.5 288t-84.5 68q-69 0 -87 -67.5t-18 -288.5q0 -76 1 -123
t5 -89t11 -64t19 -38.5t28.5 -22t40.5 -5.5zM1659 786q114 0 194 -51.5t117 -134t37 -186.5q0 -160 -89 -260.5t-259 -100.5q-171 0 -259.5 100t-88.5 261q0 162 89 267t259 105zM1659 72q70 0 86 60t16 282q0 218 -17.5 286t-84.5 68q-69 0 -87 -67t-18 -287
q0 -76 1 -123.5t5.5 -89.5t11 -64t18.5 -38.5t28.5 -21.5t40.5 -5zM1620 1442h205l-1129 -1442h-202z" />
    <glyph glyph-name="ampersand" unicode="&#x26;" horiz-adv-x="1679" 
d="M782 1432q-55 0 -99 -42t-52 -111t51 -159l123 -184q164 108 164 299q0 83 -55.5 140t-131.5 57zM535 305q37 -48 83.5 -85.5t96.5 -59t96.5 -6.5t75.5 71l-369 520l-29 -18q-39 -30 -55 -91.5t7.5 -152t93.5 -178.5zM1427 158q48 0 77.5 25.5t29.5 80.5l20 -2
q2 -128 -69 -204t-215 -76q-79 0 -133.5 15t-104.5 56q-58 47 -135 156q-17 -58 -63 -105.5t-107 -77t-134.5 -40.5t-143 -0.5t-134.5 49t-108 102.5q-47 70 -59.5 139t7.5 128.5t53 111t84.5 97.5t93.5 76.5t89 58.5l29 16l-66 96q-84 111 -108.5 230.5t8.5 214.5t125 156
t227 61q59 0 115 -18t103 -52t75.5 -91t28.5 -128q0 -42 -13 -87.5t-60 -109.5t-124 -116l270 -404q57 113 122.5 168.5t148.5 81.5q38 14 89 7t87 -36q53 -44 58.5 -113.5t-40.5 -125.5q-44 -53 -113.5 -58.5t-125.5 39.5q-58 51 -58 113q-1 31 -39 20q-48 -14 -90 -71
q-16 -20 -26 -43q113 -173 147 -215q58 -76 95 -100.5t87 -24.5z" />
    <glyph glyph-name="quotesingle" unicode="'" horiz-adv-x="638" 
d="M215 772l-61 670h340l-58 -670h-221z" />
    <glyph glyph-name="parenleft" unicode="(" horiz-adv-x="761" 
d="M160 520q1 7 3 49t5 83.5t17 109.5t36 133t65 147.5t100.5 159t146 162.5t198.5 162l29 -27q-74 -88 -127 -221.5t-75 -261.5t-33.5 -244t-10.5 -187v-71q2 -4 -0.5 -38t2.5 -100.5t10.5 -144t24 -168.5t43 -173.5t67 -159t95.5 -125.5l-29 -27q-108 61 -196.5 135.5
t-145.5 145t-100 149.5t-64.5 142.5t-36 131.5t-17.5 109.5t-5 83t-2 45.5z" />
    <glyph glyph-name="parenright" unicode=")" horiz-adv-x="757" 
d="M29 1528q110 -76 198.5 -162t146 -162.5t100.5 -159t65 -147.5t36 -133t17 -109.5t5 -83.5t3 -49q0 -4 -2 -45.5t-5 -83t-17.5 -109.5t-36 -131.5t-64.5 -142.5t-100 -149.5t-145.5 -145t-196.5 -135.5l-29 27q73 67 125 185t74 239t33 232.5t10 182.5v70q-2 5 0.5 38.5
t-2.5 102t-11 148.5t-24.5 177t-43.5 187t-68 179t-97 153z" />
    <glyph glyph-name="asterisk" unicode="*" horiz-adv-x="1159" 
d="M1020 1020l-365 -27l281 -233l-225 -162l-138 338l-135 -338l-223 162l279 233l-363 27l86 262l307 -192l-88 352h277l-90 -352l311 192z" />
    <glyph glyph-name="plus" unicode="+" horiz-adv-x="1464" 
d="M1346 770v-272h-480v-498h-272v498h-479v272h479v498h272v-498h480z" />
    <glyph glyph-name="comma" unicode="," horiz-adv-x="659" 
d="M479 346q45 -45 55.5 -109.5t-9 -130t-45.5 -118.5t-58 -97q-54 -83 -193 -163l-14 20q51 41 86 99t37 92.5t-12 44.5q-89 7 -144 59q-63 63 -63.5 151t61.5 152q63 62 150.5 62t148.5 -62z" />
    <glyph glyph-name="hyphen" unicode="-" horiz-adv-x="909" 
d="M776 379h-645v283h645v-283z" />
    <glyph glyph-name="period" unicode="." horiz-adv-x="661" 
d="M549 193q0 -89 -61 -150t-148 -61q-89 0 -151 61t-62 150q0 88 62 150.5t151 62.5q86 0 147.5 -62.5t61.5 -150.5z" />
    <glyph glyph-name="slash" unicode="/" horiz-adv-x="952" 
d="M918 1485l-631 -1528h-258l630 1528h259z" />
    <glyph glyph-name="zero" unicode="0" horiz-adv-x="1515" 
d="M1380 709q0 -155 -39.5 -285t-117.5 -230t-204.5 -156t-291.5 -56t-292.5 56t-205.5 156t-117.5 230t-39.5 285q0 156 39.5 290t117.5 238t205.5 163.5t292.5 59.5q132 0 240.5 -39t184.5 -107.5t128 -164t76 -206t24 -234.5zM893 709q0 457 -26.5 595t-139.5 138
q-118 0 -143 -134t-25 -599q0 -458 24.5 -583.5t143.5 -125.5q40 0 66.5 11.5t45.5 49.5t29.5 81.5t16 135t7 182t1.5 249.5z" />
    <glyph glyph-name="one" unicode="1" horiz-adv-x="866" 
d="M670 176q0 -36 1 -56.5t5 -43.5t11.5 -34t22 -18.5t35.5 -7.5v-16h-534v16q25 0 42 8t26.5 20.5t15 34.5t7 43t1.5 54v891q0 54 -20.5 78t-50.5 20t-59.5 -16t-50.5 -27l-20 -14l-10 14l387 338h191v-1284z" />
    <glyph glyph-name="two" unicode="2" horiz-adv-x="1083" 
d="M983 436h16l-118 -436h-815l411 547q191 283 138 459q-30 102 -133 139q-96 34 -193 -4q-94 -37 -123 -121q-16 -49 -6 -107l-33 -18q-33 61 -41 128.5t7 129.5t53 118.5t92.5 98t130 66t161.5 24.5q153 0 272.5 -113t119.5 -253q0 -89 -44 -179.5t-113.5 -167
t-140 -140.5t-140.5 -126t-97 -96l-51 -66h442q58 0 115.5 29.5t89.5 87.5z" />
    <glyph glyph-name="three" unicode="3" horiz-adv-x="1148" 
d="M1053 440q0 -84 -20 -152t-53 -115t-82 -82t-100 -55.5t-114.5 -33t-117.5 -16.5t-117 -4q-134 0 -221 42.5t-138 131.5q-21 37 -18.5 90.5t32.5 93.5q41 61 114.5 73.5t131.5 -30.5q60 -44 73 -116t-30 -132q-46 -61 -112 -69q-13 0 -7 -14q13 -28 79 -43q40 -9 93 -9
q115 0 166.5 110.5t20.5 284.5q-6 34 -12 59t-18 61.5t-27 62.5t-39.5 54.5t-54.5 46.5t-73.5 30t-95.5 12v18q96 16 154.5 72.5t70.5 123t-8 132t-69 100.5q-45 32 -111 35t-120 -28t-62 -89l-18 -4q-15 41 -10.5 84.5t18.5 85.5t47.5 80t77 66.5t106 45.5t135.5 17
q95 0 175 -37.5t129 -97t69.5 -135t7 -150t-69.5 -144t-149 -114.5q160 -6 263.5 -110.5t103.5 -231.5z" />
    <glyph glyph-name="four" unicode="4" horiz-adv-x="1142" 
d="M1075 401h-172v-120v-70.5t1.5 -55.5t2 -44.5t4 -33t6 -24.5t9 -16.5t11.5 -11t15.5 -5t19 -2.5h23.5v-18h-553v18q25 0 37 1t25 10.5t17 22.5t8.5 45t5 69t0.5 104v131h-476v35l750 1024l94 -18v-897h172v-144zM535 545v512l-291 -398q-69 -96 -46 -110q8 -4 33 -4h304z
" />
    <glyph glyph-name="five" unicode="5" horiz-adv-x="1181" 
d="M197 913q226 35 393.5 11t276.5 -97.5t160.5 -177t43.5 -227.5q-5 -93 -38 -168t-84.5 -125t-122 -83.5t-147.5 -48.5t-163 -15q-229 0 -358 104q-36 31 -53 82.5t-7 103.5q19 72 85 112.5t141 23.5q72 -17 112 -82t23 -140q-18 -78 -78 -112q-16 -8 -7 -28
q18 -41 121 -46h21q66 0 120.5 31t85.5 82.5t42.5 117t-10.5 134.5q-6 22 -16.5 43.5t-28.5 47t-44 47.5t-61 43.5t-83 36t-105.5 23.5t-133.5 8t-163 -12l162 840h759l-98 -342h-711z" />
    <glyph glyph-name="six" unicode="6" 
d="M770 897q99 0 173 -26t118 -67.5t71 -102.5t36.5 -121.5t9.5 -133.5q0 -116 -38.5 -205.5t-109.5 -145.5t-167 -84.5t-214 -28.5q-276 0 -419.5 178t-143.5 491q0 379 169.5 594t473.5 215q65 0 122.5 -14.5t93 -33.5t65 -44t41 -39.5t18.5 -25.5q26 -39 25 -95.5
t-31 -99.5q-39 -67 -115 -84t-143 25q-66 39 -82.5 116.5t25.5 141.5q46 73 114 82q11 3 -1 17q-32 35 -132 36q-114 0 -170 -166t-57 -549q9 64 87.5 117t180.5 53zM649 0q86 0 115 47q28 44 31 189v170q0 220 -31 312.5t-107 92.5q-54 0 -98 -35t-57 -100q5 -347 8 -406
q12 -187 62 -240q30 -30 77 -30z" />
    <glyph glyph-name="seven" unicode="7" horiz-adv-x="1169" 
d="M180 1442h924l-201 -346q-50 -102 -85.5 -230.5t-52 -232t-25.5 -239t-10 -199t-1 -165.5v-30h-393q14 113 33 201t57 197.5t94.5 212t147.5 227t213 258.5h-562q-58 0 -117 -30.5t-89 -88.5h-19z" />
    <glyph glyph-name="eight" unicode="8" horiz-adv-x="1177" 
d="M567 1018l189 -96q67 50 67 235q0 75 -19.5 132t-52.5 89.5t-72.5 48t-84.5 15.5q-73 0 -123 -48t-61 -118q-10 -74 28.5 -144.5t128.5 -113.5zM657 500l-256 139q-37 -34 -47 -94.5t-10 -179.5q0 -365 254 -365q93 0 153.5 53.5t73.5 134.5q13 83 -30 169t-138 143z
M598 -18q-267 0 -392.5 90.5t-125.5 275.5q0 73 26.5 132.5t70 98t81.5 60.5t80 37q-117 81 -175.5 172.5t-58.5 222.5q0 79 32.5 149t93 123.5t154.5 85t210 31.5q220 0 324 -82t104 -221q0 -51 -22 -93.5t-50 -67.5t-67.5 -45t-61.5 -27t-45 -13q176 -79 260 -208.5
t84 -278.5q0 -210 -126 -326t-396 -116z" />
    <glyph glyph-name="nine" unicode="9" horiz-adv-x="1241" 
d="M514 547q-108 0 -188 26t-127 67t-75 102.5t-37 121t-9 133.5q0 230 142.5 346.5t385.5 116.5q148 0 257 -46.5t175.5 -134.5t98.5 -209t32 -277q0 -114 -7 -204t-25.5 -176.5t-49.5 -150.5t-80 -119t-116 -89t-158.5 -53t-206.5 -19q-65 0 -122.5 14.5t-93.5 34.5
t-65 44.5t-41.5 40t-17.5 25.5q-25 39 -25 95.5t29 99.5q41 67 117.5 84t143.5 -25q65 -41 81.5 -117t-24.5 -141q-50 -74 -115 -82q-12 -3 -1 -17q25 -34 116 -38h18q57 0 96 13.5t64 43.5t39 73t20 108.5t7.5 142.5t1.5 182v162q-9 -63 -83 -120.5t-157 -57.5zM614 1442
q-96 0 -124.5 -80t-28.5 -324q0 -209 27 -307t94 -98q75 0 116 35t56 106q-5 357 -15 454q-17 165 -75 201q-21 13 -50 13z" />
    <glyph glyph-name="colon" unicode=":" horiz-adv-x="638" 
d="M530 791q0 -88 -61 -149.5t-147 -61.5q-89 0 -151 61.5t-62 149.5t62 150.5t151 62.5q86 0 147 -62.5t61 -150.5zM530 193q0 -89 -60.5 -150t-147.5 -61q-89 0 -151 61t-62 150q0 88 62 150.5t151 62.5q86 0 147 -62.5t61 -150.5z" />
    <glyph glyph-name="semicolon" unicode=";" horiz-adv-x="624" 
d="M524 791q0 -88 -61.5 -149.5t-147.5 -61.5q-89 0 -151 61.5t-62 149.5q0 89 62 151t151 62q87 0 148 -62t61 -151zM465 342q45 -45 55.5 -109.5t-9 -130t-45.5 -118.5t-58 -97q-54 -83 -193 -163l-14 20q51 41 86 99.5t36.5 93t-12.5 43.5q-88 7 -143 59
q-63 63 -63.5 151t61.5 152q63 62 150.5 62t148.5 -62z" />
    <glyph glyph-name="less" unicode="&#x3c;" horiz-adv-x="1228" 
d="M512 545l621 -305v-273l-1039 533v88l1039 532v-274z" />
    <glyph glyph-name="equal" unicode="=" 
d="M1161 653h-1046v246h1046v-246zM1161 193h-1046v245h1046v-245z" />
    <glyph glyph-name="greater" unicode="&#x3e;" horiz-adv-x="1228" 
d="M96 240l621 305l-621 301v274l1039 -532v-88l-1039 -533v273z" />
    <glyph glyph-name="question" unicode="?" horiz-adv-x="1271" 
d="M1106 1133q3 -85 -18.5 -159t-56.5 -123.5t-81.5 -88.5t-88 -59.5t-81.5 -30.5q-218 -57 -205 -213l-18 -2q-1 7 -12 49.5t-14 71t12.5 76.5t56.5 91q65 69 86 164t8 224q-5 68 -33 129t-72.5 101t-101 54.5t-118.5 -10.5q-50 -20 -63 -67q-9 -33 8 -39q4 -2 8 -1
q60 9 116 -38q53 -47 58.5 -117t-37.5 -123q-44 -52 -115 -55t-125 43q-63 53 -59 161q-2 62 52.5 134.5t145.5 113.5q121 54 253.5 59.5t239.5 -32t178.5 -120t76.5 -193.5zM764 160q0 75 -53 127.5t-127 52.5t-127.5 -52.5t-53.5 -127.5q0 -74 53.5 -126t127.5 -52t127 52
t53 126z" />
    <glyph glyph-name="at" unicode="@" horiz-adv-x="2017" 
d="M1188 1300q87 -6 167.5 -22t159.5 -47t144.5 -75t120.5 -107t90 -140.5t49 -179t2 -219.5q-13 -123 -58.5 -220t-104.5 -154t-131 -94t-132.5 -49.5t-114.5 -10.5q-117 4 -172 53t-47 117q-14 -20 -30 -39.5t-53 -54t-89.5 -55.5t-111.5 -21q-67 0 -118 40.5t-76.5 101.5
t-35.5 127t-2 122q8 52 24 106t52 123.5t84 122t125.5 89t171.5 36.5q34 0 64.5 -9.5t50.5 -23t35 -28t21.5 -24t6.5 -11.5l10 53l252 -6q-109 -526 -125 -600q-1 -7 -4.5 -20t-5 -20t-1.5 -16t3.5 -14t12.5 -8.5t24 -3.5q28 0 63.5 14t75.5 47t74 80t58 121.5t28 163.5
q1 67 0 128.5t-14.5 117t-35.5 103.5t-63 88.5t-97 71.5t-137 53t-184 32q-151 15 -283.5 -17t-229 -98t-170 -157.5t-115.5 -193.5t-56 -210q-1 -8 -3 -23t-4 -61.5t0.5 -92t14.5 -108.5t33 -119t61.5 -115.5t94.5 -105t137 -81.5t185 -50q87 -11 163.5 -6t139 21t107.5 33
t70 31l25 13l11 -12q-7 -7 -20 -18.5t-64 -40t-113 -50.5t-168.5 -38.5t-228.5 -14.5q-66 1 -135 13.5t-143 40.5t-141 69t-125.5 103t-100 138t-62.5 178.5t-14 219.5q10 177 70 328.5t160.5 263.5t234.5 188t298 110t345 23zM1178 229q34 144 71 365q32 203 -59 207
q-40 2 -77 -27.5t-66 -82t-51 -112.5t-38 -128q-19 -90 -20 -150.5t17.5 -98t44 -54.5t59.5 -19q40 -4 69.5 21t39.5 52z" />
    <glyph glyph-name="A" unicode="A" horiz-adv-x="1560" 
d="M782 416l-204 461l-183 -461h387zM371 397l413 1045h11l553 -1256q21 -47 44.5 -80t40 -49.5t39 -26t31.5 -11t29 -3.5v-16h-717v16q46 0 67 24.5t18.5 60t-12 71t-20.5 60.5l-12 24l-65 141h-402q-13 -29 -15 -75.5t12 -99.5t41.5 -99t80.5 -76.5t123 -30.5v-16h-590v16
q25 2 43.5 6.5t53 26t67 59.5t77 112t89.5 177z" />
    <glyph glyph-name="B" unicode="B" horiz-adv-x="1538" 
d="M641 1423h-25v-682h60q38 0 66.5 5.5t61.5 27t54 58t35 103t14 157.5q0 89 -19.5 154t-46 98t-66.5 52t-68.5 23t-65.5 4zM881 739q37 0 72.5 -2t92.5 -10.5t105 -23.5t100 -43t88.5 -66t60 -96.5t23.5 -130.5q0 -58 -14 -106.5t-36 -84t-60.5 -63.5t-75 -46.5
t-93.5 -31.5t-101.5 -19.5t-113 -10.5t-114.5 -4.5t-119 -0.5h-620v18q42 0 69.5 38t38.5 94.5t11 130.5v878q0 51 -6 96t-19.5 84.5t-37.5 62.5t-56 23v17h620q80 0 126 -1t122 -8t121.5 -20.5t101.5 -40t86.5 -64t52 -96t21.5 -133.5q0 -62 -23 -114.5t-58 -86.5
t-81.5 -60.5t-90.5 -41t-87 -23.5t-68 -11.5t-38 -2.5zM645 18h7q58 0 86.5 2t74.5 11t69.5 31.5t49.5 60.5t36.5 101.5t10.5 150.5q0 56 -7 102t-17.5 80t-29 60.5t-35.5 43.5t-42.5 29.5t-45 18.5t-49 9.5t-47.5 4t-47 0.5h-43v-705h29z" />
    <glyph glyph-name="C" unicode="C" horiz-adv-x="1478" 
d="M1352 492h16l21 -414q-48 -32 -189.5 -64t-290.5 -32q-165 0 -314 51t-263.5 144t-182 234t-67.5 310t67.5 310t182 234t263.5 144t314 51q180 0 308 -29.5t172 -64.5l-21 -414h-16q-13 88 -36.5 160.5t-52 122.5t-64.5 88t-71.5 60t-76 36t-74 18.5t-68.5 4.5
q-118 0 -186 -63t-102.5 -221t-34.5 -437q0 -210 19 -350t60.5 -222t99.5 -115.5t144 -33.5q46 0 93 11.5t102.5 45t101.5 85.5t86 142.5t60 207.5z" />
    <glyph glyph-name="D" unicode="D" horiz-adv-x="1671" 
d="M682 18q42 0 69.5 1.5t62 7t56.5 16t48 28.5t42.5 45t34 65t27.5 89t19 116t12.5 147t3.5 182q0 140 -8 245.5t-21.5 181t-39 127t-52.5 82t-70 46.5t-83 21t-101 5h-90v-1405h90zM682 1442q93 0 178 -8.5t176 -31t167.5 -57.5t146 -92t117.5 -131t76 -178t28 -229
t-28.5 -228t-76 -175.5t-117 -128.5t-145.5 -90t-167.5 -55.5t-176 -29.5t-178.5 -8h-606v18q42 0 70 38t39.5 95t11.5 130v878q0 50 -6.5 95.5t-20 85t-38 62.5t-56.5 23v17h606z" />
    <glyph glyph-name="E" unicode="E" horiz-adv-x="1398" 
d="M1233 401h18v-401h-1196v18q41 0 68.5 37.5t39 95t11.5 130.5v878q0 51 -6 96t-19.5 84.5t-37.5 62.5t-56 23v17h1170v-420h-19q0 81 -31 147.5t-80 107t-109 70.5t-119.5 44t-108.5 22t-80 9l-31 1h-74v-686h166h13.5t31 4.5t45 12.5t48 26t47.5 42.5t36 65t21 91.5h18
v-502h-18q-6 69 -34.5 119t-59 72.5t-70 35.5t-53.5 14t-25 1h-166v-701h74q1 2 20 -0.5t54 2t78 7.5t92 17t97.5 30.5t92.5 47t78 67.5t54 92t20 120z" />
    <glyph glyph-name="F" unicode="F" horiz-adv-x="1290" 
d="M770 18v-18h-719v18q41 0 68.5 37.5t39 95t11.5 130.5v878q0 51 -6 96t-19.5 84.5t-37.5 62.5t-56 23v17h1190v-420h-18q0 81 -32 147.5t-83 107t-112.5 70.5t-123 44t-112.5 22t-83 9l-32 1h-74v-686h183h13.5t31 4.5t44.5 12.5t48 26t48 42.5t36.5 65t21.5 91.5h19
v-502h-19q-7 69 -35.5 119t-59 72.5t-70 35.5t-53.5 14t-25 1h-183v-467q0 -51 11 -92t28.5 -65t39 -41t42.5 -23.5t38.5 -10t28.5 -2.5h11z" />
    <glyph glyph-name="G" unicode="G" horiz-adv-x="1579" 
d="M944 539h578v-19q-98 0 -114.5 -45.5t-16.5 -300.5v-76q-76 -54 -218 -85t-307 -31q-219 0 -398.5 93.5t-283.5 263t-104 382.5q0 214 104 383.5t283 262.5t399 93q206 0 313 -24.5t205 -89.5l-38 -404h-17q0 98 -19.5 177t-48.5 130t-72.5 89t-83.5 57t-89.5 30.5
t-81.5 14t-68 2.5q-60 0 -102 -13.5t-74.5 -48.5t-52 -86.5t-32 -136t-17 -187t-4.5 -249.5q0 -176 7.5 -292.5t25.5 -203.5t51 -134t80.5 -69t117.5 -22q119 0 170 63.5t51 212.5q0 85 -5.5 132.5t-24 73t-42.5 32t-71 6.5v19z" />
    <glyph glyph-name="H" unicode="H" horiz-adv-x="1550" 
d="M1509 1425q-26 0 -44.5 -17.5t-27 -38t-13 -51t-5 -42.5t-0.5 -27v-1052q0 -112 32 -151q22 -28 58 -28v-18h-528v18q49 0 49 179v483h-495v-483v-14.5v-21.5t0.5 -24.5t2 -28t3.5 -26.5t6 -25t9 -20t12 -14.5t16 -4.5v-18h-531v18q94 0 92 172v7v1052q0 176 -92 176v17
h531v-17q-12 0 -21.5 -8.5t-15 -23.5t-8.5 -31t-4 -36t-1 -33t0.5 -28t0.5 -16v-551h495v551v11v19v24t-1.5 27.5t-3.5 27.5t-6 26t-9 21t-12.5 15t-16.5 5v17h528v-17z" />
    <glyph glyph-name="I" unicode="I" horiz-adv-x="829" 
d="M80 1442h676v-17q-32 0 -47.5 -1.5t-35.5 -10.5t-28.5 -28t-15 -54t-6.5 -88v-1012q0 -72 8 -115.5t27 -64.5t40 -27t58 -6v-18h-676v18q37 0 58 6t40 27t27 64.5t8 115.5v1012q0 45 -3 76t-12.5 51t-17.5 31.5t-27 16.5t-32.5 6t-40.5 1v17z" />
    <glyph glyph-name="J" unicode="J" horiz-adv-x="864" 
d="M193 1442h593v-17h-8q-57 0 -70 -10q-16 -13 -18 -77v-40v-925q0 -142 -46 -258.5t-118.5 -193t-173.5 -132.5t-198.5 -85.5t-206.5 -45.5l-6 16q70 25 127.5 74.5t106.5 130.5t76.5 207.5t27.5 286.5v676q0 271 -9 321q-8 44 -34 52q-11 3 -43 3v17z" />
    <glyph glyph-name="K" unicode="K" horiz-adv-x="1732" 
d="M1446 168q38 -51 68.5 -82t56.5 -44.5t41 -17.5t41 -6v-18h-365q-61 0 -94.5 2t-73 15.5t-62 30t-62 60t-72 89t-93.5 133.5l-206 288l348 369q42 46 66.5 106.5t27 117t-9 106t-39.5 79t-66 29.5v17h676v-17q-99 0 -291.5 -139t-431.5 -397zM668 1442h-586v-17
q23 0 36 -1t23.5 -7.5t14.5 -11.5t7 -23.5t3 -32.5v-49v-16v-1134v-9v-41t-1.5 -30t-2 -23t-6 -13.5t-8 -9.5t-13.5 -4t-17 -2.5t-24 0.5h-12v-18h580v18h-12q-24 0 -33.5 0.5t-22 4.5t-16 11t-8 23.5t-5 36.5t-0.5 56v1134q0 37 0.5 59.5t5.5 39.5t8.5 24.5t17.5 12t23 5
t34 0.5h14v17z" />
    <glyph glyph-name="L" unicode="L" horiz-adv-x="1304" 
d="M1153 444h18v-444h-1085v18q60 0 72 28t12 130v17v1114q0 61 -7 84.5t-21.5 28.5t-58.5 5h-13v17h612v-17q-28 0 -38.5 -0.5t-26.5 -4.5t-20.5 -12t-10.5 -25t-7 -41t-1 -62v-1262q44 0 88 3.5t102.5 14.5t110 29.5t103.5 51t88.5 76t59.5 108t23 143.5z" />
    <glyph glyph-name="M" unicode="M" horiz-adv-x="2107" 
d="M1204 500l355 942h499v-19q-25 0 -40.5 -1.5t-27 -9.5t-17 -14.5t-8 -26.5t-3 -35t-0.5 -50v-4.5v-4.5v-5v-1082q0 -106 21.5 -139t95.5 -33v-18h-625v18q70 0 87.5 32t17.5 140v1196l-531 -1404h-18l-664 1232v-671q0 -83 9.5 -156.5t32.5 -142t58 -118t89.5 -79
t123.5 -29.5v-18h-639v18q79 0 140 43.5t96.5 119t53.5 167t18 195.5v702q-97 171 -203 178v19h584z" />
    <glyph glyph-name="N" unicode="N" horiz-adv-x="1728" 
d="M1384 0h-225l-772 1100v-639q0 -45 1.5 -77t8 -81.5t18 -85t34.5 -76t55 -65.5t81 -41.5t111 -16.5v-18h-651v18q81 0 142 31.5t94.5 77t54.5 109t27 116t6 109.5v663l-97 138q-33 44 -66.5 75.5t-54.5 47t-51 25.5t-39.5 11t-36.5 3q-5 1 -8 1v17h654l696 -1006v547
q0 61 -8.5 119.5t-29.5 118t-53.5 104t-84.5 72.5t-117 28v17h621v-17q-73 0 -129.5 -28t-89.5 -72t-54.5 -104.5t-29 -118t-7.5 -119.5v-983z" />
    <glyph glyph-name="O" unicode="O" horiz-adv-x="1662" 
d="M831 0q46 0 80 6t61 27t44.5 42t30 70.5t19 92t10.5 126.5t4.5 153.5t0.5 193.5t-1 194t-4.5 155.5t-10 129.5t-19 95.5t-30 74.5t-44 45.5t-61 29.5t-80.5 7q-62 0 -103.5 -13t-70.5 -54.5t-44.5 -85t-23.5 -142t-9.5 -185.5t-1.5 -251q0 -98 0.5 -157.5t2.5 -132
t5.5 -113.5t10.5 -90t16 -74.5t23.5 -54.5t32.5 -42.5t42 -26t53.5 -16.5t66.5 -4zM831 1460q165 0 306.5 -60t237.5 -162t150 -238.5t54 -288.5t-54 -286t-150.5 -232t-237 -154.5t-306.5 -56.5t-306.5 56.5t-236.5 154.5t-150 232t-54 286q0 203 91.5 373t264 273
t391.5 103z" />
    <glyph glyph-name="P" unicode="P" horiz-adv-x="1454" 
d="M569 639v784h35q59 0 85 -0.5t66 -5.5t54.5 -14t37.5 -29t29.5 -47t15.5 -70.5t11 -97.5t2 -131q0 -78 -1 -129t-10 -96t-14 -69.5t-29 -45.5t-39 -29t-58.5 -13.5t-73 -6t-98.5 -0.5h-13zM569 281v340q78 0 136 1.5t130.5 6t126 13t113 23.5t102 35.5t83.5 51.5t65.5 70
t39.5 91t15 115q0 81 -24.5 144.5t-63.5 106.5t-103.5 74t-127.5 48t-153.5 26.5t-164 12t-174.5 2.5h-518v-17q65 0 86 -38t21 -138v-1054q0 -109 -16.5 -143t-78.5 -34v-18h674v18q-29 0 -41.5 0.5t-33.5 3.5t-30 9.5t-22.5 19t-18.5 31.5t-11.5 46.5t-8.5 65.5t-2 87z
" />
    <glyph glyph-name="Q" unicode="Q" horiz-adv-x="1646" 
d="M1337 -229l-350 118q-8 3 -22 7t-59 11.5t-92.5 9.5t-117 -6t-137.5 -28.5t-150 -64.5t-157 -107l10 -14q31 18 52.5 26.5t71.5 7t114 -25.5l176 -74q112 -47 186 -74t152.5 -46.5t135.5 -18.5t113.5 19.5t108.5 58.5l256 221l-10 14q-2 -1 -18 -11t-22.5 -13.5t-25 -12
t-31.5 -11.5t-35.5 -6.5t-43 -1.5t-48.5 7t-57 15zM831 0q46 0 80 6t61 27t44.5 42t30 70.5t19 92t10.5 126.5t4.5 153.5t0.5 193.5t-1 194t-4.5 155.5t-10 129.5t-19 95.5t-30 74.5t-44 45.5t-61 29.5t-80.5 7q-62 0 -103.5 -13t-70.5 -54.5t-44.5 -85t-23.5 -142
t-9.5 -185.5t-1.5 -251q0 -98 0.5 -157.5t2.5 -132t5.5 -113.5t10.5 -90t16 -74.5t23.5 -54.5t32.5 -42.5t42 -26t53.5 -16.5t66.5 -4zM831 1460q165 0 306.5 -60t237.5 -162t150 -238.5t54 -288.5t-54 -286t-150.5 -232t-237 -154.5t-306.5 -56.5t-306.5 56.5t-236.5 154.5
t-150 232t-54 286q0 203 91.5 373t264 273t391.5 103z" />
    <glyph glyph-name="R" unicode="R" horiz-adv-x="1583" 
d="M623 684h8q61 0 87.5 0.5t65.5 6t51.5 12.5t33.5 27t25.5 43t12 66t8 90.5t0.5 121.5q0 96 -3 157.5t-18.5 105t-27.5 64t-51 32t-66 12.5t-94 1h-32h-64v-739h64zM1372 260q28 -106 91.5 -172t111.5 -70v-18h-408q-75 0 -117 40.5t-69.5 138t-52.5 294.5q-8 57 -38.5 98
t-69.5 58.5t-76.5 27t-63.5 9.5h-25h-96v-435q0 -55 0.5 -86t5 -58t9 -38.5t17 -19.5t25.5 -9.5t37 -1.5v-18h-612v18q26 0 38.5 1t27.5 8t20.5 19t11 37t7 59.5t1.5 88.5v1012q0 101 -21 141.5t-85 40.5v17h582q95 0 172 -3.5t159.5 -14t145 -28.5t120.5 -47.5t95.5 -70
t59.5 -98t22 -129.5q0 -88 -31.5 -156t-80 -107.5t-114.5 -65t-127 -34t-126 -8.5q77 0 129 -8.5t103 -33t87.5 -71t70.5 -122t64 -185.5z" />
    <glyph glyph-name="S" unicode="S" horiz-adv-x="1267" 
d="M899 813q202 -133 253 -314.5t-65 -348.5q-2 -4 -7 -10t-23.5 -23.5t-41 -33t-61.5 -35t-84 -33.5t-110 -23.5t-137 -9.5q-111 0 -208.5 10.5t-157.5 26t-104.5 31t-62.5 26.5l-18 10v393h18q11 -46 36.5 -103.5t73 -125t106 -122t142 -91.5t175.5 -37q80 0 131.5 46
t61 112.5t-30.5 149t-128 147.5l-315 198q-218 136 -268.5 312t80.5 340q5 6 14.5 16.5t47 37.5t83.5 47t127.5 37t175.5 17q98 0 184 -9.5t138.5 -23.5t91.5 -28t55 -23l16 -10v-344h-18q-11 38 -21.5 70t-31.5 77t-45 80.5t-60.5 73t-79.5 62.5t-102 41t-127 16
q-65 0 -112.5 -26.5t-66 -71.5t-12 -98.5t51 -113.5t121.5 -110z" />
    <glyph glyph-name="T" unicode="T" horiz-adv-x="1560" 
d="M41 1442h1464v-461h-16q-3 68 -37.5 136t-88 122t-116.5 96t-126.5 65t-114.5 23h-23v-1192q0 -116 17.5 -164.5t74.5 -48.5v-18h-604v18q57 0 74.5 48.5t17.5 164.5v1192h-22q-65 0 -147 -36.5t-155.5 -95t-125.5 -142.5t-56 -168h-16v461z" />
    <glyph glyph-name="U" unicode="U" horiz-adv-x="1507" 
d="M655 -18q-85 0 -164 17.5t-149.5 56t-122.5 93.5t-82.5 136t-30.5 178v780v31q0 39 -0.5 56t-4 40t-12 31.5t-24.5 15t-40 6.5v19h585v-19q-60 0 -72 -27.5t-12 -134.5v-18v-794q0 -176 85 -260.5t237 -84.5q158 0 244 97t86 248v532q0 55 -7 111t-24.5 117t-44.5 107.5
t-71.5 76.5t-100.5 30v19h536l2 -19q-66 0 -116 -30.5t-79 -76t-47 -108t-24 -116.5t-6 -111v-532q0 -210 -139.5 -338.5t-401.5 -128.5z" />
    <glyph glyph-name="V" unicode="V" horiz-adv-x="1652" 
d="M983 1442h621v-17q-191 0 -379 -424l-404 -1001h-59l-578 1260q-22 48 -40.5 79.5t-31 48t-30.5 25t-26.5 9.5t-32.5 3v17h682v-17q-39 0 -57 -24.5t-14.5 -59.5t12.5 -69.5t20 -59.5l10 -24l317 -707l211 520q24 59 25 130.5t-20 138t-80 111t-146 44.5v17z" />
    <glyph glyph-name="W" unicode="W" horiz-adv-x="2336" 
d="M1726 1442h582v-17q-179 0 -356 -424l-359 -1001h-73q-288 673 -396 918l-327 -918h-74l-543 1260q-21 48 -38.5 79.5t-29 48t-28.5 25t-25 9.5t-30 3v17h639v-17q-37 0 -53 -24.5t-13 -59.5t11 -69.5t18 -59.5l10 -24l309 -703l164 457l-137 318q-21 48 -38.5 79.5
t-29 48t-29 25t-25.5 9.5t-30 3v17h639v-17q-37 0 -53 -24.5t-13 -59.5t11.5 -69.5t18.5 -59.5l10 -24l307 -705l184 518q16 44 19 99.5t-8.5 112.5t-36.5 104.5t-71 77.5t-106 30v17z" />
    <glyph glyph-name="X" unicode="X" horiz-adv-x="1712" 
d="M1442 215q80 -106 135 -151t98 -48v-16h-696v16q84 0 24 129q-17 36 -36 66l-234 340l-106 -150q-33 -47 -49.5 -112t-12.5 -126.5t45 -104t115 -42.5v-16h-631v16q53 4 71 9q182 48 449 387l109 153l-459 658q-86 112 -138.5 154.5t-96.5 47.5v17h723v-17
q-27 0 -47 -8.5t-31 -27.5t-0.5 -55t45.5 -85l264 -370q44 59 107 149q22 29 43 75.5t32.5 103t6.5 105t-43 81t-109 32.5v17h567v-17q-60 -7 -99 -25q-164 -74 -386 -384l-111 -154z" />
    <glyph glyph-name="Y" unicode="Y" horiz-adv-x="1601" 
d="M969 686q102 203 159 328q15 32 26.5 80.5t11.5 106.5t-15.5 107.5t-61 83t-116.5 33.5v17h594v-17q-99 0 -208 -104t-214 -315l-166 -336v-439q0 -17 -0.5 -43.5t-0.5 -40t0.5 -33t2 -29.5t5 -23.5t8.5 -19.5t13 -12.5t19 -9t25 -2.5v-18h-551v18q37 0 54 23t19.5 50
t1.5 98v42v334l-399 701q-44 77 -70.5 110.5t-41 40t-46.5 10.5v15h617v-15h-1h-1h-1q-50 0 -58 -11q-16 -20 39 -122q21 -39 57 -100z" />
    <glyph glyph-name="Z" unicode="Z" horiz-adv-x="1376" 
d="M1303 1442l-728 -1424h21q124 0 219 13t177.5 44.5t138.5 83.5t92.5 131.5t48.5 186.5h16l-31 -477h-1206l783 1423h-97q-266 0 -431.5 -105.5t-190.5 -289.5h-17l27 414h1178z" />
    <glyph glyph-name="bracketleft" unicode="[" horiz-adv-x="770" 
d="M231 1505h502v-18q-42 0 -66 -1.5t-57 -11t-50.5 -27t-30.5 -52t-13 -84.5v-1434q0 -43 13.5 -73.5t31.5 -46.5t50.5 -24.5t57.5 -10t64 -1.5v-20h-502v1804z" />
    <glyph glyph-name="backslash" unicode="\" horiz-adv-x="987" 
d="M666 -41l-637 1546h278l637 -1546h-278z" />
    <glyph glyph-name="bracketright" unicode="]" horiz-adv-x="770" 
d="M23 1505h501v-1804h-501v20q39 0 64 1.5t57.5 10t50.5 24.5t31.5 46.5t13.5 73.5v1434q0 36 -7 63.5t-16 45.5t-28 30.5t-33.5 19t-41.5 9.5t-43 3.5t-48 0.5v22z" />
    <glyph glyph-name="asciicircum" unicode="^" horiz-adv-x="1241" 
d="M676 1442l379 -672h-103l-331 289l-326 -289h-113l385 672h109z" />
    <glyph glyph-name="underscore" unicode="_" horiz-adv-x="1146" 
d="M0 -100h1147v-207h-1147v207z" />
    <glyph glyph-name="grave" unicode="`" horiz-adv-x="1005" 
d="M401 1475l459 -334h-168l-622 231z" />
    <glyph glyph-name="a" unicode="a" horiz-adv-x="1161" 
d="M614 184v316q-35 -8 -62 -22t-44 -28t-29 -37.5t-18 -39.5t-8.5 -45.5t-3 -42.5t-0.5 -43v-15t4 -32.5t11.5 -41.5t24 -32.5t39.5 -14.5q49 0 86 78zM1114 141l12 -10q-22 -67 -94.5 -108t-169.5 -41q-5 0 -13 0.5t-32 4t-46.5 10t-50 20t-48 32.5t-36.5 49t-20 68
q-21 -81 -95.5 -132.5t-180.5 -51.5q-27 0 -57 4.5t-66.5 18.5t-65 36t-48 60.5t-19.5 88.5q0 44 12 79t27.5 60.5t56 49.5t70.5 39t101 35t117 31.5t146 35.5v131q0 159 -78 234.5t-184 19.5q-45 -26 25 -51q47 -16 74 -78q23 -57 0 -111t-80 -79q-56 -22 -111 1.5
t-78 78.5q-15 40 -8 81.5t33 69.5q58 62 137 105q41 22 89 32.5t76 10.5h28q197 0 307 -112.5t110 -297.5v-305q0 -6 0.5 -16t6 -35.5t15 -44.5t30 -34t47.5 -14q6 0 14.5 1t25.5 9.5t21 24.5z" />
    <glyph glyph-name="b" unicode="b" horiz-adv-x="1357" 
d="M649 0q92 0 147.5 113.5t55.5 347.5q0 126 -20 222t-67 158t-118 62q-168 0 -168 -325v-218q0 -180 40 -270t130 -90zM831 965q103 0 186.5 -38.5t136.5 -104.5t81.5 -151.5t28.5 -181.5q0 -118 -31 -208.5t-81 -146t-121 -90.5t-143.5 -48.5t-156.5 -13.5
q-216 0 -313 90q-19 -12 -54.5 -26t-74.5 -24t-74.5 -16.5t-58.5 -5.5t-23 10v1284q0 54 -21 81t-83 50v17l450 86v-719q46 79 129.5 117.5t222.5 38.5z" />
    <glyph glyph-name="c" unicode="c" horiz-adv-x="1054" 
d="M651 965q109 0 189 -37.5t125 -87.5q26 -27 34 -71t-4 -85q-20 -60 -77.5 -86.5t-116.5 -3.5q-60 20 -86.5 77t-3.5 115q24 61 77 82q15 5 4 26q-20 39 -90 49l-40 3q-168 0 -168 -442q0 -166 68.5 -253t197.5 -87q77 0 131 28t76 80l14 -6q0 -49 -26.5 -98.5t-75 -91
t-126 -68t-169.5 -26.5q-204 0 -348 141t-144 354q0 107 33.5 195t100.5 154t175 102.5t250 36.5z" />
    <glyph glyph-name="d" unicode="d" horiz-adv-x="1363" 
d="M885 244v411q0 136 -55.5 213.5t-137.5 77.5q-32 0 -57.5 -11.5t-49 -41t-39 -77t-25 -124t-9.5 -178.5q0 -201 47 -302t156 -101q56 0 106 42t64 91zM1231 184q0 -74 20.5 -99.5t83.5 -33.5v-16l-393 -51q-25 -4 -39.5 5t-16.5 20l-1 11v183q-16 -69 -70.5 -120.5
t-124.5 -76t-145 -24.5q-216 0 -332.5 123t-116.5 362q0 125 38.5 221t108 156t162.5 90.5t205 30.5q209 0 275 -91v420q0 54 -21 81t-84 50v17l451 86v-1344z" />
    <glyph glyph-name="e" unicode="e" horiz-adv-x="1099" 
d="M592 965q70 0 128 -11.5t114.5 -43.5t95 -83.5t62.5 -136t24 -196.5h-557q0 -113 16.5 -192.5t50 -125.5t73 -69.5t95.5 -36.5q85 -19 168.5 36t112.5 177l18 -4q-22 -123 -136 -210t-296 -87q-132 0 -243.5 64t-176.5 177t-65 248q0 101 29.5 184.5t79.5 140t117 95.5
t139.5 56.5t150.5 17.5zM459 512h260q0 209 -27 321.5t-92 112.5q-44 0 -77.5 -68.5t-48.5 -165t-15 -200.5z" />
    <glyph glyph-name="f" unicode="f" horiz-adv-x="794" 
d="M506 231q0 -97 16.5 -149t67.5 -66v-16h-512v16q28 8 45 27t24.5 52t9 60t1.5 76v697h-133v18h133q0 117 17 208.5t49.5 154t74.5 105t98.5 66t114 33t127.5 9.5q73 0 134.5 -33t92.5 -90q19 -34 16.5 -78.5t-24.5 -79.5q-31 -46 -87 -57.5t-103 18.5q-48 31 -59.5 86
t20.5 105q26 44 82 57q25 7 24 25q-2 23 -43 29l-20 1q-41 0 -70 -13.5t-47 -51.5t-28.5 -71.5t-14.5 -110t-5 -127.5t-1 -161v-8v-7.5v-8.5h219v-18h-219v-697z" />
    <glyph glyph-name="g" unicode="g" horiz-adv-x="1214" 
d="M1047 993q33 8 70 -2.5t63 -36.5q36 -39 32.5 -91t-43.5 -89q-39 -35 -91.5 -31t-88.5 43q-40 47 -31 91q2 11 -11 12q-26 0 -60 -27q71 -71 71 -205q0 -38 -8.5 -74.5t-36.5 -80t-72 -76t-123.5 -54.5t-182.5 -22q-117 0 -199 27q-15 -9 -28.5 -20.5t-25 -25.5t-12 -27
t9 -24t39.5 -17.5t78 -6.5h287q55 0 92 -3t96.5 -24.5t92.5 -60.5t53 -118.5t6 -190.5q-1 -6 -3 -17.5t-15 -45.5t-33.5 -67.5t-63.5 -78.5t-100 -84q-82 -56 -201 -84t-229.5 -25t-201 38t-118.5 97q-22 48 -25.5 93t10 80.5t34.5 66t52 54.5t57.5 40t54.5 29
q-115 57 -115 176q0 7 0.5 18.5t10 45t26.5 64t56 65.5t93 59q-60 21 -102.5 55.5t-62.5 74.5t-28.5 74.5t-8.5 69.5q0 308 424 308q235 0 342 -93q86 107 170 121zM453 -90q-110 0 -195 35q-60 -69 -58.5 -121.5t46 -89t97 -59.5t96.5 -33l44 -11q177 -21 282.5 -7.5
t135.5 46.5q19 21 22 54.5t-3 57.5l-7 23q-1 4 -4 11t-17 25.5t-32 32t-52.5 25t-76.5 11.5h-278zM535 367q31 0 48 25t25 87t8 178q0 180 -14 234.5t-67 54.5q-55 0 -68.5 -54t-13.5 -235q0 -170 17 -230t65 -60z" />
    <glyph glyph-name="h" unicode="h" horiz-adv-x="1216" 
d="M1096 233q0 -97 17 -151t67 -66v-16h-512v16q53 16 67.5 68t14.5 149v410q0 88 -34.5 130.5t-107.5 41.5q-35 0 -70.5 -25.5t-56.5 -62.5v-496q0 -97 16.5 -149t67.5 -66v-16h-512v16q28 8 45 27t24.5 52t9 60t1.5 76v1063q0 54 -22.5 81t-85.5 50v17l456 86v-772
q38 89 115.5 149t163.5 60q52 0 98 -9t90.5 -31t76.5 -57t51.5 -90.5t19.5 -126.5v-418z" />
    <glyph glyph-name="i" unicode="i" horiz-adv-x="667" 
d="M311 1018q-82 0 -138 56t-56 138t56 138.5t138 56.5t139.5 -56.5t57.5 -138.5q0 -81 -57.5 -137.5t-139.5 -56.5zM508 231q0 -97 16.5 -149t67.5 -66v-16h-512v16q28 8 45 27t24.5 52t9 60t1.5 76v500q0 54 -22 81t-85 50v17l455 86v-734z" />
    <glyph glyph-name="j" unicode="j" horiz-adv-x="643" 
d="M313 1022q-82 0 -138 56.5t-56 138.5t56 138t138 56t139.5 -56.5t57.5 -137.5q0 -82 -57.5 -138.5t-139.5 -56.5zM59 862v17l449 86v-863q0 -111 -30.5 -202.5t-76.5 -150.5t-111.5 -105t-125 -70t-127.5 -41v16q35 9 61 64t37.5 128t18 144.5t7.5 120.5l1 49v656
q0 54 -21 86t-82 65z" />
    <glyph glyph-name="k" unicode="k" horiz-adv-x="1339" 
d="M1069 174q113 -156 238 -156v-18h-379q-42 0 -70 5.5t-51.5 17.5t-47 39.5t-48.5 62t-65 94.5q-10 15 -15 23l-119 178l240 246q45 47 65 109t0.5 108.5t-80.5 46.5v16h557v-16q-95 0 -266.5 -91.5t-302.5 -226.5zM475 231q0 -97 16.5 -149t67.5 -66v-16h-512v16
q28 8 45 26.5t24.5 51.5t9 60t1.5 77v1063q0 54 -22.5 81t-86.5 50v17l457 86v-1297z" />
    <glyph glyph-name="l" unicode="l" horiz-adv-x="641" 
d="M496 231q0 -97 16.5 -149t67.5 -66v-16h-512v16q23 7 38.5 22t23.5 32t12 47.5t4.5 52t0.5 61.5v1063q0 54 -22.5 81t-85.5 50v17l457 86v-1297z" />
    <glyph glyph-name="m" unicode="m" horiz-adv-x="1697" 
d="M1575 233q0 -97 17 -151t67 -66v-16h-512v16q53 16 67.5 68t14.5 149v412q0 91 -20 131.5t-72 40.5q-70 0 -121 -92q4 -35 4 -72v-420q0 -97 17 -151t67 -66v-16h-512v16q53 16 67.5 68t14.5 149v412q0 92 -19.5 132t-72.5 40q-62 0 -111 -78v-508q0 -97 16.5 -149
t67.5 -66v-16h-512v16q28 8 45 26.5t24.5 51.5t9 60t1.5 77v500q0 54 -22 81t-85 50v17l455 86v-195q38 85 103.5 140t144.5 55q259 0 295 -211q35 94 104 152.5t156 58.5q66 0 117 -14.5t94 -48.5t66.5 -97t23.5 -152v-420z" />
    <glyph glyph-name="n" unicode="n" horiz-adv-x="1214" 
d="M1079 233q0 -97 17 -151t67 -66v-16h-512v16q53 16 67.5 68t14.5 149v412q0 88 -34 130t-107 42q-32 0 -65 -23t-56 -57v-506q0 -97 16.5 -149t67.5 -66v-16h-512v16q28 8 45 26.5t24.5 51.5t9 60t1.5 77v500q0 54 -22 81t-85 50v17l455 86v-199q41 85 116 142t156 57
q66 0 122.5 -15t106.5 -48.5t78.5 -97t28.5 -151.5v-420z" />
    <glyph glyph-name="o" unicode="o" horiz-adv-x="1218" 
d="M612 965q134 0 237 -38.5t166 -106.5t94.5 -155.5t31.5 -191.5q0 -103 -31.5 -190.5t-94.5 -155.5t-166 -106.5t-237 -38.5t-237 38.5t-165.5 107t-94 155.5t-31.5 190q0 104 31.5 191.5t94 155.5t165.5 106.5t237 38.5zM612 0q79 0 96 86t17 387t-17 387t-96 86
q-80 0 -97 -85t-17 -388t17 -388t97 -85z" />
    <glyph glyph-name="p" unicode="p" horiz-adv-x="1355" 
d="M653 0q92 0 148.5 113.5t56.5 347.5q0 125 -20 219.5t-67 154.5t-118 60q-153 0 -168 -256v-354q8 -142 48 -213.5t120 -71.5zM838 965q102 0 185.5 -38.5t136.5 -104.5t81.5 -151.5t28.5 -181.5q0 -118 -31 -208.5t-81 -146t-121 -90.5t-143.5 -48.5t-156.5 -13.5
q-160 0 -252 47v-340q0 -97 16.5 -148t67.5 -65v-19h-512v19q28 8 45 26.5t24.5 51.5t9 59.5t1.5 75.5v1042q0 54 -21.5 81t-84.5 50v17l454 86v-160q91 160 353 160z" />
    <glyph glyph-name="q" unicode="q" horiz-adv-x="1347" 
d="M717 51q60 0 114 43t54 101v512q-9 113 -61.5 176t-127.5 63q-40 0 -70.5 -19.5t-57 -65.5t-40.5 -133.5t-14 -213.5q0 -101 11 -182t34 -145.5t63 -100t95 -35.5zM1233 -311q0 -97 16.5 -148t67.5 -65v-19h-512v19q28 8 45 26.5t24.5 51.5t9 59.5t1.5 75.5v422
q-33 -51 -128.5 -90t-209.5 -39q-216 0 -332.5 123t-116.5 362q0 125 38.5 221t108 156t162.5 90.5t205 30.5q230 0 346 -72q60 38 126 56.5t107.5 14t41.5 -27.5v-1247z" />
    <glyph glyph-name="r" unicode="r" horiz-adv-x="1046" 
d="M946 918q60 -53 66.5 -132.5t-45.5 -138.5q-52 -60 -131 -65.5t-140 45.5q-65 62 -65 127q0 18 -26 9q-53 -19 -120 -118l-4 -6v-408q0 -97 16.5 -149t67.5 -66v-16h-512v16q28 8 45 27t24.5 52t9 60t1.5 76v500q0 54 -22.5 81t-85.5 50v17l456 86v-287q42 63 79 110
t59.5 71.5t52 45.5t40 26.5t38.5 18.5q42 21 99.5 12t96.5 -44z" />
    <glyph glyph-name="s" unicode="s" horiz-adv-x="911" 
d="M641 571q90 -55 138.5 -143t43.5 -178.5t-61 -157.5q-3 -4 -10 -11.5t-33 -26.5t-58.5 -33.5t-90 -26.5t-124.5 -12q-69 0 -132.5 7t-103.5 17t-70.5 20.5t-43.5 17.5l-14 7v268h18q30 -137 134.5 -228t211.5 -91q53 0 86 28.5t39 69t-20 89t-82 85.5l-207 125
q-145 95 -179 230t60 239q3 4 9.5 10.5t32.5 24t58 30.5t88.5 23.5t121.5 10.5q105 0 188 -14.5t114 -28.5l31 -15v-209h-18q-13 66 -47.5 116t-80 77.5t-93 41t-94.5 13.5q-49 0 -83.5 -23t-43.5 -57.5t18 -80t90 -85.5z" />
    <glyph glyph-name="t" unicode="t" horiz-adv-x="817" 
d="M655 131q72 0 125 62l13 -9q-19 -84 -101.5 -143t-193.5 -59q-52 0 -98.5 8.5t-93 30.5t-80 56.5t-54 90t-20.5 127.5v633h-129v18h129v275l344 43v-318h264v-18h-264v-627q0 -89 36 -129.5t123 -40.5z" />
    <glyph glyph-name="u" unicode="u" 
d="M1114 182q0 -73 20 -97t85 -32v-16l-394 -53q-24 -4 -38.5 6t-16.5 22l-2 11v167q-13 -86 -89.5 -147t-197.5 -61q-52 0 -97 8.5t-89 31t-75.5 57t-50.5 90t-19 126.5v455q0 89 -8 109q-12 29 -62 40q-17 4 -45 8v17l467 41v-664q0 -90 29 -130t104 -40q107 0 133 115
v497q0 95 -5 114q-9 32 -50 43q-16 4 -41 7v17l442 41v-783z" />
    <glyph glyph-name="v" unicode="v" horiz-adv-x="1226" 
d="M737 946h477v-16q-51 0 -86.5 -15t-70 -57.5t-64 -101t-73.5 -162.5l-232 -612h-113l-403 821q-63 116 -166 127v16h641v-16q-38 0 -57 -17.5t-19 -43t6 -51t15 -42.5l8 -18l209 -410q57 152 92 250q12 33 17.5 73t1 86.5t-22 84.5t-58.5 63t-102 25v16z" />
    <glyph glyph-name="w" unicode="w" horiz-adv-x="1732" 
d="M1284 946h440v-16q-89 0 -141.5 -67.5t-130.5 -268.5l-215 -612h-102l-269 591l-198 -591h-107l-375 821q-58 117 -153 127v16h553v-16q-25 0 -34.5 -17.5t-5 -43t12.5 -51t17 -42.5l8 -18l190 -406l82 240l-96 211q-40 80 -57.5 102t-45.5 25v16h512v-16
q-27 0 -38.5 -17.5t-8 -43t10.5 -51t15 -42.5l9 -18l191 -408q55 148 88 246q14 40 15.5 94t-10.5 109t-52.5 93t-104.5 38v16z" />
    <glyph glyph-name="x" unicode="x" horiz-adv-x="1349" 
d="M1174 121q25 -33 49 -55t47 -31.5t35.5 -13t31.5 -5.5v-16h-626v16q71 0 3 112q-24 40 -34 50l-131 180l-72 -98q-4 -5 -9.5 -14t-17.5 -34t-18 -48t-3 -51.5t19.5 -48.5t57 -34t102.5 -14v-16h-551v16q102 0 210 68t192 186l78 103l-336 467q-13 14 -25.5 25.5t-25.5 20
t-22.5 15t-22.5 11t-19.5 7.5t-19 5t-16 3t-15.5 2l-12 1v16h700v-16q-30 0 -49.5 -20t-16 -58.5t38.5 -83.5l111 -137l63 94q2 3 4.5 7.5t10 18.5t13 27.5t10 32t4 34.5t-7 32t-20.5 27.5t-40 18.5t-62 7v16h510v-16q-120 0 -230 -55t-169 -148l-74 -113z" />
    <glyph glyph-name="y" unicode="y" horiz-adv-x="1261" 
d="M754 946h477v-16q-106 0 -161.5 -65.5t-141.5 -270.5l-256 -735q-75 -246 -170 -324q-34 -28 -93.5 -34t-103.5 14q-66 31 -91 98t3 133q31 66 98.5 91.5t133.5 -3.5q69 -31 90 -96q6 -23 24 -25q41 -4 82 126q5 16 10 34l-467 930q-63 117 -165 127v16h641v-16
q-38 0 -57 -17.5t-19 -43t5.5 -51t14.5 -42.5l8 -18l209 -406l84 248q2 7 5 19t8.5 46t6.5 65.5t-6.5 69.5t-25.5 65t-54.5 46t-88.5 19v16z" />
    <glyph glyph-name="z" unicode="z" horiz-adv-x="1083" 
d="M1010 946l-496 -928q87 0 160.5 23.5t118.5 55.5t80.5 76t51.5 75t27 63h17l-19 -311h-891l529 928q-192 0 -303 -70t-150 -182h-16l10 270h881z" />
    <glyph glyph-name="braceleft" unicode="{" horiz-adv-x="784" 
d="M549 6q0 -167 28 -250.5t95 -83.5l-2 -8q-204 0 -306 83.5t-102 258.5v240q0 45 -2.5 82t-6 65t-10.5 50.5t-13.5 38t-17.5 28t-18.5 19.5t-21.5 14t-22.5 10t-24.5 8t-25 8v9q8 3 27.5 9.5t27 10t24 12t24 19t19.5 28t17 41t11.5 55.5t9 75t2.5 96v239q0 177 98 259.5
t310 82.5l2 -8q-72 0 -97.5 -80.5t-25.5 -253.5v-295q0 -165 -86.5 -230t-286.5 -65q103 0 169 -11t114 -41t69 -83.5t21 -136.5v-295z" />
    <glyph glyph-name="bar" unicode="|" horiz-adv-x="512" 
d="M150 -336v1841h227v-1841h-227z" />
    <glyph glyph-name="braceright" unicode="}" horiz-adv-x="770" 
d="M106 -330q68 0 95.5 83t27.5 251v295q0 83 21 136.5t69.5 83.5t114.5 41t168 11q-199 0 -286 65t-87 230v295q0 175 -25 254.5t-98 79.5l3 8q213 0 310 -82t97 -260v-239q0 -48 2.5 -88t6 -69.5t11 -54.5t13 -41.5t17 -30t19 -21t22 -15t22 -10.5t24.5 -8.5t25 -8.5v-8
q-9 -3 -25 -8t-24.5 -8t-22.5 -10t-21.5 -14t-18.5 -19.5t-17.5 -28t-13.5 -38t-10.5 -50.5t-6 -65t-2.5 -82v-240q0 -175 -102 -258.5t-305 -83.5z" />
    <glyph glyph-name="asciitilde" unicode="~" horiz-adv-x="1327" 
d="M752 338l-244 96q-33 13 -80.5 25t-108.5 20t-112 -6t-70 -53l-8 2q35 81 78 140t84 88.5t83 47t77 19t62 -1t43 -7.5l15 -6l244 -94q31 -14 81 -26.5t109.5 -19.5t111 7.5t71.5 53.5l8 -2q-36 -77 -79.5 -134t-85 -87t-83 -48.5t-76.5 -21t-62 -2t-42 5.5z" />
    <glyph glyph-name="uni007F" horiz-adv-x="0" 
 />
    <glyph glyph-name="uni00A0" unicode="&#xa0;" horiz-adv-x="573" 
 />
    <glyph glyph-name="exclamdown" unicode="&#xa1;" horiz-adv-x="733" 
d="M260 618h236l75 -976h-393zM180 967q0 83 58.5 140.5t140.5 57.5q80 0 137 -57.5t57 -140.5q0 -82 -57 -139.5t-137 -57.5q-82 0 -140.5 57.5t-58.5 139.5z" />
    <glyph glyph-name="cent" unicode="&#xa2;" horiz-adv-x="1191" 
d="M692 193v753q-139 -39 -139 -442q0 -240 139 -311zM770 786q23 60 78 82q15 5 6 26q-17 38 -94 49q-23 3 -49 3v-762q39 -18 88 -21.5t94.5 7t82.5 37.5t50 65l14 -6q0 -96 -89.5 -182t-239.5 -102v-224h-19v224q-153 0 -273.5 54.5t-193.5 168.5t-73 272q0 105 32 192
t96.5 153t169.5 103.5t242 39.5v249h19v-249q109 0 188.5 -37.5t124.5 -87.5q26 -28 34.5 -71.5t-3.5 -84.5q-20 -60 -78 -86.5t-117 -3.5q-60 20 -86.5 77t-3.5 115z" />
    <glyph glyph-name="sterling" unicode="&#xa3;" horiz-adv-x="1443" 
d="M565 131q-129 84 -192 113q-78 31 -131.5 18t-81.5 -48.5t-25 -78.5q2 -32 16 -56t35.5 -38t42.5 -23t46 -12.5t37 -4.5t24 -1q73 0 136 40t93 91zM1159 -4q-93 -27 -238 -6.5t-241 73.5q-151 -81 -342 -81q-17 0 -43 4t-71.5 17t-85.5 46t-58 82q-18 50 -7 108.5t59 110
t144.5 63t247.5 -33.5l64 -23q-5 28 -109 213q-76 133 -104 174h-185v19h175q-55 124 -73 232t-2 186.5t55.5 142t97 103t123.5 64.5t134 31t130.5 -1.5t111.5 -28.5q90 -38 137.5 -85t73.5 -108q16 -44 3.5 -97t-48.5 -91q-52 -54 -128 -54.5t-130 52.5q-55 54 -56 129
t52 129q55 55 125 55q29 0 14 21q-19 24 -53 33q-197 49 -274 -47q-97 -121 35 -430q46 -108 120 -236h268v-19h-256q29 -42 41 -69q43 -82 58.5 -165.5t7.5 -144t-31 -106.5l53 -18q64 -20 121 -29.5t112 -6.5t87.5 32.5t32.5 85.5h22q9 -58 5 -104t-19 -80.5t-34 -59
t-40.5 -40.5t-39.5 -25.5t-30 -12.5z" />
    <glyph glyph-name="currency" unicode="&#xa4;" horiz-adv-x="1253" 
d="M1116 707q0 -156 -90 -285l182 -180l-118 -121l-183 182q-126 -90 -284 -90t-287 90l-180 -182l-119 121l180 180q-90 134 -90 285q0 155 90 286l-180 181l119 118l180 -180q129 90 287 90t284 -90l183 180l118 -118l-182 -181q90 -126 90 -286zM623 475q95 0 163 68.5
t68 163.5q0 97 -68 165t-163 68q-97 0 -165.5 -68t-68.5 -165q0 -95 68.5 -163.5t165.5 -68.5z" />
    <glyph glyph-name="yen" unicode="&#xa5;" horiz-adv-x="1458" 
d="M901 1442h594v-17q-99 0 -208 -104t-214 -315l-166 -334h322v-19h-322v-184h322v-18h-322v-220q0 -17 -0.5 -43.5t-0.5 -40t0.5 -33t2 -29.5t5 -23.5t8.5 -19.5t13 -12.5t19 -9t25 -2.5v-18h-551v18q37 0 54.5 23.5t20 51t1.5 99.5v39v220h-291v18h291v96q-9 18 -27.5 50
t-21.5 38h-242v19h231l-340 594q-34 59 -54.5 90t-39 46.5t-28.5 18.5t-35 6v15h616v-15q-51 0 -60 -10q-16 -18 33 -113q22 -41 62 -110l297 -508q105 203 162 328q15 32 26.5 80.5t11 106.5t-16 107.5t-61 83t-116.5 33.5v17z" />
    <glyph glyph-name="brokenbar" unicode="&#xa6;" horiz-adv-x="514" 
d="M373 1505v-768h-228v768h228zM373 381v-772h-228v772h228z" />
    <glyph glyph-name="section" unicode="&#xa7;" horiz-adv-x="1202" 
d="M852 174q104 -73 150.5 -159t35.5 -212q-7 -71 -32.5 -127t-59.5 -91t-81 -58.5t-90 -34.5t-94 -14.5t-85.5 -2.5t-71.5 5q-76 7 -141 43t-92 71q-26 31 -32 76.5t11 85.5q29 59 89 81t120 -5q59 -28 81 -88t-5 -119q-28 -61 -84 -80q-12 -3 -1 -19q15 -22 56 -28
q115 -9 186.5 45.5t80.5 151.5q8 71 -32.5 132t-137.5 122l-254 149q-84 53 -143 120.5t-83 142t-12.5 147.5t72.5 142.5t168 121.5q-106 63 -153 152.5t-34 218.5q7 71 32 127.5t59 91.5t80.5 59t90 35t94.5 15.5t86 3.5t72 -5q76 -7 140 -44.5t92 -73.5q27 -31 32.5 -76.5
t-12.5 -85.5q-29 -59 -89 -81t-120 5q-59 28 -81 88t6 119q32 63 86 80q11 3 1 20q-17 27 -59 33q-114 9 -184.5 -48t-79.5 -155q-8 -71 32.5 -132t137.5 -122l254 -149q84 -53 142.5 -120.5t82 -142t12.5 -147.5t-72 -142.5t-167 -121.5zM535 383q36 -24 111.5 -72
t129.5 -83t62 -42q30 26 48.5 51.5t26 47.5t4.5 45.5t-10 41.5t-24.5 39.5t-32.5 36t-40.5 33.5t-41.5 29.5t-42.5 28t-37.5 24.5q-36 24 -111.5 72t-129.5 83t-62 42q-30 -26 -48.5 -51.5t-27 -47.5t-5 -45.5t10 -41.5t24.5 -39.5t32.5 -35.5t41 -33.5t42 -30t43 -28
t37.5 -24.5z" />
    <glyph glyph-name="dieresis" unicode="&#xa8;" horiz-adv-x="765" 
d="M334 1341q0 -60 -42 -102.5t-99 -42.5q-60 0 -103 42.5t-43 102.5q0 58 43 100t103 42q57 0 99 -42t42 -100zM719 1341q0 -60 -42 -102.5t-99 -42.5q-60 0 -103 42.5t-43 102.5q0 58 43 100t103 42q57 0 99 -42t42 -100z" />
    <glyph glyph-name="copyright" unicode="&#xa9;" horiz-adv-x="1669" 
d="M834 1528q157 0 300 -61t246.5 -164.5t164.5 -246.5t61 -300t-61 -300t-164.5 -246.5t-246.5 -164.5t-300 -61q-158 0 -301 61t-246.5 164.5t-164.5 246.5t-61 300t61 300t164.5 246.5t246.5 164.5t301 61zM834 143q165 0 306 82t223.5 223.5t82.5 307.5t-82.5 307.5
t-223.5 224t-306 82.5q-166 0 -308 -82.5t-224.5 -224t-82.5 -307.5q0 -124 49 -238t131.5 -196t196 -130.5t238.5 -48.5zM1126 616h19l6 -233q-26 -19 -105 -36t-167 -17q-126 0 -231.5 49t-171.5 145.5t-66 223.5t66 224t171.5 146t231.5 49q104 0 176 -16.5t96 -36.5
l-6 -235h-19q-12 86 -40 143.5t-65.5 83t-70 34.5t-71.5 9q-67 0 -105.5 -33.5t-58 -121.5t-19.5 -246q0 -157 20.5 -245.5t58.5 -121.5t104 -33q35 0 68 10t70 36.5t66 83t43 138.5z" />
    <glyph glyph-name="ordfeminine" unicode="&#xaa;" horiz-adv-x="671" 
d="M317 1044v148q-25 -5 -42.5 -16t-26.5 -22t-13.5 -29.5t-5 -29.5t-0.5 -32q0 -3 0.5 -7.5t2.5 -15.5t6 -20t13 -16t21 -7q26 0 45 47zM573 1014l17 -6q-10 -36 -49.5 -58t-91.5 -22q-5 0 -12.5 0.5t-28 5t-37 12.5t-31.5 25t-18 41q-12 -39 -51.5 -61.5t-96.5 -22.5
q-19 0 -39.5 4.5t-43.5 15.5t-37.5 34.5t-14.5 55.5q0 20 3.5 36t14 29.5t19.5 23.5t31.5 20t37.5 16.5t49 16t55.5 14.5t67.5 16v70q0 83 -39 120.5t-96 8.5q-24 -15 11 -25q25 -6 38 -38q12 -31 0 -60t-41 -41q-31 -11 -59.5 1.5t-40.5 41.5q-15 41 12 80q23 31 66 53
q18 10 45 16t45 7h18q104 0 162 -59t58 -156v-160q0 -3 0.5 -8.5t3 -18.5t7.5 -23.5t16 -18.5t26 -7q18 3 24 21z" />
    <glyph glyph-name="guillemotleft" unicode="&#xab;" horiz-adv-x="1476" 
d="M764 1034v-100l-242 -389l242 -377v-100l-586 477zM1294 1034v-100l-239 -389l239 -377v-100l-585 477z" />
    <glyph glyph-name="logicalnot" unicode="&#xac;" horiz-adv-x="1417" 
d="M84 856h1241v-758h-252v508h-989v250z" />
    <glyph glyph-name="uni00AD" unicode="&#xad;" horiz-adv-x="909" 
d="M776 379h-645v283h645v-283z" />
    <glyph glyph-name="registered" unicode="&#xae;" horiz-adv-x="1677" 
d="M836 1528q157 0 300 -61t246.5 -164.5t164.5 -246.5t61 -300t-61 -300t-164.5 -246.5t-246.5 -164.5t-300 -61t-300 61t-246.5 164.5t-165 246.5t-61.5 300t61.5 300t165 246.5t246.5 164.5t300 61zM836 143q166 0 307 82t223 223.5t82 307.5t-82 307.5t-223 224
t-307 82.5t-307.5 -82.5t-223.5 -224t-82 -307.5q0 -124 48.5 -238t130.5 -196t196 -130.5t238 -48.5zM770 741q91 0 113 10q32 14 39 71q4 33 4 104q0 38 -1 65.5t-6 49t-8.5 35t-15 23.5t-19 14.5t-28 7t-33.5 3t-43 0.5h-2h-35v-383h35zM1169 512q16 -57 49 -88t60 -33
v-18h-217q-58 0 -83.5 49.5t-45.5 202.5q-3 27 -19.5 47.5t-37.5 29.5t-41 14.5t-34 5.5l-14 1h-51v-217q0 -79 8 -97t43 -18v-18h-327v18q26 0 36.5 6t15.5 29.5t5 79.5v530q0 54 -11.5 76.5t-45.5 22.5v8h311q92 0 158 -7.5t128.5 -28.5t95 -64.5t32.5 -108.5
q0 -58 -24.5 -99.5t-65.5 -62t-81.5 -29t-84.5 -8.5q51 0 83.5 -7.5t63 -30t52.5 -67.5t42 -118z" />
    <glyph glyph-name="macron" unicode="&#xaf;" horiz-adv-x="737" 
d="M-33 1374h805v-205h-805v205z" />
    <glyph glyph-name="degree" unicode="&#xb0;" horiz-adv-x="780" 
d="M383 1509q111 0 188.5 -77t77.5 -189q0 -110 -77.5 -186t-188.5 -76t-188.5 76t-77.5 186q0 112 77.5 189t188.5 77zM512 1241q0 53 -37 90t-90 37t-90 -37t-37 -90q0 -52 37 -88.5t90 -36.5t90 36.5t37 88.5z" />
    <glyph glyph-name="plusminus" unicode="&#xb1;" horiz-adv-x="1245" 
d="M717 825h430v-207h-430v-321h-205v321h-428v207h428v271h205v-271zM84 0v205h1063v-205h-1063z" />
    <glyph glyph-name="twosuperior" unicode="&#xb2;" horiz-adv-x="573" 
d="M465 975h18l-55 -199h-371l187 250q103 151 54 231q-30 48 -94 48q-60 0 -90 -41q-22 -29 -14 -70l-16 -8q-24 42 -19 87.5t28 83t69.5 61.5t105.5 24q70 0 124 -51t54 -115q0 -49 -30.5 -102.5t-67 -89t-80.5 -76t-57 -56.5l-23 -30h193q55 0 84 53z" />
    <glyph glyph-name="threesuperior" unicode="&#xb3;" horiz-adv-x="591" 
d="M510 977q0 -207 -274 -207q-115 0 -162 80q-22 43 6 82q19 28 52 33.5t61 -13.5q27 -21 32.5 -52t-14.5 -58q-17 -28 -51 -35q-8 0 -2 -8q16 -21 78 -21q52 0 74.5 50.5t8.5 129.5q-4 23 -8 39t-14.5 38.5t-24.5 36t-39.5 24t-58.5 10.5v8q57 9 84.5 48.5t20.5 81.5
t-37 63q-20 14 -50 15.5t-54.5 -12t-28.5 -38.5l-9 -2q-19 60 27.5 116t142.5 56q51 0 92.5 -23.5t60.5 -60.5t21 -78.5t-24.5 -81.5t-77.5 -65q73 -3 120.5 -50t47.5 -106z" />
    <glyph glyph-name="acute" unicode="&#xb4;" horiz-adv-x="1040" 
d="M178 1143l459 334l332 -103l-623 -231h-168z" />
    <glyph glyph-name="mu" unicode="&#xb5;" horiz-adv-x="1265" 
d="M1118 182q0 -74 21 -98.5t86 -30.5v-18l-396 -51q-24 -4 -38.5 5.5t-16.5 21.5l-2 12v182q-12 -61 -46.5 -107.5t-77 -70t-79.5 -34.5t-65 -11v-322q0 -75 20.5 -100t85.5 -31v-16l-413 -54q-26 -4 -41 5.5t-17 21.5l-2 12v1245q0 95 -5 114q-9 32 -50 43q-16 4 -41 7v17
l463 41v-662q0 -92 32 -131t119 -39q43 0 74.5 36.5t42.5 96.5v477q0 95 -5 114q-9 32 -50 43q-16 4 -41 7v17l442 41v-783z" />
    <glyph glyph-name="paragraph" unicode="&#xb6;" horiz-adv-x="1630" 
d="M1466 1421q-73 0 -120.5 -89t-47.5 -202v-1351q0 -126 41.5 -214.5t112.5 -88.5v-19h-399v1985h413v-21zM621 1442h245v-1985h-522v19q34 0 66.5 5.5t72 25t68 50.5t48 88.5t19.5 133.5v741q-93 0 -164.5 9.5t-145.5 38t-122.5 77.5t-79 133t-30.5 199q0 461 542 465h3z
" />
    <glyph glyph-name="periodcentered" unicode="&#xb7;" horiz-adv-x="593" 
d="M434 612q0 -56 -40 -95.5t-95 -39.5t-95 39.5t-40 95.5t40 96t95 40t95 -40t40 -96z" />
    <glyph glyph-name="cedilla" unicode="&#xb8;" horiz-adv-x="569" 
d="M262 -8h19l-45 -121q137 30 211.5 -25.5t64.5 -150.5q-19 -160 -231 -160q-91 0 -142 45q-14 11 -21.5 32t-4.5 42q8 29 33.5 44.5t56.5 8.5q30 -6 46.5 -31t10.5 -55q-12 -37 -37 -45q-12 -6 4 -14q15 -8 43 -8q38 0 59 28t21 64q0 13 -3.5 28.5t-14 37.5t-30 35.5
t-51 23t-77.5 -1.5z" />
    <glyph glyph-name="onesuperior" unicode="&#xb9;" horiz-adv-x="475" 
d="M332 870q0 -40 6 -56.5t29 -16.5v-19h-244v19q27 0 35 17t8 56v396q0 32 -20.5 34t-41.5 -12l-20 -14l-14 16l176 152h86v-572z" />
    <glyph glyph-name="ordmasculine" unicode="&#xba;" horiz-adv-x="761" 
d="M375 1448q77 0 138 -30.5t96.5 -81t54 -111.5t18.5 -127q0 -52 -11 -99.5t-35.5 -90.5t-59.5 -75t-86.5 -50.5t-114.5 -18.5q-101 0 -172 49.5t-102 123t-31 161.5q0 66 18.5 127t54.5 111.5t96 81t136 30.5zM375 782q46 0 55.5 60t9.5 256q0 201 -9.5 266.5t-55.5 65.5
q-44 0 -55 -68.5t-11 -263.5q0 -190 11 -253t55 -63z" />
    <glyph glyph-name="guillemotright" unicode="&#xbb;" horiz-adv-x="1472" 
d="M700 934v100l586 -489l-586 -477v100l242 377zM170 934v100l586 -489l-586 -477v100l240 377z" />
    <glyph glyph-name="onequarter" unicode="&#xbc;" horiz-adv-x="1392" 
d="M1180 1460h204l-1144 -1384h-203zM393 872q0 -31 2 -46.5t10.5 -26.5t26.5 -11v-20h-278v20q31 0 40 20t9 64v451q0 23 -9.5 32.5t-23 6.5t-27 -9t-23.5 -13l-9 -7l-17 19l201 172h98v-652zM1192 207h-88v-53q0 -99 6.5 -117.5t40.5 -18.5v-18h-285v18q15 0 21.5 2t13 7
t8.5 21t3 37t1 62v60h-245v18l387 529l49 -11v-462h88v-74zM913 281v251l-139 -192q-40 -52 -21 -58l15 -1h145z" />
    <glyph glyph-name="onehalf" unicode="&#xbd;" horiz-adv-x="1376" 
d="M1272 238h8l-66 -238h-407l211 285q107 158 55 243q-32 52 -105 54q-68 1 -107 -41q-25 -28 -23 -66l-17 -10q-20 38 -21 81t17.5 81t48.5 69t74 48t92 14q80 0 141.5 -52.5t61.5 -123.5q0 -57 -31.5 -120t-65.5 -103.5t-84 -92t-61 -65.5l-18 -25h190q30 0 59.5 16
t47.5 46zM1180 1460h204l-1144 -1384h-203zM393 872q0 -31 2 -46.5t10.5 -26.5t26.5 -11v-20h-278v20q31 0 40 20t9 64v451q0 23 -9.5 32.5t-23 6.5t-27 -9t-23.5 -13l-9 -7l-17 19l201 172h98v-652z" />
    <glyph glyph-name="threequarters" unicode="&#xbe;" horiz-adv-x="1343" 
d="M1180 1460h204l-1144 -1384h-203zM1192 207h-88v-53q0 -99 6.5 -117.5t40.5 -18.5v-18h-285v18q15 0 21.5 2t13 7t8.5 21t3 37t1 62v60h-245v18l387 529l49 -11v-462h88v-74zM913 281v251l-139 -192q-40 -52 -21 -58l15 -1h145zM555 999q0 -60 -20 -104t-50 -68.5
t-74 -39t-83 -19t-86 -4.5q-129 0 -185 90q-22 49 9 94q22 32 59.5 38.5t69.5 -15.5q30 -22 36.5 -58.5t-16.5 -66.5q-19 -24 -49 -33q-11 -3 -4 -13q14 -18 80 -18q60 0 85.5 53.5t10.5 143.5q-5 32 -12.5 55.5t-24.5 51t-50 42.5t-79 15v18q66 12 97 55.5t23.5 89.5
t-42.5 70q-35 27 -86.5 16t-57.5 -55l-18 -4q-21 69 32 133t163 64q59 0 106 -27t68.5 -69t24 -89t-28 -93t-88.5 -74q84 -4 137 -58t53 -121z" />
    <glyph glyph-name="questiondown" unicode="&#xbf;" horiz-adv-x="1306" 
d="M207 -195q-3 85 18.5 159t56.5 123.5t81.5 88.5t87.5 59.5t81 30.5q218 57 205 213l19 2q1 -7 12 -49.5t14 -71t-12.5 -76.5t-56.5 -91q-65 -69 -86.5 -164t-8.5 -224q5 -68 33.5 -129t72.5 -101t101 -54.5t119 10.5q50 20 63 67q9 33 -8 39q-4 2 -8 1q-60 -9 -117 38
q-53 47 -58 117t38 123q44 52 115 55t125 -43q63 -53 59 -161q2 -62 -53 -134.5t-146 -113.5q-121 -54 -253.5 -59.5t-239 32t-178 120t-76.5 193.5zM549 786q0 75 53 127t127 52t127 -52t53 -127t-53 -127.5t-127 -52.5t-127 52.5t-53 127.5z" />
    <glyph glyph-name="Agrave" unicode="&#xc0;" horiz-adv-x="1560" 
d="M698 1839l459 -334h-168l-622 232zM782 416l-204 461l-183 -461h387zM371 397l413 1045h11l553 -1256q21 -47 44.5 -80t40 -49.5t39 -26t31.5 -11t29 -3.5v-16h-717v16q46 0 67 24.5t18.5 60t-12 71t-20.5 60.5l-12 24l-65 141h-402q-13 -29 -15 -75.5t12 -99.5t41.5 -99
t80.5 -76.5t123 -30.5v-16h-590v16q25 2 43.5 6.5t53 26t67 59.5t77 112t89.5 177z" />
    <glyph glyph-name="Aacute" unicode="&#xc1;" horiz-adv-x="1560" 
d="M428 1505l459 334l332 -102l-623 -232h-168zM782 416l-204 461l-183 -461h387zM371 397l413 1045h11l553 -1256q21 -47 44.5 -80t40 -49.5t39 -26t31.5 -11t29 -3.5v-16h-717v16q46 0 67 24.5t18.5 60t-12 71t-20.5 60.5l-12 24l-65 141h-402q-13 -29 -15 -75.5t12 -99.5
t41.5 -99t80.5 -76.5t123 -30.5v-16h-590v16q25 2 43.5 6.5t53 26t67 59.5t77 112t89.5 177z" />
    <glyph glyph-name="Acircumflex" unicode="&#xc2;" horiz-adv-x="1560" 
d="M537 1505h-84l338 396l337 -396h-84l-253 168zM782 416l-204 461l-183 -461h387zM371 397l413 1045h11l553 -1256q21 -47 44.5 -80t40 -49.5t39 -26t31.5 -11t29 -3.5v-16h-717v16q46 0 67 24.5t18.5 60t-12 71t-20.5 60.5l-12 24l-65 141h-402q-13 -29 -15 -75.5
t12 -99.5t41.5 -99t80.5 -76.5t123 -30.5v-16h-590v16q25 2 43.5 6.5t53 26t67 59.5t77 112t89.5 177z" />
    <glyph glyph-name="Atilde" unicode="&#xc3;" horiz-adv-x="1560" 
d="M893 1583l-244 96q-44 17 -114 29t-150.5 0t-105.5 -63l-9 2q35 81 78 138.5t84.5 86t83 43.5t76.5 14t62.5 -5t43.5 -10l15 -7l243 -95q42 -19 114.5 -30.5t152.5 1.5t106 64l8 -2q-36 -77 -79.5 -133t-85 -84t-83 -44t-76.5 -16.5t-62 2t-43 8.5zM782 416l-204 461
l-183 -461h387zM371 397l413 1045h11l553 -1256q21 -47 44.5 -80t40 -49.5t39 -26t31.5 -11t29 -3.5v-16h-717v16q46 0 67 24.5t18.5 60t-12 71t-20.5 60.5l-12 24l-65 141h-402q-13 -29 -15 -75.5t12 -99.5t41.5 -99t80.5 -76.5t123 -30.5v-16h-590v16q25 2 43.5 6.5t53 26
t67 59.5t77 112t89.5 177z" />
    <glyph glyph-name="Adieresis" unicode="&#xc4;" horiz-adv-x="1560" 
d="M733 1706q0 -60 -42 -102.5t-99 -42.5q-60 0 -103 42.5t-43 102.5q0 58 43 99.5t103 41.5q57 0 99 -41.5t42 -99.5zM1118 1706q0 -60 -42 -102.5t-99 -42.5q-60 0 -103 42.5t-43 102.5q0 58 43 99.5t103 41.5q57 0 99 -41.5t42 -99.5zM782 416l-204 461l-183 -461h387z
M371 397l413 1045h11l553 -1256q21 -47 44.5 -80t40 -49.5t39 -26t31.5 -11t29 -3.5v-16h-717v16q46 0 67 24.5t18.5 60t-12 71t-20.5 60.5l-12 24l-65 141h-402q-13 -29 -15 -75.5t12 -99.5t41.5 -99t80.5 -76.5t123 -30.5v-16h-590v16q25 2 43.5 6.5t53 26t67 59.5t77 112
t89.5 177z" />
    <glyph glyph-name="Aring" unicode="&#xc5;" horiz-adv-x="1560" 
d="M791 1882q-34 0 -57 -23t-23 -57t23 -58t57 -24q33 0 56 24t23 58t-22.5 57t-56.5 23zM791 2007q88 0 149 -59t61 -146q0 -86 -61.5 -147.5t-148.5 -61.5q-86 0 -148.5 61.5t-62.5 147.5q0 87 62 146t149 59zM782 416l-204 461l-183 -461h387zM371 397l413 1045h11
l553 -1256q21 -47 44.5 -80t40 -49.5t39 -26t31.5 -11t29 -3.5v-16h-717v16q46 0 67 24.5t18.5 60t-12 71t-20.5 60.5l-12 24l-65 141h-402q-13 -29 -15 -75.5t12 -99.5t41.5 -99t80.5 -76.5t123 -30.5v-16h-590v16q25 2 43.5 6.5t53 26t67 59.5t77 112t89.5 177z" />
    <glyph glyph-name="AE" unicode="&#xc6;" horiz-adv-x="2162" 
d="M461 416h518v743q0 76 -10 125zM1997 401h18v-401h-1155v18q41 0 68.5 37.5t39 95t11.5 130.5v116h-528q-18 -29 -29.5 -75.5t-8.5 -99.5t21 -99t65 -76.5t117 -30.5v-16h-591v16q25 2 44.5 6.5t58.5 26t78 59t97.5 111.5t122.5 176l537 918q-27 112 -103 112v17h1129
v-420h-19q0 82 -31 148.5t-80 107t-109 70.5t-119.5 43.5t-108.5 21.5t-80 9l-31 1h-33v-684h125h13.5t31.5 4.5t45 12.5t47.5 25.5t47.5 42t36 65t21 90.5h18v-502h-18q-5 51 -21 91.5t-36 65.5t-47 43t-48 26t-45 12.5t-31 5t-14 0.5h-125v-703h33q1 2 20 0t54 2t78 7.5
t92 17.5t97.5 30.5t92.5 47t78 67.5t54 91.5t20 119.5z" />
    <glyph glyph-name="Ccedilla" unicode="&#xc7;" horiz-adv-x="1501" 
d="M1368 492l21 -414q-51 -34 -194 -65t-329 -31l-37 -101q137 30 212 -25.5t65 -150.5q-19 -160 -232 -160q-90 0 -141 45q-14 11 -21.5 32t-4.5 42q8 29 33.5 44.5t56.5 8.5q30 -6 46.5 -31t10.5 -55q-12 -37 -37 -45q-12 -6 4 -14q15 -8 43 -8q38 0 59 28t21 64
q0 13 -3.5 28.5t-14 37.5t-30 35.5t-51 23t-77.5 -1.5l80 203q-155 9 -293.5 64.5t-244 148t-167 229t-61.5 297.5q0 169 67.5 310t182 234t263.5 144t314 51q180 0 308 -29.5t172 -64.5l-21 -414h-16q-13 88 -36.5 160.5t-52 122.5t-64.5 88t-71.5 60t-76 36t-74 18.5
t-68.5 4.5q-118 0 -186 -63t-102.5 -221t-34.5 -437q0 -210 19 -350t60.5 -222t99.5 -115.5t144 -33.5q46 0 93 11.5t102.5 45t101.5 85.5t86 142.5t60 207.5h16z" />
    <glyph glyph-name="Egrave" unicode="&#xc8;" horiz-adv-x="1398" 
d="M567 1839l459 -334h-168l-622 232zM1233 401h18v-401h-1196v18q41 0 68.5 37.5t39 95t11.5 130.5v878q0 51 -6 96t-19.5 84.5t-37.5 62.5t-56 23v17h1170v-420h-19q0 81 -31 147.5t-80 107t-109 70.5t-119.5 44t-108.5 22t-80 9l-31 1h-74v-686h166h13.5t31 4.5t45 12.5
t48 26t47.5 42.5t36 65t21 91.5h18v-502h-18q-6 69 -34.5 119t-59 72.5t-70 35.5t-53.5 14t-25 1h-166v-701h74q1 2 20 -0.5t54 2t78 7.5t92 17t97.5 30.5t92.5 47t78 67.5t54 92t20 120z" />
    <glyph glyph-name="Eacute" unicode="&#xc9;" horiz-adv-x="1398" 
d="M260 1505l459 334l332 -102l-623 -232h-168zM1233 401h18v-401h-1196v18q41 0 68.5 37.5t39 95t11.5 130.5v878q0 51 -6 96t-19.5 84.5t-37.5 62.5t-56 23v17h1170v-420h-19q0 81 -31 147.5t-80 107t-109 70.5t-119.5 44t-108.5 22t-80 9l-31 1h-74v-686h166h13.5t31 4.5
t45 12.5t48 26t47.5 42.5t36 65t21 91.5h18v-502h-18q-6 69 -34.5 119t-59 72.5t-70 35.5t-53.5 14t-25 1h-166v-701h74q1 2 20 -0.5t54 2t78 7.5t92 17t97.5 30.5t92.5 47t78 67.5t54 92t20 120z" />
    <glyph glyph-name="Ecircumflex" unicode="&#xca;" horiz-adv-x="1398" 
d="M387 1505h-84l338 396l338 -396h-84l-254 168zM1233 401h18v-401h-1196v18q41 0 68.5 37.5t39 95t11.5 130.5v878q0 51 -6 96t-19.5 84.5t-37.5 62.5t-56 23v17h1170v-420h-19q0 81 -31 147.5t-80 107t-109 70.5t-119.5 44t-108.5 22t-80 9l-31 1h-74v-686h166h13.5
t31 4.5t45 12.5t48 26t47.5 42.5t36 65t21 91.5h18v-502h-18q-6 69 -34.5 119t-59 72.5t-70 35.5t-53.5 14t-25 1h-166v-701h74q1 2 20 -0.5t54 2t78 7.5t92 17t97.5 30.5t92.5 47t78 67.5t54 92t20 120z" />
    <glyph glyph-name="Edieresis" unicode="&#xcb;" horiz-adv-x="1398" 
d="M616 1706q0 -60 -42 -102.5t-99 -42.5q-60 0 -102.5 42.5t-42.5 102.5q0 58 42.5 99.5t102.5 41.5q57 0 99 -41.5t42 -99.5zM1001 1706q0 -60 -42 -102.5t-99 -42.5q-60 0 -102.5 42.5t-42.5 102.5q0 58 42.5 99.5t102.5 41.5q57 0 99 -41.5t42 -99.5zM1233 401h18v-401
h-1196v18q41 0 68.5 37.5t39 95t11.5 130.5v878q0 51 -6 96t-19.5 84.5t-37.5 62.5t-56 23v17h1170v-420h-19q0 81 -31 147.5t-80 107t-109 70.5t-119.5 44t-108.5 22t-80 9l-31 1h-74v-686h166h13.5t31 4.5t45 12.5t48 26t47.5 42.5t36 65t21 91.5h18v-502h-18
q-6 69 -34.5 119t-59 72.5t-70 35.5t-53.5 14t-25 1h-166v-701h74q1 2 20 -0.5t54 2t78 7.5t92 17t97.5 30.5t92.5 47t78 67.5t54 92t20 120z" />
    <glyph glyph-name="Igrave" unicode="&#xcc;" horiz-adv-x="829" 
d="M80 1442h676v-17q-32 0 -47.5 -1.5t-35.5 -10.5t-28.5 -28t-15 -54t-6.5 -88v-1012q0 -72 8 -115.5t27 -64.5t40 -27t58 -6v-18h-676v18q37 0 58 6t40 27t27 64.5t8 115.5v1012q0 45 -3 76t-12.5 51t-17.5 31.5t-27 16.5t-32.5 6t-40.5 1v17zM326 1839l458 -334h-168
l-622 232z" />
    <glyph glyph-name="Iacute" unicode="&#xcd;" horiz-adv-x="829" 
d="M80 1442h676v-17q-32 0 -47.5 -1.5t-35.5 -10.5t-28.5 -28t-15 -54t-6.5 -88v-1012q0 -72 8 -115.5t27 -64.5t40 -27t58 -6v-18h-676v18q37 0 58 6t40 27t27 64.5t8 115.5v1012q0 45 -3 76t-12.5 51t-17.5 31.5t-27 16.5t-32.5 6t-40.5 1v17zM59 1505l459 334l332 -102
l-623 -232h-168z" />
    <glyph glyph-name="Icircumflex" unicode="&#xce;" horiz-adv-x="829" 
d="M80 1442h676v-17q-32 0 -47.5 -1.5t-35.5 -10.5t-28.5 -28t-15 -54t-6.5 -88v-1012q0 -72 8 -115.5t27 -64.5t40 -27t58 -6v-18h-676v18q37 0 58 6t40 27t27 64.5t8 115.5v1012q0 45 -3 76t-12.5 51t-17.5 31.5t-27 16.5t-32.5 6t-40.5 1v17zM164 1505h-84l338 396
l338 -396h-84l-254 168z" />
    <glyph glyph-name="Idieresis" unicode="&#xcf;" horiz-adv-x="829" 
d="M80 1442h676v-17q-32 0 -47.5 -1.5t-35.5 -10.5t-28.5 -28t-15 -54t-6.5 -88v-1012q0 -72 8 -115.5t27 -64.5t40 -27t58 -6v-18h-676v18q37 0 58 6t40 27t27 64.5t8 115.5v1012q0 45 -3 76t-12.5 51t-17.5 31.5t-27 16.5t-32.5 6t-40.5 1v17zM367 1706
q0 -60 -42.5 -102.5t-99.5 -42.5q-60 0 -102.5 42.5t-42.5 102.5q0 58 42.5 99.5t102.5 41.5q57 0 99.5 -41.5t42.5 -99.5zM752 1706q0 -60 -42.5 -102.5t-99.5 -42.5q-60 0 -102.5 42.5t-42.5 102.5q0 58 42.5 99.5t102.5 41.5q57 0 99.5 -41.5t42.5 -99.5z" />
    <glyph glyph-name="Eth" unicode="&#xd0;" horiz-adv-x="1685" 
d="M696 1442q93 0 178 -8.5t176 -31t167.5 -57.5t146 -92t117.5 -131t76 -178t28 -229t-28.5 -228t-76 -175.5t-117 -128.5t-145.5 -90t-167.5 -55.5t-176 -29.5t-178.5 -8h-606v18q42 0 70 38t39.5 95t11.5 130v434h-168v18h168v426q0 69 -11 125.5t-39 97.5t-71 41v19h606
zM696 18q42 0 69.5 1.5t62 7t56.5 16t48 28.5t42.5 45t34 65t27.5 89t19 116t12.5 147t3.5 182q0 140 -8 245.5t-21.5 181t-39 127t-52.5 82t-70 46.5t-83 21t-101 5h-90v-690h268v-18h-268v-697h90z" />
    <glyph glyph-name="Ntilde" unicode="&#xd1;" horiz-adv-x="1720" 
d="M963 1583l-244 96q-44 17 -114.5 29t-151 0t-105.5 -63l-8 2q35 81 78 138.5t84 86t83 43.5t77 14t62 -5t42 -10l16 -7l244 -95q42 -19 114.5 -30.5t152.5 1.5t106 64l8 -2q-36 -77 -79.5 -133t-85 -84t-83 -44t-76.5 -16.5t-62 2t-43 8.5zM1384 0h-225l-772 1100v-639
q0 -45 1.5 -77t8 -81.5t18 -85t34.5 -76t55 -65.5t81 -41.5t111 -16.5v-18h-651v18q81 0 142 31.5t94.5 77t54.5 109t27 116t6 109.5v663l-97 138q-33 44 -66.5 75.5t-54.5 47t-51 25.5t-39.5 11t-36.5 3q-5 1 -8 1v17h654l696 -1006v547q0 61 -8.5 119.5t-29.5 118
t-53.5 104t-84.5 72.5t-117 28v17h621v-17q-73 0 -129.5 -28t-89.5 -72t-54.5 -104.5t-29 -118t-7.5 -119.5v-983z" />
    <glyph glyph-name="Ograve" unicode="&#xd2;" horiz-adv-x="1662" 
d="M831 0q46 0 80 6t61 27t44.5 42t30 70.5t19 92t10.5 126.5t4.5 153.5t0.5 193.5t-1 194t-4.5 155.5t-10 129.5t-19 95.5t-30 74.5t-44 45.5t-61 29.5t-80.5 7q-62 0 -103.5 -13t-70.5 -54.5t-44.5 -85t-23.5 -142t-9.5 -185.5t-1.5 -251q0 -98 0.5 -157.5t2.5 -132
t5.5 -113.5t10.5 -90t16 -74.5t23.5 -54.5t32.5 -42.5t42 -26t53.5 -16.5t66.5 -4zM831 1460q165 0 306.5 -60t237.5 -162t150 -238.5t54 -288.5t-54 -286t-150.5 -232t-237 -154.5t-306.5 -56.5t-306.5 56.5t-236.5 154.5t-150 232t-54 286q0 203 91.5 373t264 273
t391.5 103zM752 1839l458 -334h-168l-622 232z" />
    <glyph glyph-name="Oacute" unicode="&#xd3;" horiz-adv-x="1662" 
d="M831 0q46 0 80 6t61 27t44.5 42t30 70.5t19 92t10.5 126.5t4.5 153.5t0.5 193.5t-1 194t-4.5 155.5t-10 129.5t-19 95.5t-30 74.5t-44 45.5t-61 29.5t-80.5 7q-62 0 -103.5 -13t-70.5 -54.5t-44.5 -85t-23.5 -142t-9.5 -185.5t-1.5 -251q0 -98 0.5 -157.5t2.5 -132
t5.5 -113.5t10.5 -90t16 -74.5t23.5 -54.5t32.5 -42.5t42 -26t53.5 -16.5t66.5 -4zM831 1460q165 0 306.5 -60t237.5 -162t150 -238.5t54 -288.5t-54 -285.5t-150.5 -231t-237 -154t-306.5 -56.5t-306.5 56.5t-236.5 154t-150 231t-54 285.5q0 203 91.5 373t264 273
t391.5 103zM424 1505l459 334l331 -102l-622 -232h-168z" />
    <glyph glyph-name="Ocircumflex" unicode="&#xd4;" horiz-adv-x="1662" 
d="M831 0q46 0 80 6t61 27t44.5 42t30 70.5t19 92t10.5 126.5t4.5 153.5t0.5 193.5t-1 194t-4.5 155.5t-10 129.5t-19 95.5t-30 74.5t-44 45.5t-61 29.5t-80.5 7q-62 0 -103.5 -13t-70.5 -54.5t-44.5 -85t-23.5 -142t-9.5 -185.5t-1.5 -251q0 -98 0.5 -157.5t2.5 -132
t5.5 -113.5t10.5 -90t16 -74.5t23.5 -54.5t32.5 -42.5t42 -26t53.5 -16.5t66.5 -4zM831 1460q165 0 306.5 -60t237.5 -162t150 -238.5t54 -288.5t-54 -285.5t-150.5 -231t-237 -154t-306.5 -56.5t-306.5 56.5t-236.5 154t-150 231t-54 285.5q0 203 91.5 373t264 273
t391.5 103zM578 1505h-84l337 396l338 -396h-84l-254 168z" />
    <glyph glyph-name="Otilde" unicode="&#xd5;" horiz-adv-x="1662" 
d="M831 0q46 0 80 6t61 27t44.5 42t30 70.5t19 92t10.5 126.5t4.5 153.5t0.5 193.5t-1 194t-4.5 155.5t-10 129.5t-19 95.5t-30 74.5t-44 45.5t-61 29.5t-80.5 7q-62 0 -103.5 -13t-70.5 -54.5t-44.5 -85t-23.5 -142t-9.5 -185.5t-1.5 -251q0 -98 0.5 -157.5t2.5 -132
t5.5 -113.5t10.5 -90t16 -74.5t23.5 -54.5t32.5 -42.5t42 -26t53.5 -16.5t66.5 -4zM831 1460q165 0 306.5 -60t237.5 -162t150 -238.5t54 -288.5t-54 -286t-150.5 -232t-237 -154.5t-306.5 -56.5t-306.5 56.5t-236.5 154.5t-150 232t-54 286q0 203 91.5 373t264 273
t391.5 103zM934 1583l-244 96q-44 17 -114.5 29t-151 0t-105.5 -63l-8 2q35 81 78 138.5t84.5 86t83 43.5t76.5 14t62.5 -5t42.5 -10l16 -7l243 -95q42 -19 114.5 -30.5t152.5 1.5t106 64l8 -2q-36 -77 -79.5 -133t-85 -84t-83 -44t-76.5 -16.5t-62 2t-42 8.5z" />
    <glyph glyph-name="Odieresis" unicode="&#xd6;" horiz-adv-x="1662" 
d="M831 0q46 0 80 6t61 27t44.5 42t30 70.5t19 92t10.5 126.5t4.5 153.5t0.5 193.5t-1 194t-4.5 155.5t-10 129.5t-19 95.5t-30 74.5t-44 45.5t-61 29.5t-80.5 7q-62 0 -103.5 -13t-70.5 -54.5t-44.5 -85t-23.5 -142t-9.5 -185.5t-1.5 -251q0 -98 0.5 -157.5t2.5 -132
t5.5 -113.5t10.5 -90t16 -74.5t23.5 -54.5t32.5 -42.5t42 -26t53.5 -16.5t66.5 -4zM831 1460q165 0 306.5 -60t237.5 -162t150 -238.5t54 -288.5t-54 -285.5t-150.5 -231t-237 -154t-306.5 -56.5t-306.5 56.5t-236.5 154t-150 231t-54 285.5q0 203 91.5 373t264 273
t391.5 103zM782 1706q0 -60 -42 -102.5t-99 -42.5q-60 0 -102.5 42.5t-42.5 102.5q0 58 42.5 99.5t102.5 41.5q57 0 99 -41.5t42 -99.5zM1167 1706q0 -60 -42 -102.5t-99 -42.5q-60 0 -102.5 42.5t-42.5 102.5q0 58 42.5 99.5t102.5 41.5q57 0 99 -41.5t42 -99.5z" />
    <glyph glyph-name="multiply" unicode="&#xd7;" horiz-adv-x="1376" 
d="M1260 885l-365 -365l365 -362l-203 -207l-367 364l-364 -364l-205 205l364 364l-364 365l205 207l364 -365l367 365z" />
    <glyph glyph-name="Oslash" unicode="&#xd8;" horiz-adv-x="1665" 
d="M1204 1370q175 -97 276 -273.5t101 -385.5q0 -152 -54 -286t-150 -232t-236.5 -154.5t-306.5 -56.5q-197 0 -357 77l-71 -131h-23l78 140q-175 91 -275 262t-100 381q0 152 54 288.5t150 238.5t237.5 162t306.5 60q196 0 354 -82l82 148h20zM580 711q0 -312 8 -412
l481 872q-15 150 -67 210.5t-168 60.5q-46 0 -81 -7t-62 -29.5t-45 -46t-30.5 -74t-19.5 -95.5t-10.5 -129.5t-4.5 -156t-1 -193.5zM834 0q46 0 80 6t61 27t44.5 42t30 71t19 91.5t10 126.5t4 153.5t0.5 193.5q0 291 -10 424l-481 -871q17 -150 69.5 -207t172.5 -57z" />
    <glyph glyph-name="Ugrave" unicode="&#xd9;" horiz-adv-x="1507" 
d="M1085 137q-71 -73 -189.5 -114t-240.5 -41q-85 0 -164 17.5t-149.5 56t-122.5 93.5t-82.5 136t-30.5 178v780v31q0 39 -0.5 56t-4 40t-12 31.5t-24.5 15t-40 6.5v19h585v-19q-60 0 -72 -27.5t-12 -134.5v-18v-794q0 -176 85 -260.5t237 -84.5q121 0 221 74q44 32 71 99.5
t32 119.5l6 52v532q0 55 -7 111t-24.5 117t-44.5 107.5t-71.5 76.5t-100.5 30v19h536l2 -19q-66 0 -116 -30.5t-79 -76t-47 -108t-24 -116.5t-6 -111v-532q0 -193 -111 -312zM680 1839l459 -334h-168l-623 232z" />
    <glyph glyph-name="Uacute" unicode="&#xda;" horiz-adv-x="1507" 
d="M1085 137q-71 -73 -189.5 -114t-240.5 -41q-85 0 -164 17.5t-149.5 56t-122.5 93.5t-82.5 136t-30.5 178v780v31q0 39 -0.5 56t-4 40t-12 31.5t-24.5 15t-40 6.5v19h585v-19q-60 0 -72 -27.5t-12 -134.5v-18v-794q0 -176 85 -260.5t237 -84.5q121 0 221 74q44 32 71 99.5
t32 119.5l6 52v532q0 55 -7 111t-24.5 117t-44.5 107.5t-71.5 76.5t-100.5 30v19h536l2 -19q-66 0 -116 -30.5t-79 -76t-47 -108t-24 -116.5t-6 -111v-532q0 -193 -111 -312zM438 1505l459 334l332 -102l-623 -232h-168z" />
    <glyph glyph-name="Ucircumflex" unicode="&#xdb;" horiz-adv-x="1507" 
d="M1085 137q-71 -73 -189.5 -114t-240.5 -41q-85 0 -164 17.5t-149.5 56t-122.5 93.5t-82.5 136t-30.5 178v780v31q0 39 -0.5 56t-4 40t-12 31.5t-24.5 15t-40 6.5v19h585v-19q-60 0 -72 -27.5t-12 -134.5v-18v-794q0 -176 85 -260.5t237 -84.5q121 0 221 74q44 32 71 99.5
t32 119.5l6 52v532q0 55 -7 111t-24.5 117t-44.5 107.5t-71.5 76.5t-100.5 30v19h536l2 -19q-66 0 -116 -30.5t-79 -76t-47 -108t-24 -116.5t-6 -111v-532q0 -193 -111 -312zM479 1505h-84l338 396l338 -396h-84l-254 168z" />
    <glyph glyph-name="Udieresis" unicode="&#xdc;" horiz-adv-x="1507" 
d="M686 1706q0 -60 -42 -102.5t-99 -42.5q-60 0 -103 42.5t-43 102.5q0 58 43 99.5t103 41.5q57 0 99 -41.5t42 -99.5zM1071 1706q0 -60 -42 -102.5t-99 -42.5q-60 0 -103 42.5t-43 102.5q0 58 43 99.5t103 41.5q57 0 99 -41.5t42 -99.5zM1085 137q-71 -73 -189.5 -114
t-240.5 -41q-85 0 -164 17.5t-149.5 56t-122.5 93.5t-82.5 136t-30.5 178v780v31q0 39 -0.5 56t-4 40t-12 31.5t-24.5 15t-40 6.5v19h585v-19q-60 0 -72 -27.5t-12 -134.5v-18v-794q0 -176 85 -260.5t237 -84.5q121 0 221 74q44 32 71 99.5t32 119.5l6 52v532q0 55 -7 111
t-24.5 117t-44.5 107.5t-71.5 76.5t-100.5 30v19h536l2 -19q-66 0 -116 -30.5t-79 -76t-47 -108t-24 -116.5t-6 -111v-532q0 -193 -111 -312z" />
    <glyph glyph-name="Yacute" unicode="&#xdd;" horiz-adv-x="1591" 
d="M969 686q102 203 159 328q15 32 26.5 80.5t11.5 106.5t-15.5 107.5t-61 83t-116.5 33.5v17h594v-17q-99 0 -208 -104t-214 -315l-166 -336v-439q0 -17 -0.5 -43.5t-0.5 -40t0.5 -33t2 -29.5t5 -23.5t8.5 -19.5t13 -12.5t19 -9t25 -2.5v-18h-551v18q37 0 54 23t19.5 50
t1.5 98v42v334l-399 701q-44 77 -70.5 110.5t-41 40t-46.5 10.5v15h617v-15h-1h-1h-1q-50 0 -58 -11q-16 -20 39 -122q21 -39 57 -100zM471 1505l459 334l332 -102l-623 -232h-168z" />
    <glyph glyph-name="Thorn" unicode="&#xde;" horiz-adv-x="1495" 
d="M600 1176v-785q162 0 209 11q68 16 94 75q28 65 29 269v34q0 77 -1.5 131t-11.5 98t-15.5 71t-29 47t-37 29t-54.5 14t-65 5.5t-85 0.5h-33zM600 373v-142q0 -71 8 -114.5t27 -64.5t40.5 -27.5t57.5 -6.5v-18h-678v18q37 0 58.5 6.5t40.5 27.5t26.5 64.5t7.5 114.5v1012
q0 39 -3 67.5t-7 48t-14.5 32t-17.5 19t-25.5 9.5t-29 3.5t-36.5 0.5v19h678v-19q-25 0 -35.5 -0.5t-29 -3.5t-25.5 -9.5t-18 -19t-14.5 -32t-7 -48t-3.5 -67.5v-49q77 0 135.5 -1.5t130.5 -6.5t125.5 -13.5t112.5 -24t101.5 -36.5t82.5 -52.5t64.5 -71t39.5 -92.5t15 -116
q0 -62 -15 -114t-39.5 -91t-64.5 -70t-82.5 -52t-101.5 -36t-112.5 -23.5t-125.5 -13t-130.5 -6t-135.5 -1.5z" />
    <glyph glyph-name="germandbls" unicode="&#xdf;" horiz-adv-x="1558" 
d="M901 860q47 0 92.5 -3.5t108 -15t116 -30.5t108 -53.5t93 -81t62.5 -116t24 -154.5q0 -103 -27 -178t-74 -122.5t-123.5 -75t-163.5 -38t-206 -10.5q-132 0 -182 67q-26 28 -37 71t-2 81q17 56 67.5 83.5t106.5 8.5q54 -15 81.5 -65.5t10.5 -104.5q-16 -60 -61 -82
q-12 -5 -22.5 -14t-3.5 -18t42 -9q81 0 116.5 85.5t35.5 293.5q0 463 -348 463v18q35 0 60 8.5t46.5 30t35 59t21 95.5t7.5 139q0 91 -10.5 155.5t-23 95t-34 47.5t-33.5 19t-30 2q-46 0 -79.5 -35t-48 -85t-22.5 -100t-8 -85v-35v-1171h-539v16q50 0 83.5 54t33.5 161v768
q0 121 32 214.5t85.5 152.5t129.5 96.5t157 52.5t176 15q57 0 104.5 -2.5t105 -11.5t102.5 -24t89 -42t73.5 -63t47.5 -88.5t18 -118.5q0 -64 -20 -116t-50 -84.5t-72 -56.5t-78.5 -35.5t-77.5 -18.5t-60 -8t-35 -1z" />
    <glyph glyph-name="agrave" unicode="&#xe0;" horiz-adv-x="1161" 
d="M614 184v316q-35 -8 -62 -22t-44 -28t-29 -37.5t-18 -39.5t-8.5 -45.5t-3 -42.5t-0.5 -43v-15t4 -32.5t11.5 -41.5t24 -32.5t39.5 -14.5q49 0 86 78zM1114 141l12 -10q-22 -67 -94.5 -108t-169.5 -41q-5 0 -13 0.5t-32 4t-46.5 10t-50 20t-48 32.5t-36.5 49t-20 68
q-21 -81 -95.5 -132.5t-180.5 -51.5q-27 0 -57 4.5t-66.5 18.5t-65 36t-48 60.5t-19.5 88.5q0 44 12 79t27.5 60.5t56 49.5t70.5 39t101 35t117 31.5t146 35.5v131q0 159 -78 234.5t-184 19.5q-45 -26 25 -51q47 -16 74 -78q23 -57 0 -111t-80 -79q-56 -22 -111 1.5
t-78 78.5q-15 40 -8 81.5t33 69.5q58 62 137 105q41 22 89 32.5t76 10.5h28q197 0 307 -112.5t110 -297.5v-305q0 -6 0.5 -16t6 -35.5t15 -44.5t30 -34t47.5 -14q6 0 14.5 1t25.5 9.5t21 24.5zM524 1442l459 -334h-168l-622 231z" />
    <glyph glyph-name="aacute" unicode="&#xe1;" horiz-adv-x="1161" 
d="M614 184v316q-35 -8 -62 -22t-44 -28t-29 -37.5t-18 -39.5t-8.5 -45.5t-3 -42.5t-0.5 -43v-15t4 -32.5t11.5 -41.5t24 -32.5t39.5 -14.5q49 0 86 78zM1114 141l12 -10q-22 -67 -94.5 -108t-169.5 -41q-5 0 -13 0.5t-32 4t-46.5 10t-50 20t-48 32.5t-36.5 49t-20 68
q-21 -81 -95.5 -132.5t-180.5 -51.5q-27 0 -57 4.5t-66.5 18.5t-65 36t-48 60.5t-19.5 88.5q0 44 12 79t27.5 60.5t56 49.5t70.5 39t101 35t117 31.5t146 35.5v131q0 159 -78 234.5t-184 19.5q-45 -26 25 -51q47 -16 74 -78q23 -57 0 -111t-80 -79q-56 -22 -111 1.5
t-78 78.5q-15 40 -8 81.5t33 69.5q58 62 137 105q41 22 89 32.5t76 10.5h28q197 0 307 -112.5t110 -297.5v-305q0 -6 0.5 -16t6 -35.5t15 -44.5t30 -34t47.5 -14q6 0 14.5 1t25.5 9.5t21 24.5zM276 1108l459 334l332 -103l-623 -231h-168z" />
    <glyph glyph-name="acircumflex" unicode="&#xe2;" horiz-adv-x="1161" 
d="M614 184v316q-35 -8 -62 -22t-44 -28t-29 -37.5t-18 -39.5t-8.5 -45.5t-3 -42.5t-0.5 -43v-15t4 -32.5t11.5 -41.5t24 -32.5t39.5 -14.5q49 0 86 78zM1114 141l12 -10q-22 -67 -94.5 -108t-169.5 -41q-5 0 -13 0.5t-32 4t-46.5 10t-50 20t-48 32.5t-36.5 49t-20 68
q-21 -81 -95.5 -132.5t-180.5 -51.5q-27 0 -57 4.5t-66.5 18.5t-65 36t-48 60.5t-19.5 88.5q0 44 12 79t27.5 60.5t56 49.5t70.5 39t101 35t117 31.5t146 35.5v131q0 159 -78 234.5t-184 19.5q-45 -26 25 -51q47 -16 74 -78q23 -57 0 -111t-80 -79q-56 -22 -111 1.5
t-78 78.5q-15 40 -8 81.5t33 69.5q58 62 137 105q41 22 89 32.5t76 10.5h28q197 0 307 -112.5t110 -297.5v-305q0 -6 0.5 -16t6 -35.5t15 -44.5t30 -34t47.5 -14q6 0 14.5 1t25.5 9.5t21 24.5zM358 1049h-84l338 395l338 -395h-84l-254 168z" />
    <glyph glyph-name="atilde" unicode="&#xe3;" horiz-adv-x="1161" 
d="M692 1069l-243 96q-30 12 -80 21.5t-109.5 13t-111 -13.5t-70.5 -56l-8 3q35 81 78 138.5t84 86t83 43.5t77 14t62 -5t42 -10l16 -7l244 -95q42 -19 114.5 -30.5t152 1.5t105.5 64l9 -2q-36 -77 -79.5 -133t-85 -84t-83.5 -44t-77 -16.5t-62 2t-42 8.5zM614 184v316
q-35 -8 -62 -22t-44 -28t-29 -37.5t-18 -39.5t-8.5 -45.5t-3 -42.5t-0.5 -43v-15t4 -32.5t11.5 -41.5t24 -32.5t39.5 -14.5q49 0 86 78zM1114 141l12 -10q-22 -67 -94.5 -108t-169.5 -41q-5 0 -13 0.5t-32 4t-46.5 10t-50 20t-48 32.5t-36.5 49t-20 68q-21 -81 -95.5 -132.5
t-180.5 -51.5q-27 0 -57 4.5t-66.5 18.5t-65 36t-48 60.5t-19.5 88.5q0 44 12 79t27.5 60.5t56 49.5t70.5 39t101 35t117 31.5t146 35.5v131q0 159 -78 234.5t-184 19.5q-45 -26 25 -51q47 -16 74 -78q23 -57 0 -111t-80 -79q-56 -22 -111 1.5t-78 78.5q-15 40 -8 81.5
t33 69.5q58 62 137 105q41 22 89 32.5t76 10.5h28q197 0 307 -112.5t110 -297.5v-305q0 -6 0.5 -16t6 -35.5t15 -44.5t30 -34t47.5 -14q6 0 14.5 1t25.5 9.5t21 24.5z" />
    <glyph glyph-name="adieresis" unicode="&#xe4;" horiz-adv-x="1161" 
d="M547 1247q0 -60 -42 -102.5t-99 -42.5q-60 0 -103 42.5t-43 102.5q0 58 43 100t103 42q57 0 99 -42t42 -100zM932 1247q0 -60 -42 -102.5t-99 -42.5q-60 0 -103 42.5t-43 102.5q0 58 43 100t103 42q57 0 99 -42t42 -100zM614 184v316q-35 -8 -62 -22t-44 -28t-29 -37.5
t-18 -39.5t-8.5 -45.5t-3 -42.5t-0.5 -43v-15t4 -32.5t11.5 -41.5t24 -32.5t39.5 -14.5q49 0 86 78zM1114 141l12 -10q-22 -67 -94.5 -108t-169.5 -41q-5 0 -13 0.5t-32 4t-46.5 10t-50 20t-48 32.5t-36.5 49t-20 68q-21 -81 -95.5 -132.5t-180.5 -51.5q-27 0 -57 4.5
t-66.5 18.5t-65 36t-48 60.5t-19.5 88.5q0 44 12 79t27.5 60.5t56 49.5t70.5 39t101 35t117 31.5t146 35.5v131q0 159 -78 234.5t-184 19.5q-45 -26 25 -51q47 -16 74 -78q23 -57 0 -111t-80 -79q-56 -22 -111 1.5t-78 78.5q-15 40 -8 81.5t33 69.5q58 62 137 105
q41 22 89 32.5t76 10.5h28q197 0 307 -112.5t110 -297.5v-305q0 -6 0.5 -16t6 -35.5t15 -44.5t30 -34t47.5 -14q6 0 14.5 1t25.5 9.5t21 24.5z" />
    <glyph glyph-name="aring" unicode="&#xe5;" horiz-adv-x="1161" 
d="M606 1386q-34 0 -57 -22.5t-23 -56.5t23 -58t57 -24t57 24t23 58t-23 56.5t-57 22.5zM606 1518q88 0 149.5 -61.5t61.5 -149.5q0 -86 -61.5 -147.5t-149.5 -61.5q-86 0 -148.5 61.5t-62.5 147.5q0 87 62 149t149 62zM614 184v316q-35 -8 -62 -22t-44 -28t-29 -37.5
t-18 -39.5t-8.5 -45.5t-3 -42.5t-0.5 -43v-15t4 -32.5t11.5 -41.5t24 -32.5t39.5 -14.5q49 0 86 78zM1114 141l12 -10q-22 -67 -94.5 -108t-169.5 -41q-5 0 -13 0.5t-32 4t-46.5 10t-50 20t-48 32.5t-36.5 49t-20 68q-21 -81 -95.5 -132.5t-180.5 -51.5q-27 0 -57 4.5
t-66.5 18.5t-65 36t-48 60.5t-19.5 88.5q0 44 12 79t27.5 60.5t56 49.5t70.5 39t101 35t117 31.5t146 35.5v131q0 159 -78 234.5t-184 19.5q-45 -26 25 -51q47 -16 74 -78q23 -57 0 -111t-80 -79q-56 -22 -111 1.5t-78 78.5q-15 40 -8 81.5t33 69.5q58 62 137 105
q41 22 89 32.5t76 10.5h28q197 0 307 -112.5t110 -297.5v-305q0 -6 0.5 -16t6 -35.5t15 -44.5t30 -34t47.5 -14q6 0 14.5 1t25.5 9.5t21 24.5z" />
    <glyph glyph-name="ae" unicode="&#xe6;" horiz-adv-x="1490" 
d="M911 512h197q0 245 -1 268q-7 136 -50 160q-12 6 -27 6q-22 0 -39.5 -9.5t-29.5 -30.5t-21 -42t-14.5 -58t-8.5 -63.5t-4 -73.5t-1.5 -72.5t-0.5 -75.5v-9zM612 186q-41 74 -41 158v154q-165 -43 -165 -258q0 -6 0.5 -15t4.5 -32.5t11.5 -41.5t24 -32.5t38.5 -14.5
q36 0 70.5 23.5t56.5 58.5zM1366 289h18q-4 -60 -27 -113t-66.5 -97.5t-115.5 -70.5t-165 -26q-112 0 -217.5 46t-167.5 138q-35 -77 -122.5 -130.5t-205.5 -53.5q-9 0 -24 1t-53.5 12.5t-68 31t-53.5 62t-24 101.5q0 39 6 70t22 57t34.5 46t52.5 38.5t67 32.5t87 29
t103.5 27t124.5 28v131q0 161 -70 236t-175 20q-2 -1 -4.5 -3t-7 -8t-4.5 -12t9 -14t27 -16q49 -19 74 -78q23 -57 0 -111t-80 -79q-56 -22 -110.5 1.5t-77.5 78.5q-15 40 -8.5 81.5t32.5 69.5q59 64 137 105q41 22 84.5 33t66.5 11l23 1q149 0 275 -88q71 47 127 67.5
t133 20.5q88 0 152.5 -20t119 -70t83 -145.5t28.5 -235.5h-494q0 -154 23 -243t67.5 -128t122.5 -51q89 -12 160.5 49t81.5 168z" />
    <glyph glyph-name="ccedilla" unicode="&#xe7;" horiz-adv-x="1083" 
d="M651 965q109 0 189 -37.5t125 -87.5q26 -27 34 -71t-4 -85q-20 -60 -77.5 -86.5t-116.5 -3.5q-60 20 -86.5 77t-3.5 115q24 61 77 82q15 5 4 26q-20 39 -90 49l-40 3q-168 0 -168 -442q0 -166 68.5 -253t197.5 -87q77 0 131 28t76 80l14 -6q0 -49 -26.5 -98.5t-75 -91
t-126 -68t-169.5 -26.5h-23l-37 -103q137 30 212 -25.5t65 -150.5q-19 -160 -232 -160q-90 0 -141 45q-14 11 -22 32t-5 42q8 29 34 44.5t57 8.5q30 -6 46.5 -31t10.5 -55q-12 -37 -37 -45q-12 -6 4 -14q15 -8 43 -8q38 0 59 28t21 64q0 13 -3.5 28.5t-14 37.5t-30 35.5
t-51 23t-77.5 -1.5l80 207q-191 14 -321 152.5t-130 340.5q0 107 33.5 195t100.5 154t175 102.5t250 36.5z" />
    <glyph glyph-name="egrave" unicode="&#xe8;" horiz-adv-x="1099" 
d="M592 965q70 0 128 -11.5t114.5 -43.5t95 -83.5t62.5 -136t24 -196.5h-557q0 -113 16.5 -192.5t50 -125.5t73 -69.5t95.5 -36.5q85 -19 168.5 36t112.5 177l18 -4q-22 -123 -136 -210t-296 -87q-132 0 -243.5 64t-176.5 177t-65 248q0 101 29.5 184.5t79.5 140t117 95.5
t139.5 56.5t150.5 17.5zM459 512h260q0 209 -27 321.5t-92 112.5q-44 0 -77.5 -68.5t-48.5 -165t-15 -200.5zM485 1442l459 -334h-168l-622 231z" />
    <glyph glyph-name="eacute" unicode="&#xe9;" horiz-adv-x="1099" 
d="M592 965q70 0 128 -11.5t114.5 -43.5t95 -83.5t62.5 -136t24 -196.5h-557q0 -113 16.5 -192.5t50 -125.5t73 -69.5t95.5 -36.5q85 -19 168.5 36t112.5 177l18 -4q-22 -123 -136 -210t-296 -87q-132 0 -243.5 64t-176.5 177t-65 248q0 101 29.5 184.5t79.5 140t117 95.5
t139.5 56.5t150.5 17.5zM459 512h260q0 209 -27 321.5t-92 112.5q-44 0 -77.5 -68.5t-48.5 -165t-15 -200.5zM227 1108l459 334l332 -103l-623 -231h-168z" />
    <glyph glyph-name="ecircumflex" unicode="&#xea;" horiz-adv-x="1099" 
d="M592 965q70 0 128 -11.5t114.5 -43.5t95 -83.5t62.5 -136t24 -196.5h-557q0 -113 16.5 -192.5t50 -125.5t73 -69.5t95.5 -36.5q85 -19 168.5 36t112.5 177l18 -4q-22 -123 -136 -210t-296 -87q-132 0 -243.5 64t-176.5 177t-65 248q0 101 29.5 184.5t79.5 140t117 95.5
t139.5 56.5t150.5 17.5zM459 512h260q0 209 -27 321.5t-92 112.5q-44 0 -77.5 -68.5t-48.5 -165t-15 -200.5zM324 1049h-84l338 395l337 -395h-84l-253 168z" />
    <glyph glyph-name="edieresis" unicode="&#xeb;" horiz-adv-x="1099" 
d="M518 1247q0 -60 -42 -102.5t-99 -42.5q-60 0 -103 42.5t-43 102.5q0 58 43 100t103 42q57 0 99 -42t42 -100zM903 1247q0 -60 -42 -102.5t-99 -42.5q-60 0 -103 42.5t-43 102.5q0 58 43 100t103 42q57 0 99 -42t42 -100zM592 965q70 0 128 -11.5t114.5 -43.5t95 -83.5
t62.5 -136t24 -196.5h-557q0 -113 16.5 -192.5t50 -125.5t73 -69.5t95.5 -36.5q85 -19 168.5 36t112.5 177l18 -4q-22 -123 -136 -210t-296 -87q-132 0 -243.5 64t-176.5 177t-65 248q0 101 29.5 184.5t79.5 140t117 95.5t139.5 56.5t150.5 17.5zM459 512h260
q0 209 -27 321.5t-92 112.5q-44 0 -77.5 -68.5t-48.5 -165t-15 -200.5z" />
    <glyph glyph-name="igrave" unicode="&#xec;" horiz-adv-x="667" 
d="M508 231q0 -97 16.5 -149t67.5 -66v-16h-512v16q28 8 45 27t24.5 52t9 60t1.5 76v500q0 54 -22 81t-85 50v17l455 86v-734zM203 1442l459 -334h-168l-623 231z" />
    <glyph glyph-name="iacute" unicode="&#xed;" horiz-adv-x="667" 
d="M508 231q0 -97 16.5 -149t67.5 -66v-16h-512v16q28 8 45 27t24.5 52t9 60t1.5 76v500q0 54 -22 81t-85 50v17l455 86v-734zM-23 1108l459 334l332 -103l-623 -231h-168z" />
    <glyph glyph-name="icircumflex" unicode="&#xee;" horiz-adv-x="667" 
d="M508 231q0 -97 16.5 -149t67.5 -66v-16h-512v16q28 8 45 27t24.5 52t9 60t1.5 76v500q0 54 -22 81t-85 50v17l455 86v-734zM66 1049h-84l337 395l338 -395h-84l-254 168z" />
    <glyph glyph-name="idieresis" unicode="&#xef;" horiz-adv-x="667" 
d="M508 231q0 -97 16.5 -149t67.5 -66v-16h-512v16q28 8 45 27t24.5 52t9 60t1.5 76v500q0 54 -22 81t-85 50v17l455 86v-734zM272 1247q0 -60 -42 -102.5t-99 -42.5q-60 0 -102.5 42.5t-42.5 102.5q0 59 42.5 100.5t102.5 41.5q57 0 99 -42t42 -100zM657 1247
q0 -60 -42 -102.5t-99 -42.5q-60 0 -102.5 42.5t-42.5 102.5q0 59 42.5 100.5t102.5 41.5q57 0 99 -42t42 -100z" />
    <glyph glyph-name="eth" unicode="&#xf0;" 
d="M764 682q0 56 -39 92.5t-107 36.5q-72 0 -119.5 -106t-47.5 -299q0 -227 6 -278q12 -88 57 -113q30 -15 82 -15q106 0 134.5 148t33.5 534zM1180 651q0 -310 -153.5 -489.5t-430.5 -179.5q-241 0 -379.5 116.5t-138.5 347.5q0 72 12.5 134t45 121.5t83.5 102t134.5 68
t191.5 25.5q75 0 142.5 -40t76.5 -99q-3 324 -88 495l-361 -186l-8 16l361 187q-30 55 -68 91.5t-79.5 53t-75.5 22t-74 5.5v18q271 0 458 -108l183 94l10 -16l-174 -89q332 -203 332 -690z" />
    <glyph glyph-name="ntilde" unicode="&#xf1;" horiz-adv-x="1214" 
d="M698 1069l-243 96q-30 12 -80 21.5t-109.5 13t-111 -13.5t-70.5 -56l-8 3q35 81 78 138.5t84 86t83 43.5t77 14t62 -5t42 -10l16 -7l244 -95q42 -19 114.5 -30.5t152.5 1.5t106 64l8 -2q-36 -77 -79.5 -133t-85 -84t-83.5 -44t-77 -16.5t-62 2t-42 8.5zM1079 233
q0 -97 17 -151t67 -66v-16h-512v16q53 16 67.5 68t14.5 149v412q0 88 -34 130t-107 42q-32 0 -65 -23t-56 -57v-506q0 -97 16.5 -149t67.5 -66v-16h-512v16q28 8 45 26.5t24.5 51.5t9 60t1.5 77v500q0 54 -22 81t-85 50v17l455 86v-199q41 85 116 142t156 57q66 0 122.5 -15
t106.5 -48.5t78.5 -97t28.5 -151.5v-420z" />
    <glyph glyph-name="ograve" unicode="&#xf2;" horiz-adv-x="1218" 
d="M612 965q134 0 237 -38.5t166 -106.5t94.5 -155.5t31.5 -191.5q0 -103 -31.5 -190.5t-94.5 -155.5t-166 -106.5t-237 -38.5t-237 38.5t-165.5 107t-94 155.5t-31.5 190q0 104 31.5 191.5t94 155.5t165.5 106.5t237 38.5zM612 0q79 0 96 86t17 387t-17 387t-96 86
q-80 0 -97 -85t-17 -388t17 -388t97 -85zM522 1442l459 -334h-168l-623 231z" />
    <glyph glyph-name="oacute" unicode="&#xf3;" horiz-adv-x="1218" 
d="M612 965q134 0 237 -38.5t166 -106.5t94.5 -155.5t31.5 -191.5q0 -103 -31.5 -190.5t-94.5 -155.5t-166 -106.5t-237 -38.5t-237 38.5t-165.5 107t-94 155.5t-31.5 190q0 104 31.5 191.5t94 155.5t165.5 106.5t237 38.5zM612 0q79 0 96 86t17 387t-17 387t-96 86
q-80 0 -97 -85t-17 -388t17 -388t97 -85zM266 1108l459 334l332 -103l-623 -231h-168z" />
    <glyph glyph-name="ocircumflex" unicode="&#xf4;" horiz-adv-x="1218" 
d="M612 965q134 0 237 -38.5t166 -106.5t94.5 -155.5t31.5 -191.5q0 -103 -31.5 -190.5t-94.5 -155.5t-166 -106.5t-237 -38.5t-237 38.5t-165.5 107t-94 155.5t-31.5 190q0 104 31.5 191.5t94 155.5t165.5 106.5t237 38.5zM612 0q79 0 96 86t17 387t-17 387t-96 86
q-80 0 -97 -85t-17 -388t17 -388t97 -85zM358 1049h-84l338 395l338 -395h-84l-254 168z" />
    <glyph glyph-name="otilde" unicode="&#xf5;" horiz-adv-x="1218" 
d="M612 965q134 0 237 -38.5t166 -106.5t94.5 -155.5t31.5 -191.5q0 -103 -31.5 -190.5t-94.5 -155.5t-166 -106.5t-237 -38.5t-237 38.5t-165.5 107t-94 155.5t-31.5 190q0 104 31.5 191.5t94 155.5t165.5 106.5t237 38.5zM612 0q79 0 96 86t17 387t-17 387t-96 86
q-80 0 -97 -85t-17 -388t17 -388t97 -85zM719 1069l-244 96q-30 12 -80 21.5t-109.5 13t-111 -13.5t-70.5 -56l-8 3q35 81 78 138.5t84.5 86t83 43.5t76.5 14t62.5 -5t43.5 -10l15 -7l243 -95q42 -19 114.5 -30.5t152.5 1.5t106 64l8 -2q-36 -77 -79.5 -133t-85 -84t-83 -44
t-76.5 -16.5t-62 2t-43 8.5z" />
    <glyph glyph-name="odieresis" unicode="&#xf6;" horiz-adv-x="1218" 
d="M612 965q134 0 237 -38.5t166 -106.5t94.5 -155.5t31.5 -191.5q0 -103 -31.5 -190.5t-94.5 -155.5t-166 -106.5t-237 -38.5t-237 38.5t-165.5 107t-94 155.5t-31.5 190q0 104 31.5 191.5t94 155.5t165.5 106.5t237 38.5zM612 0q79 0 96 86t17 387t-17 387t-96 86
q-80 0 -97 -85t-17 -388t17 -388t97 -85zM561 1247q0 -60 -42 -102.5t-99 -42.5q-60 0 -103 42.5t-43 102.5q0 58 43 100t103 42q57 0 99 -42t42 -100zM946 1247q0 -60 -42 -102.5t-99 -42.5q-60 0 -103 42.5t-43 102.5q0 58 43 100t103 42q57 0 99 -42t42 -100z" />
    <glyph glyph-name="divide" unicode="&#xf7;" horiz-adv-x="1280" 
d="M1190 440h-1098v252h1098v-252zM799 1010q0 -66 -47 -113t-113 -47t-112 47t-46 113q0 65 46 112t112 47t113 -47t47 -112zM799 123q0 -67 -47 -113.5t-113 -46.5t-112 46.5t-46 113.5q0 65 46 111.5t112 46.5t113 -46.5t47 -111.5z" />
    <glyph glyph-name="oslash" unicode="&#xf8;" horiz-adv-x="1218" 
d="M874 915q134 -56 200.5 -172.5t66.5 -269.5q0 -103 -31.5 -190.5t-94.5 -155.5t-166 -106.5t-237 -38.5t-237 38l-86 -157h-23l90 166q-135 57 -203.5 174.5t-68.5 269.5q0 104 31.5 191.5t94 155.5t165.5 106.5t237 38.5q121 0 242 -41l84 151h25zM498 473v-186l225 403
q-5 145 -27.5 200.5t-83.5 55.5q-80 0 -97 -85t-17 -388zM612 0q79 0 96 86t17 387q0 123 -2 174l-223 -403q5 -144 27 -194t85 -50z" />
    <glyph glyph-name="ugrave" unicode="&#xf9;" 
d="M1114 182q0 -73 20 -97t85 -32v-16l-394 -53q-24 -4 -38.5 6t-16.5 22l-2 11v167q-13 -86 -89.5 -147t-197.5 -61q-52 0 -97 8.5t-89 31t-75.5 57t-50.5 90t-19 126.5v455q0 89 -8 109q-12 29 -62 40q-17 4 -45 8v17l467 41v-664q0 -90 29 -130t104 -40q107 0 133 115
v497q0 95 -5 114q-9 32 -50 43q-16 4 -41 7v17l442 41v-783zM512 1442l459 -334h-168l-623 231z" />
    <glyph glyph-name="uacute" unicode="&#xfa;" 
d="M1114 182q0 -73 20 -97t85 -32v-16l-394 -53q-24 -4 -38.5 6t-16.5 22l-2 11v167q-13 -86 -89.5 -147t-197.5 -61q-52 0 -97 8.5t-89 31t-75.5 57t-50.5 90t-19 126.5v455q0 89 -8 109q-12 29 -62 40q-17 4 -45 8v17l467 41v-664q0 -90 29 -130t104 -40q107 0 133 115
v497q0 95 -5 114q-9 32 -50 43q-16 4 -41 7v17l442 41v-783zM311 1108l459 334l332 -103l-623 -231h-168z" />
    <glyph glyph-name="ucircumflex" unicode="&#xfb;" 
d="M1114 182q0 -73 20 -97t85 -32v-16l-394 -53q-24 -4 -38.5 6t-16.5 22l-2 11v167q-13 -86 -89.5 -147t-197.5 -61q-52 0 -97 8.5t-89 31t-75.5 57t-50.5 90t-19 126.5v455q0 89 -8 109q-12 29 -62 40q-17 4 -45 8v17l467 41v-664q0 -90 29 -130t104 -40q107 0 133 115
v497q0 95 -5 114q-9 32 -50 43q-16 4 -41 7v17l442 41v-783zM387 1049h-84l338 395l338 -395h-84l-254 168z" />
    <glyph glyph-name="udieresis" unicode="&#xfc;" 
d="M575 1247q0 -60 -42 -102.5t-99 -42.5q-60 0 -102.5 42.5t-42.5 102.5q0 59 42.5 100.5t102.5 41.5q57 0 99 -42t42 -100zM961 1247q0 -60 -42.5 -102.5t-99.5 -42.5q-60 0 -102.5 42.5t-42.5 102.5q0 59 42.5 100.5t102.5 41.5q57 0 99.5 -42t42.5 -100zM1114 182
q0 -73 20 -97t85 -32v-16l-394 -53q-24 -4 -38.5 6t-16.5 22l-2 11v167q-13 -86 -89.5 -147t-197.5 -61q-52 0 -97 8.5t-89 31t-75.5 57t-50.5 90t-19 126.5v455q0 89 -8 109q-12 29 -62 40q-17 4 -45 8v17l467 41v-664q0 -90 29 -130t104 -40q107 0 133 115v497
q0 95 -5 114q-9 32 -50 43q-16 4 -41 7v17l442 41v-783z" />
    <glyph glyph-name="yacute" unicode="&#xfd;" horiz-adv-x="1261" 
d="M1231 946h-477v-16q72 0 114 -34t51.5 -82.5t8.5 -97t-10 -82.5l-9 -34l-84 -248l-209 406q-4 7 -9 18.5t-13 41t-7 52.5t20 41.5t57 18.5v16h-641v-16q102 -10 165 -127l467 -930q-44 -160 -90 -160q-19 1 -26 25q-21 65 -90 96q-66 29 -133.5 3.5t-98.5 -91.5
q-28 -66 -3 -133t91 -98q44 -20 103.5 -14t93.5 34q95 78 170 324l256 735q86 205 141.5 270.5t161.5 65.5v16zM227 1108l459 334l332 -103l-623 -231h-168z" />
    <glyph glyph-name="thorn" unicode="&#xfe;" horiz-adv-x="1357" 
d="M649 0q92 0 148.5 113.5t56.5 347.5q0 125 -20 219.5t-67 154.5t-118 60q-153 0 -168 -256v-354q8 -142 48 -213.5t120 -71.5zM834 965q102 0 185.5 -38.5t136.5 -104.5t81.5 -151.5t28.5 -181.5q0 -118 -31 -208.5t-81 -146t-121 -90.5t-143.5 -48.5t-156.5 -13.5
q-160 0 -252 47v-340q0 -97 16.5 -148t67.5 -65v-19h-512v19q28 8 45 26.5t24.5 51.5t9 59.5t1.5 75.5v1579q0 54 -21.5 81t-84.5 50v16l454 86v-690q44 77 129 115.5t224 38.5z" />
    <glyph glyph-name="ydieresis" unicode="&#xff;" horiz-adv-x="1261" 
d="M614 1247q0 -60 -42 -102.5t-99 -42.5q-60 0 -102.5 42.5t-42.5 102.5q0 59 42.5 100.5t102.5 41.5q57 0 99 -42t42 -100zM999 1247q0 -60 -42 -102.5t-99 -42.5q-60 0 -102.5 42.5t-42.5 102.5q0 59 42.5 100.5t102.5 41.5q57 0 99 -42t42 -100zM1231 946h-477v-16
q72 0 114 -34t51.5 -82.5t8.5 -97t-10 -82.5l-9 -34l-84 -248l-209 406q-4 7 -9 18.5t-13 41t-7 52.5t20 41.5t57 18.5v16h-641v-16q102 -10 165 -127l467 -930q-44 -160 -90 -160q-19 1 -26 25q-21 65 -90 96q-66 29 -133.5 3.5t-98.5 -91.5q-28 -66 -3 -133t91 -98
q44 -20 103.5 -14t93.5 34q95 78 170 324l256 735q86 205 141.5 270.5t161.5 65.5v16z" />
    <glyph glyph-name="Abreve" unicode="&#x102;" horiz-adv-x="1560" 
d="M782 416l-204 461l-183 -461h387zM371 397l413 1045h11l553 -1256q21 -47 44.5 -80t40 -49.5t39 -26t31.5 -11t29 -3.5v-16h-717v16q46 0 67 24.5t18.5 60t-12 71t-20.5 60.5l-12 24l-65 141h-402q-13 -29 -15 -75.5t12 -99.5t41.5 -99t80.5 -76.5t123 -30.5v-16h-590v16
q25 2 43.5 6.5t53 26t67 59.5t77 112t89.5 177zM797 1763q149 0 208.5 29.5t59.5 89.5h4q0 -145 -66 -229t-206 -84q-143 0 -211 84t-68 229h6q0 -60 60 -89.5t213 -29.5z" />
    <glyph glyph-name="abreve" unicode="&#x103;" horiz-adv-x="1161" 
d="M614 184v316q-35 -8 -62 -22t-44 -28t-29 -37.5t-18 -39.5t-8.5 -45.5t-3 -42.5t-0.5 -43v-15t4 -32.5t11.5 -41.5t24 -32.5t39.5 -14.5q49 0 86 78zM1114 141l12 -10q-22 -67 -94.5 -108t-169.5 -41q-5 0 -13 0.5t-32 4t-46.5 10t-50 20t-48 32.5t-36.5 49t-20 68
q-21 -81 -95.5 -132.5t-180.5 -51.5q-27 0 -57 4.5t-66.5 18.5t-65 36t-48 60.5t-19.5 88.5q0 44 12 79t27.5 60.5t56 49.5t70.5 39t101 35t117 31.5t146 35.5v131q0 159 -78 234.5t-184 19.5q-45 -26 25 -51q47 -16 74 -78q23 -57 0 -111t-80 -79q-56 -22 -111 1.5
t-78 78.5q-15 40 -8 81.5t33 69.5q58 62 137 105q41 22 89 32.5t76 10.5h28q197 0 307 -112.5t110 -297.5v-305q0 -6 0.5 -16t6 -35.5t15 -44.5t30 -34t47.5 -14q6 0 14.5 1t25.5 9.5t21 24.5zM616 1323q149 0 209 29.5t60 89.5h4q0 -145 -66.5 -229.5t-206.5 -84.5
q-143 0 -210.5 84.5t-67.5 229.5h6q0 -61 59.5 -90t212.5 -29z" />
    <glyph glyph-name="Aogonek" unicode="&#x104;" horiz-adv-x="1560" 
d="M371 397l413 1045h11l553 -1256q21 -47 44.5 -80t40 -49.5t39 -26t31.5 -11t29 -3.5v-16h-219q-71 -39 -98.5 -86t-16.5 -94q9 -35 32 -52.5t42 -17.5h18q3 0 7.5 0.5t15.5 3t20 6.5t16 12t7 19h20q0 -24 -1.5 -41t-8.5 -41t-19.5 -40.5t-37 -31.5t-58.5 -22
q-54 -8 -97 0.5t-66 26.5t-38 37.5t-20 34.5l-4 14q-47 178 160 272h-371v16q46 0 67 24.5t18.5 60t-12 71t-20.5 60.5l-12 24l-65 141h-402q-13 -29 -15 -75.5t12 -99.5t41.5 -99t80.5 -76.5t123 -30.5v-16h-590v16q25 2 43.5 6.5t53 26t67 59.5t77 112t89.5 177zM782 416
l-204 461l-183 -461h387z" />
    <glyph glyph-name="aogonek" unicode="&#x105;" horiz-adv-x="1161" 
d="M1114 141l12 -10q-20 -61 -83 -101t-148 -46q-110 -72 -86 -164q9 -35 32 -52.5t41 -17.5h19q3 0 7.5 0.5t15.5 3t20 6.5t16 12t7 19h20q0 -24 -1.5 -41t-8.5 -41t-19.5 -40.5t-37 -31.5t-58.5 -22q-54 -8 -97 0.5t-66 26.5t-38 37.5t-19 34.5l-5 14q-44 171 145 266
q-63 13 -111 53.5t-55 118.5q-21 -81 -95.5 -132.5t-180.5 -51.5q-27 0 -57 4.5t-66.5 18.5t-65 36t-48 60.5t-19.5 88.5q0 44 12 79t27.5 60.5t56 49.5t70.5 39t101 35t117 31.5t146 35.5v131q0 159 -78 234.5t-184 19.5q-45 -26 25 -51q47 -16 74 -78q23 -57 0 -111
t-80 -79q-56 -22 -111 1.5t-78 78.5q-15 40 -8 81.5t33 69.5q58 62 137 105q41 22 89 32.5t76 10.5h28q197 0 307 -112.5t110 -297.5v-305q0 -6 0.5 -16t6 -35.5t15 -44.5t30 -34t47.5 -14q6 0 14.5 1t25.5 9.5t21 24.5zM614 184v316q-35 -8 -62 -22t-44 -28t-29 -37.5
t-18 -39.5t-8.5 -45.5t-3 -42.5t-0.5 -43v-15t4 -32.5t11.5 -41.5t24 -32.5t39.5 -14.5q49 0 86 78z" />
    <glyph glyph-name="Cacute" unicode="&#x106;" horiz-adv-x="1478" 
d="M1352 492h16l21 -414q-48 -32 -189 -63t-291 -31q-131 0 -254 31.5t-226.5 95t-181 151t-121.5 205.5t-44 254q0 169 67.5 310t182 234t263.5 144t314 51q180 0 308 -29.5t172 -64.5l-21 -414h-16q-13 88 -36.5 160.5t-52 122.5t-64.5 88t-71.5 60t-76 36t-74 18.5
t-68.5 4.5q-118 0 -186 -63t-102.5 -221t-34.5 -437q0 -210 19 -350t60.5 -222t99.5 -115.5t144 -33.5q46 0 93 11.5t102.5 45t101.5 85.5t86 142.5t60 207.5zM455 1505l458 334l332 -102l-622 -232h-168z" />
    <glyph glyph-name="cacute" unicode="&#x107;" horiz-adv-x="1054" 
d="M651 965q109 0 189 -37.5t125 -87.5q27 -28 35.5 -72t-5.5 -84q-20 -60 -77.5 -86.5t-116.5 -3.5q-60 20 -86.5 77t-3.5 115q19 64 73 86q15 5 5 25q-19 38 -91 47q-17 2 -36 2q-168 0 -168 -442q0 -166 68.5 -253t197.5 -87q77 0 131 28t76 80l14 -6q0 -49 -26.5 -98.5
t-75 -91t-126 -68t-169.5 -26.5q-204 0 -348 141t-144 354q0 107 33.5 195t100.5 154t175 102.5t250 36.5zM276 1108l459 334l332 -103l-623 -231h-168z" />
    <glyph glyph-name="Ccaron" unicode="&#x10c;" horiz-adv-x="1478" 
d="M1352 492h16l21 -414q-48 -32 -189 -63t-291 -31q-131 0 -254 31.5t-226.5 95t-181 151t-121.5 205.5t-44 254q0 169 67.5 310t182 234t263.5 144t314 51q180 0 308 -29.5t172 -64.5l-21 -414h-16q-13 88 -36.5 160.5t-52 122.5t-64.5 88t-71.5 60t-76 36t-74 18.5
t-68.5 4.5q-118 0 -186 -63t-102.5 -221t-34.5 -437q0 -210 19 -350t60.5 -222t99.5 -115.5t144 -33.5q46 0 93 11.5t102.5 45t101.5 85.5t86 142.5t60 207.5zM518 1901h84l254 -168l254 168h84l-338 -396z" />
    <glyph glyph-name="ccaron" unicode="&#x10d;" horiz-adv-x="1054" 
d="M651 965q109 0 189 -37.5t125 -87.5q27 -28 35.5 -72t-5.5 -84q-20 -60 -77.5 -86.5t-116.5 -3.5q-60 20 -86.5 77t-3.5 115q19 64 73 86q15 5 5 25q-19 38 -91 47q-17 2 -36 2q-168 0 -168 -442q0 -166 68.5 -253t197.5 -87q77 0 131 28t76 80l14 -6q0 -49 -26.5 -98.5
t-75 -91t-126 -68t-169.5 -26.5q-204 0 -348 141t-144 354q0 107 33.5 195t100.5 154t175 102.5t250 36.5zM248 1442h84l254 -168l254 168h84l-338 -395z" />
    <glyph glyph-name="Dcaron" unicode="&#x10e;" horiz-adv-x="1671" 
d="M682 18q42 0 69.5 1.5t62 7t56.5 16t48 28.5t42.5 45t34 65t27.5 89t19 116t12.5 147t3.5 182q0 140 -8 245.5t-21.5 181t-39 127t-52.5 82t-70 46.5t-83 21t-101 5h-90v-1405h90zM682 1442q93 0 178 -8.5t176 -31t167.5 -57.5t146 -92t117.5 -131t76 -178t28 -229
t-28.5 -228t-76 -175.5t-117 -128.5t-145.5 -90t-167.5 -55.5t-176 -29.5t-178.5 -8h-606v18q42 0 70 38t39.5 95t11.5 130v878q0 50 -6.5 95.5t-20 85t-38 62.5t-56.5 23v17h606zM395 1901h84l254 -168l254 168h84l-338 -396z" />
    <glyph glyph-name="dcaron" unicode="&#x10f;" horiz-adv-x="1687" 
d="M1374 1442h248q0 -61 -18 -118.5t-47 -101t-64 -82t-70 -64.5t-64 -45.5t-47 -28.5l-18 -9l-16 27q4 3 10.5 11t23 40.5t29 75.5t23 121.5t10.5 173.5zM885 244v411q0 136 -55.5 213.5t-137.5 77.5q-32 0 -57.5 -11.5t-49 -41t-39 -77t-25 -124t-9.5 -178.5
q0 -201 47 -302t156 -101q56 0 106 42t64 91zM1231 184q0 -74 20.5 -99.5t83.5 -33.5v-16l-393 -51q-25 -4 -39.5 5t-16.5 20l-1 11v183q-16 -69 -70.5 -120.5t-124.5 -76t-145 -24.5q-216 0 -332.5 123t-116.5 362q0 125 38.5 221t108 156t162.5 90.5t205 30.5
q192 0 275 -91v420q0 54 -21 81t-84 50v17l451 86v-1344z" />
    <glyph glyph-name="Dcroat" unicode="&#x110;" horiz-adv-x="1685" 
d="M696 1442q93 0 178 -8.5t176 -31t167.5 -57.5t146 -92t117.5 -131t76 -178t28 -229t-28.5 -228t-76 -175.5t-117 -128.5t-145.5 -90t-167.5 -55.5t-176 -29.5t-178.5 -8h-606v18q42 0 70 38t39.5 95t11.5 130v434h-168v18h168v426q0 69 -11 125.5t-39 97.5t-71 41v19h606
zM696 18q42 0 69.5 1.5t62 7t56.5 16t48 28.5t42.5 45t34 65t27.5 89t19 116t12.5 147t3.5 182q0 140 -8 245.5t-21.5 181t-39 127t-52.5 82t-70 46.5t-83 21t-101 5h-90v-690h268v-18h-268v-697h90z" />
    <glyph glyph-name="dcroat" unicode="&#x111;" horiz-adv-x="1386" 
d="M1231 184q0 -74 20.5 -99.5t83.5 -33.5v-16l-393 -51q-25 -4 -39.5 5t-16.5 20l-1 11v183q-16 -69 -70.5 -120.5t-124.5 -76t-145 -24.5q-216 0 -332.5 123t-116.5 362q0 125 38.5 221t108 156t162.5 90.5t205 30.5q192 0 275 -91v297h-162v19h162v104q0 54 -21 81
t-84 50v17l451 86v-338h158v-19h-158v-987zM885 244v411q0 136 -55.5 213.5t-137.5 77.5q-32 0 -57.5 -11.5t-49 -41t-39 -77t-25 -124t-9.5 -178.5q0 -201 47 -302t156 -101q56 0 106 42t64 91z" />
    <glyph glyph-name="Eogonek" unicode="&#x118;" horiz-adv-x="1398" 
d="M1233 401h18v-401h-110q-71 -39 -98.5 -86t-16.5 -94q9 -35 32 -52.5t42 -17.5h18q3 0 7.5 0.5t15.5 3t20 6.5t16 12t7 19h20q0 -24 -1.5 -41t-8.5 -41t-19.5 -40.5t-37 -31.5t-58.5 -22q-54 -8 -97 0.5t-66 26.5t-38 37.5t-20 34.5l-4 14q-47 178 160 272h-959v18
q41 0 68.5 37.5t39 95t11.5 130.5v878q0 51 -6 96t-19.5 84.5t-37.5 62.5t-56 23v17h1170v-420h-19q0 81 -31 147.5t-80 107t-109 70.5t-119.5 44t-108.5 22t-80 9l-31 1h-74v-686h166h13.5t31 4.5t45 12.5t48 26t47.5 42.5t36 65t21 91.5h18v-502h-18q-6 69 -34.5 119
t-59 72.5t-70 35.5t-53.5 14t-25 1h-166v-701h74q1 2 20 -0.5t54 2t78 7.5t92 17t97.5 30.5t92.5 47t78 67.5t54 92t20 120z" />
    <glyph glyph-name="eogonek" unicode="&#x119;" horiz-adv-x="1099" 
d="M592 965q70 0 128 -11.5t114.5 -43.5t95 -83.5t62.5 -136t24 -196.5h-557q0 -113 16.5 -192.5t50 -125.5t73 -69.5t95.5 -36.5q85 -19 168.5 36t112.5 177l18 -4q-22 -116 -124.5 -200.5t-266.5 -94.5q-110 -72 -86 -164q9 -35 32 -52.5t42 -17.5h18q3 0 7.5 0.5t15.5 3
t20 6.5t16 12t7 19h20q0 -24 -1.5 -41t-8.5 -41t-19.5 -40.5t-37 -31.5t-58.5 -22q-54 -8 -97 0.5t-66 26.5t-38 37.5t-20 34.5l-4 14q-45 167 135 260q-174 28 -288.5 163.5t-114.5 319.5q0 101 29.5 184.5t79.5 140t117 95.5t139.5 56.5t150.5 17.5zM459 512h260
q0 209 -27 321.5t-92 112.5q-44 0 -77.5 -68.5t-48.5 -165t-15 -200.5z" />
    <glyph glyph-name="Ecaron" unicode="&#x11a;" horiz-adv-x="1398" 
d="M354 1901h84l254 -168l254 168h84l-338 -396zM1233 401h18v-401h-1196v18q41 0 68.5 37.5t39 95t11.5 130.5v878q0 51 -6 96t-19.5 84.5t-37.5 62.5t-56 23v17h1170v-420h-19q0 81 -31 147.5t-80 107t-109 70.5t-119.5 44t-108.5 22t-80 9l-31 1h-74v-686h166h13.5
t31 4.5t45 12.5t48 26t47.5 42.5t36 65t21 91.5h18v-502h-18q-6 69 -34.5 119t-59 72.5t-70 35.5t-53.5 14t-25 1h-166v-701h74q1 2 20 -0.5t54 2t78 7.5t92 17t97.5 30.5t92.5 47t78 67.5t54 92t20 120z" />
    <glyph glyph-name="ecaron" unicode="&#x11b;" horiz-adv-x="1099" 
d="M592 965q70 0 128 -11.5t114.5 -43.5t95 -83.5t62.5 -136t24 -196.5h-557q0 -113 16.5 -192.5t50 -125.5t73 -69.5t95.5 -36.5q85 -19 168.5 36t112.5 177l18 -4q-22 -123 -136 -210t-296 -87q-132 0 -243.5 64t-176.5 177t-65 248q0 101 29.5 184.5t79.5 140t117 95.5
t139.5 56.5t150.5 17.5zM459 512h260q0 209 -27 321.5t-92 112.5q-44 0 -77.5 -68.5t-48.5 -165t-15 -200.5zM254 1442h84l254 -168l254 168h84l-338 -395z" />
    <glyph glyph-name="dotlessi" unicode="&#x131;" horiz-adv-x="667" 
d="M508 231q0 -97 16.5 -149t67.5 -66v-16h-512v16q28 8 45 27t24.5 52t9 60t1.5 76v500q0 54 -22 81t-85 50v17l455 86v-734z" />
    <glyph glyph-name="Lacute" unicode="&#x139;" horiz-adv-x="1366" 
d="M1171 444h-18q0 -79 -23 -143.5t-59.5 -108t-88.5 -76t-103.5 -51t-110 -29.5t-102.5 -14.5t-88 -3.5v1262q0 29 0.5 48.5t4 35.5t4.5 25.5t10.5 17t12.5 10.5t19 4.5t22.5 1.5h30.5v19h-612v-19q62 0 74 -5q22 -10 25 -62q1 -18 1 -49v-1114v-17q0 -102 -12 -130
t-72 -28v-18h1085v444zM209 1505l459 334l331 -102l-622 -232h-168z" />
    <glyph glyph-name="lacute" unicode="&#x13a;" horiz-adv-x="636" 
d="M496 231q0 -97 16.5 -149t67.5 -66v-16h-512v16q23 7 38.5 22t23.5 32t12 47.5t4.5 52t0.5 61.5v1063q0 54 -22.5 81t-85.5 50v17l457 86v-1297zM-29 1563l459 333l332 -102l-623 -231h-168z" />
    <glyph glyph-name="Lcaron" unicode="&#x13d;" horiz-adv-x="1304" 
d="M776 1442h248q0 -61 -18 -118.5t-47 -101t-64 -82t-70 -64.5t-64 -45.5t-47 -28.5l-18 -9l-16 27q4 3 10.5 11t23 40.5t29 75.5t23 121.5t10.5 173.5zM1153 444h18v-444h-1085v18q60 0 72 28t12 130v17v1114q0 46 -2 68t-13.5 34t-23 13t-44.5 1h-6h-5h-6v19h612v-19
h-30.5t-22.5 -1.5t-19 -4.5t-12.5 -10.5t-10.5 -17t-4.5 -25.5t-4 -35.5t-0.5 -48.5v-1262q44 0 88 3.5t102.5 14.5t110 29.5t103.5 51t88.5 76t59.5 108t23 143.5z" />
    <glyph glyph-name="lcaron" unicode="&#x13e;" horiz-adv-x="989" 
d="M496 231q0 -97 16.5 -149t67.5 -66v-16h-512v16q23 7 38.5 22t23.5 32t12 47.5t4.5 52t0.5 61.5v1063q0 54 -22.5 81t-85.5 50v17l457 86v-1297zM645 1442h248q0 -61 -18 -118.5t-47 -101t-64 -82t-70 -64.5t-64 -45.5t-47 -28.5l-18 -9l-16 27q4 3 10.5 11t23 40.5
t29 75.5t23 121.5t10.5 173.5z" />
    <glyph glyph-name="Lslash" unicode="&#x141;" horiz-adv-x="1304" 
d="M1153 444h18v-444h-1085v18q60 0 72 28t12 130v17v378l-283 -151v24l283 152v711q0 46 -2 68t-13.5 34t-23 13t-44.5 1h-6h-5h-6v19h612v-19h-30.5t-22.5 -1.5t-19 -4.5t-12.5 -10.5t-10.5 -17t-4.5 -25.5t-4 -35.5t-0.5 -48.5v-467l303 162v-25l-303 -162v-770
q44 0 88 3.5t102.5 14.5t110 29.5t103.5 51t88.5 76t59.5 108t23 143.5z" />
    <glyph glyph-name="lslash" unicode="&#x142;" horiz-adv-x="780" 
d="M748 952l-175 -94v-627q0 -97 16.5 -149t67.5 -66v-16h-512v16q28 8 45 26.5t24.5 51.5t9 60t1.5 77v443l-200 -109v25l200 108v596q0 54 -22.5 81t-85.5 50v17l456 86v-645l175 94v-25z" />
    <glyph glyph-name="Nacute" unicode="&#x143;" horiz-adv-x="1728" 
d="M1384 0h-225l-772 1100v-639q0 -45 1.5 -77t8 -81.5t18 -85t34.5 -76t55 -65.5t81 -41.5t111 -16.5v-18h-651v18q81 0 142 31.5t94.5 77t54.5 109t27 116t6 109.5v663l-97 138q-33 44 -66.5 75.5t-54.5 47t-51 25.5t-39.5 11t-36.5 3q-5 1 -8 1v17h654l696 -1006v547
q0 61 -8.5 119.5t-29.5 118t-53.5 104t-84.5 72.5t-117 28v17h621v-17q-73 0 -129.5 -28t-89.5 -72t-54.5 -104.5t-29 -118t-7.5 -119.5v-983zM494 1505l458 334l332 -102l-622 -232h-168z" />
    <glyph glyph-name="nacute" unicode="&#x144;" horiz-adv-x="1214" 
d="M1079 233q0 -97 17 -151t67 -66v-16h-512v16q53 16 67.5 68t14.5 149v412q0 88 -34 130t-107 42q-32 0 -65 -23t-56 -57v-506q0 -97 16.5 -149t67.5 -66v-16h-512v16q28 8 45 26.5t24.5 51.5t9 60t1.5 77v500q0 54 -22 81t-85 50v17l455 86v-199q41 85 116 142t156 57
q66 0 122.5 -15t106.5 -48.5t78.5 -97t28.5 -151.5v-420zM266 1108l459 334l332 -103l-623 -231h-168z" />
    <glyph glyph-name="Ncaron" unicode="&#x147;" horiz-adv-x="1728" 
d="M526 1901h84l254 -168l254 168h84l-338 -396zM1384 0h-225l-772 1100v-639q0 -45 1.5 -77t8 -81.5t18 -85t34.5 -76t55 -65.5t81 -41.5t111 -16.5v-18h-651v18q81 0 142 31.5t94.5 77t54.5 109t27 116t6 109.5v663l-97 138q-33 44 -66.5 75.5t-54.5 47t-51 25.5t-39.5 11
t-36.5 3q-5 1 -8 1v17h654l696 -1006v547q0 61 -8.5 119.5t-29.5 118t-53.5 104t-84.5 72.5t-117 28v17h621v-17q-73 0 -129.5 -28t-89.5 -72t-54.5 -104.5t-29 -118t-7.5 -119.5v-983z" />
    <glyph glyph-name="ncaron" unicode="&#x148;" horiz-adv-x="1214" 
d="M1079 233q0 -97 17 -151t67 -66v-16h-512v16q53 16 67.5 68t14.5 149v412q0 88 -34 130t-107 42q-32 0 -65 -23t-56 -57v-506q0 -97 16.5 -149t67.5 -66v-16h-512v16q28 8 45 26.5t24.5 51.5t9 60t1.5 77v500q0 54 -22 81t-85 50v17l455 86v-199q41 85 116 142t156 57
q66 0 122.5 -15t106.5 -48.5t78.5 -97t28.5 -151.5v-420zM254 1442h84l254 -168l254 168h84l-338 -395z" />
    <glyph glyph-name="Ohungarumlaut" unicode="&#x150;" horiz-adv-x="1673" 
d="M831 0q46 0 80 6t61 27t44.5 42t30 70.5t19 92t10.5 126.5t4.5 153.5t0.5 193.5t-1 194t-4.5 155.5t-10 129.5t-19 95.5t-30 74.5t-44 45.5t-61 29.5t-80.5 7q-62 0 -103.5 -13t-70.5 -54.5t-44.5 -85t-23.5 -142t-9.5 -185.5t-1.5 -251q0 -98 0.5 -157.5t2.5 -132
t5.5 -113.5t10.5 -90t16 -74.5t23.5 -54.5t32.5 -42.5t42 -26t53.5 -16.5t66.5 -4zM831 1460q165 0 306.5 -60t237.5 -162t150 -238.5t54 -288.5t-54 -285.5t-150.5 -231t-237 -154t-306.5 -56.5t-306.5 56.5t-236.5 154t-150 231t-54 285.5q0 203 91.5 373t264 273
t391.5 103zM371 1505l458 334l332 -102l-622 -232h-168zM963 1505l458 334l332 -102l-623 -232h-167z" />
    <glyph glyph-name="ohungarumlaut" unicode="&#x151;" horiz-adv-x="1224" 
d="M612 965q134 0 237 -38.5t166 -106.5t94.5 -155.5t31.5 -191.5q0 -103 -31.5 -190.5t-94.5 -155.5t-166 -106.5t-237 -38.5t-237 38.5t-165.5 107t-94 155.5t-31.5 190q0 104 31.5 191.5t94 155.5t165.5 106.5t237 38.5zM612 0q79 0 96 86t17 387t-17 387t-96 86
q-80 0 -97 -85t-17 -388t17 -388t97 -85zM127 1108l459 334l332 -103l-623 -231h-168zM719 1108l459 334l331 -103l-622 -231h-168z" />
    <glyph glyph-name="OE" unicode="&#x152;" horiz-adv-x="2230" 
d="M1028 313q0 57 1 400t1 393q0 183 -53 259.5t-182 76.5q-46 0 -78.5 -14.5t-56.5 -51t-39 -88.5t-24 -138.5t-12 -188.5t-3 -250q0 -176 5.5 -291t19 -201.5t38.5 -131.5t60.5 -66t89.5 -21q130 0 181.5 67t51.5 246zM2064 401h19v-401h-1153q-13 -2 -34.5 -6.5t-32 -6.5
t-28.5 -3.5t-40 -1.5q-165 0 -300 56.5t-223.5 155t-136 231.5t-47.5 286t48 288.5t136 238t223 162.5t300 60q51 0 133 -18h1128v-420h-18q0 82 -28.5 148.5t-74.5 107t-101 70.5t-110 43.5t-101 21.5t-75 9l-28 1h-74v-686h125q7 0 14 0.5t31 5t44.5 12.5t47.5 26t47 42.5
t36 65t21 90.5h19v-502h-19q-5 51 -21 91.5t-35.5 65t-47 42.5t-47.5 26t-45 12.5t-31.5 4.5h-13.5h-125v-701h74h31t76.5 6t107.5 17.5t114 39.5t108 67.5t76 105t31 147.5z" />
    <glyph glyph-name="oe" unicode="&#x153;" horiz-adv-x="1675" 
d="M1106 510h188v16q0 120 -1.5 175.5t-9.5 124t-27 94.5t-52 26q-23 0 -40 -17.5t-27.5 -53t-17 -72.5t-9 -93.5t-3.5 -97.5t-1 -102zM729 473q0 301 -17 387t-96 86q-80 0 -97 -85t-17 -388t17 -388t97 -85q79 0 96 86t17 387zM1550 287h19q-11 -61 -36 -112.5t-68 -96.5
t-114 -70.5t-163 -25.5q-139 0 -260 75q-128 -75 -312 -75q-134 0 -237 38.5t-165.5 107t-94 155.5t-31.5 190q0 104 31.5 191.5t94 155.5t165.5 106.5t237 38.5q170 0 312 -80q140 80 268 80q69 0 124.5 -12t107.5 -44t87 -84t55.5 -136.5t20.5 -196.5h-485
q0 -154 20.5 -241.5t60 -126t111.5 -54.5q81 -18 152 37t100 180z" />
    <glyph glyph-name="Racute" unicode="&#x154;" horiz-adv-x="1583" 
d="M623 684h8q61 0 87.5 0.5t65.5 6t51.5 12.5t33.5 27t25.5 43t12 66t8 90.5t0.5 121.5q0 96 -3 157.5t-18.5 105t-27.5 64t-51 32t-66 12.5t-94 1h-32h-64v-739h64zM1372 260q28 -106 91.5 -172t111.5 -70v-18h-408q-75 0 -117 40.5t-69.5 138t-52.5 294.5q-8 57 -38.5 98
t-69.5 58.5t-76.5 27t-63.5 9.5h-25h-96v-435q0 -55 0.5 -86t5 -58t9 -38.5t17 -19.5t25.5 -9.5t37 -1.5v-18h-612v18q26 0 38.5 1t27.5 8t20.5 19t11 37t7 59.5t1.5 88.5v1012q0 101 -21 141.5t-85 40.5v17h582q95 0 172 -3.5t159.5 -14t145 -28.5t120.5 -47.5t95.5 -70
t59.5 -98t22 -129.5q0 -88 -31.5 -156t-80 -107.5t-114.5 -65t-127 -34t-126 -8.5q77 0 129 -8.5t103 -33t87.5 -71t70.5 -122t64 -185.5zM356 1505l459 334l332 -102l-623 -232h-168z" />
    <glyph glyph-name="racute" unicode="&#x155;" horiz-adv-x="1046" 
d="M946 918q60 -53 66.5 -132.5t-45.5 -138.5q-52 -60 -131 -65.5t-140 45.5q-65 62 -65 127q0 18 -26 9q-53 -19 -120 -118l-4 -6v-408q0 -97 16.5 -149t67.5 -66v-16h-512v16q28 8 45 27t24.5 52t9 60t1.5 76v500q0 54 -22.5 81t-85.5 50v17l456 86v-287q42 63 79 110
t59.5 71.5t52 45.5t40 26.5t38.5 18.5q42 21 99.5 12t96.5 -44zM217 1108l459 334l332 -103l-623 -231h-168z" />
    <glyph glyph-name="Rcaron" unicode="&#x158;" horiz-adv-x="1583" 
d="M623 684h8q61 0 87.5 0.5t65.5 6t51.5 12.5t33.5 27t25.5 43t12 66t8 90.5t0.5 121.5q0 96 -3 157.5t-18.5 105t-27.5 64t-51 32t-66 12.5t-94 1h-32h-64v-739h64zM1372 260q28 -106 91.5 -172t111.5 -70v-18h-408q-75 0 -117 40.5t-69.5 138t-52.5 294.5q-8 57 -38.5 98
t-69.5 58.5t-76.5 27t-63.5 9.5h-25h-96v-435q0 -55 0.5 -86t5 -58t9 -38.5t17 -19.5t25.5 -9.5t37 -1.5v-18h-612v18q26 0 38.5 1t27.5 8t20.5 19t11 37t7 59.5t1.5 88.5v1012q0 101 -21 141.5t-85 40.5v17h582q95 0 172 -3.5t159.5 -14t145 -28.5t120.5 -47.5t95.5 -70
t59.5 -98t22 -129.5q0 -88 -31.5 -156t-80 -107.5t-114.5 -65t-127 -34t-126 -8.5q77 0 129 -8.5t103 -33t87.5 -71t70.5 -122t64 -185.5zM387 1901h84l254 -168l254 168h84l-338 -396z" />
    <glyph glyph-name="rcaron" unicode="&#x159;" horiz-adv-x="1046" 
d="M946 918q60 -53 66.5 -132.5t-45.5 -138.5q-52 -60 -131 -65.5t-140 45.5q-65 62 -65 127q0 18 -26 9q-53 -19 -120 -118l-4 -6v-408q0 -97 16.5 -149t67.5 -66v-16h-512v16q28 8 45 27t24.5 52t9 60t1.5 76v500q0 54 -22.5 81t-85.5 50v17l456 86v-287q42 63 79 110
t59.5 71.5t52 45.5t40 26.5t38.5 18.5q42 21 99.5 12t96.5 -44zM143 1442h84l254 -168l254 168h84l-338 -395z" />
    <glyph glyph-name="Sacute" unicode="&#x15a;" horiz-adv-x="1261" 
d="M899 813q202 -133 253 -314.5t-65 -348.5q-2 -4 -7 -10t-23.5 -23.5t-41 -33t-61.5 -35t-84 -33.5t-110 -23.5t-137 -9.5q-111 0 -208.5 10.5t-157.5 26t-104.5 31t-62.5 26.5l-18 10v393h18q11 -46 36.5 -103.5t73 -125t106 -122t142 -91.5t175.5 -37q80 0 131.5 46
t61 112.5t-30.5 149t-128 147.5l-315 198q-218 136 -268.5 312t80.5 340q5 6 14.5 16.5t47 37.5t83.5 47t127.5 37t175.5 17q98 0 184 -9.5t138.5 -23.5t91.5 -28t55 -23l16 -10v-344h-18q-11 38 -21.5 70t-31.5 77t-45 80.5t-60.5 73t-79.5 62.5t-102 41t-127 16
q-65 0 -112.5 -26.5t-66 -71.5t-12 -98.5t51 -113.5t121.5 -110zM272 1505l459 334l332 -102l-623 -232h-168z" />
    <glyph glyph-name="sacute" unicode="&#x15b;" horiz-adv-x="909" 
d="M641 571q90 -55 138.5 -143t43.5 -178.5t-61 -157.5q-3 -4 -10 -11.5t-33 -26.5t-58.5 -33.5t-90 -26.5t-124.5 -12q-69 0 -132.5 7t-103.5 17t-70.5 20.5t-43.5 17.5l-14 7v268h18q30 -137 134.5 -228t211.5 -91q53 0 86 28.5t39 69t-20 89t-82 85.5l-207 125
q-145 95 -179 230t60 239q3 4 9.5 10.5t32.5 24t58 30.5t88.5 23.5t121.5 10.5q105 0 188 -14.5t114 -28.5l31 -15v-209h-18q-13 66 -47.5 116t-80 77.5t-93 41t-94.5 13.5q-49 0 -83.5 -23t-43.5 -57.5t18 -80t90 -85.5zM117 1108l458 334l332 -103l-622 -231h-168z" />
    <glyph glyph-name="Scedilla" unicode="&#x15e;" horiz-adv-x="1261" 
d="M899 813q202 -133 253 -314.5t-65 -348.5q-2 -4 -7 -10t-23.5 -23.5t-41 -33t-61.5 -35t-84 -33.5t-110 -23.5t-137 -9.5h-11l-37 -101q137 30 212 -25.5t65 -150.5q-19 -160 -231 -160q-91 0 -142 45q-14 11 -21.5 32t-4.5 42q8 29 33.5 44.5t56.5 8.5q30 -6 46.5 -31
t10.5 -55q-12 -37 -37 -45q-12 -6 4 -14q15 -8 43 -8q38 0 59 28t21 64q0 13 -3.5 28.5t-14 37.5t-30 35.5t-51 23t-77.5 -1.5l80 203q-106 2 -198.5 13t-149 26t-98.5 30t-59 25l-17 10v393h18q11 -46 36.5 -103.5t73 -125t106 -122t142 -91.5t175.5 -37q80 0 131.5 46
t61 112.5t-30.5 149t-128 147.5l-315 198q-218 136 -268.5 312t80.5 340q5 6 14.5 16.5t47 37.5t83.5 47t127.5 37t175.5 17q98 0 184 -9.5t138.5 -23.5t91.5 -28t55 -23l16 -10v-344h-18q-11 38 -21.5 70t-31.5 77t-45 80.5t-60.5 73t-79.5 62.5t-102 41t-127 16
q-65 0 -112.5 -26.5t-66 -71.5t-12 -98.5t51 -113.5t121.5 -110z" />
    <glyph glyph-name="scedilla" unicode="&#x15f;" horiz-adv-x="909" 
d="M641 571q90 -55 138.5 -143t43.5 -178.5t-61 -157.5q-3 -4 -10 -11.5t-33 -26.5t-58.5 -33.5t-90 -26.5t-124.5 -12h-36l-37 -101q137 30 211.5 -25.5t64.5 -150.5q-19 -160 -231 -160q-91 0 -142 45q-14 11 -21.5 32t-4.5 42q8 29 33.5 44.5t56.5 8.5q30 -6 46.5 -31
t10.5 -55q-12 -37 -37 -45q-11 -6 3.5 -14t44.5 -8q38 0 58.5 28t20.5 64q0 13 -3.5 28.5t-14 37.5t-30 35.5t-51 23t-77.5 -1.5l80 203q-94 4 -171 21t-108 33l-30 15v268h18q30 -137 134.5 -228t211.5 -91q53 0 86 28.5t39 69t-20 89t-82 85.5l-207 125q-145 95 -179 230
t60 239q3 4 9.5 10.5t32.5 24t58 30.5t88.5 23.5t121.5 10.5q105 0 188 -14.5t114 -28.5l31 -15v-209h-18q-13 66 -47.5 116t-80 77.5t-93 41t-94.5 13.5q-49 0 -83.5 -23t-43.5 -57.5t18 -80t90 -85.5z" />
    <glyph glyph-name="Scaron" unicode="&#x160;" horiz-adv-x="1263" 
d="M899 813q202 -133 253 -314.5t-65 -348.5q-2 -4 -7 -10t-23.5 -23.5t-41 -33t-61.5 -35t-84 -33.5t-110 -23.5t-137 -9.5q-111 0 -208.5 10.5t-157.5 26t-104.5 31t-62.5 26.5l-18 10v393h18q11 -46 36.5 -103.5t73 -125t106 -122t142 -91.5t175.5 -37q80 0 131.5 46
t61 112.5t-30.5 149t-128 147.5l-315 198q-218 136 -268.5 312t80.5 340q5 6 14.5 16.5t47 37.5t83.5 47t127.5 37t175.5 17q98 0 184 -9.5t138.5 -23.5t91.5 -28t55 -23l16 -10v-344h-18q-11 38 -21.5 70t-31.5 77t-45 80.5t-60.5 73t-79.5 62.5t-102 41t-127 16
q-65 0 -112.5 -26.5t-66 -71.5t-12 -98.5t51 -113.5t121.5 -110zM260 1901h84l254 -168l254 168h84l-338 -396z" />
    <glyph glyph-name="scaron" unicode="&#x161;" horiz-adv-x="911" 
d="M641 571q90 -55 138.5 -143t43.5 -178.5t-61 -157.5q-3 -4 -10 -11.5t-33 -26.5t-58.5 -33.5t-90 -26.5t-124.5 -12q-69 0 -132.5 7t-103.5 17t-70.5 20.5t-43.5 17.5l-14 7v268h18q30 -137 134.5 -228t211.5 -91q53 0 86 28.5t39 69t-20 89t-82 85.5l-207 125
q-145 95 -179 230t60 239q3 4 9.5 10.5t32.5 24t58 30.5t88.5 23.5t121.5 10.5q105 0 188 -14.5t114 -28.5l31 -15v-209h-18q-13 66 -47.5 116t-80 77.5t-93 41t-94.5 13.5q-49 0 -83.5 -23t-43.5 -57.5t18 -80t90 -85.5zM109 1401h84l253 -168l254 168h84l-338 -395z" />
    <glyph glyph-name="uni0162" unicode="&#x162;" horiz-adv-x="1544" 
d="M41 1442h1464v-461h-16q-3 68 -37.5 136t-88 122t-116.5 96t-126.5 65t-114.5 23h-23v-1192q0 -116 17.5 -164.5t74.5 -48.5v-18h-340l-43 -119q137 30 212 -25.5t65 -150.5q-19 -160 -232 -160q-90 0 -141 45q-14 11 -22 32t-5 42q8 29 33.5 44.5t56.5 8.5q30 -6 47 -31
t11 -55q-12 -37 -37 -45q-12 -6 4 -14q15 -8 43 -8q38 0 59 28t21 64q0 13 -3.5 28.5t-14 37.5t-30 35.5t-51 23t-77.5 -1.5l86 221h-246v18q57 0 74.5 48.5t17.5 164.5v1192h-22q-65 0 -147 -36.5t-155.5 -95t-125.5 -142.5t-56 -168h-16v461z" />
    <glyph glyph-name="uni0163" unicode="&#x163;" horiz-adv-x="817" 
d="M655 131q72 0 125 62l13 -9q-19 -84 -101.5 -143t-193.5 -59q-51 0 -109 10l-41 -111q137 30 212 -25.5t65 -150.5q-19 -160 -232 -160q-90 0 -141 45q-14 11 -22 32t-5 42q8 29 33.5 44.5t56.5 8.5q30 -6 47 -31t11 -55q-12 -37 -37 -45q-12 -6 4 -14q15 -8 43 -8
q38 0 59 28t21 64q0 13 -3.5 28.5t-14 37.5t-30 35.5t-51 23t-77.5 -1.5l86 217q-99 24 -160 97t-61 202v633h-129v18h129v275l344 43v-318h264v-18h-264v-627q0 -89 36 -129.5t123 -40.5z" />
    <glyph glyph-name="Tcaron" unicode="&#x164;" horiz-adv-x="1544" 
d="M41 1442h1464v-461h-16q-3 68 -37.5 136t-88 122t-116.5 96t-126.5 65t-114.5 23h-23v-1192q0 -116 17.5 -164.5t74.5 -48.5v-18h-604v18q57 0 74.5 48.5t17.5 164.5v1192h-22q-65 0 -147 -36.5t-155.5 -95t-125.5 -142.5t-56 -168h-16v461zM442 1901h84l254 -168
l254 168h84l-338 -396z" />
    <glyph glyph-name="tcaron" unicode="&#x165;" horiz-adv-x="944" 
d="M655 131q72 0 125 62l13 -9q-19 -84 -101.5 -143t-193.5 -59q-52 0 -98.5 8.5t-93 30.5t-80 56.5t-54 90t-20.5 127.5v633h-129v18h129v275l344 43v-318h264v-18h-264v-627q0 -89 36 -129.5t123 -40.5zM643 1442h248q0 -61 -18 -118.5t-47 -101t-64 -82t-70 -64.5
t-64 -45.5t-47 -28.5l-18 -9l-16 27q4 3 10.5 11t23 40.5t29 75.5t23 121.5t10.5 173.5z" />
    <glyph glyph-name="Uring" unicode="&#x16e;" horiz-adv-x="1509" 
d="M655 -18q261 0 401 129t140 338v532q0 57 6 111t24 116.5t47 108t79 76t116 30.5l-2 19h-536v-19q56 0 100.5 -30t71.5 -76.5t44.5 -107.5t24.5 -117t7 -111v-532q0 -150 -86 -247.5t-244 -97.5q-152 0 -237 84.5t-85 260.5v794v18q0 36 0.5 51.5t1.5 38t4.5 30.5t9 19
t15 14.5t22 6t31.5 2.5v19h-585v-19q57 0 69.5 -30t11.5 -119v-31v-780q0 -97 30.5 -178t82.5 -136t122.5 -93.5t149.5 -56t164 -17.5zM774 1884q-34 0 -57 -23t-23 -57t23 -58t57 -24t57 24t23 58t-23 57t-57 23zM774 2009q88 0 149.5 -59t61.5 -146q0 -86 -61.5 -147.5
t-149.5 -61.5q-86 0 -148.5 61.5t-62.5 147.5q0 87 62 146t149 59z" />
    <glyph glyph-name="uring" unicode="&#x16f;" 
d="M1114 182q0 -73 20 -97t85 -32v-16l-394 -53q-24 -4 -38.5 6t-16.5 22l-2 11v167q-13 -86 -89.5 -147t-197.5 -61q-52 0 -97 8.5t-89 31t-75.5 57t-50.5 90t-19 126.5v455q0 89 -8 109q-12 29 -62 40q-17 4 -45 8v17l467 41v-664q0 -90 29 -130t104 -40q107 0 133 115
v497q0 95 -5 114q-9 32 -50 43q-16 4 -41 7v17l442 41v-783zM621 1339q-34 0 -57 -22.5t-23 -56.5t23 -58t57 -24q33 0 56 24t23 58t-22.5 56.5t-56.5 22.5zM621 1464q88 0 149 -58.5t61 -145.5q0 -86 -61.5 -147.5t-148.5 -61.5q-86 0 -148.5 61.5t-62.5 147.5
q0 87 62 145.5t149 58.5z" />
    <glyph glyph-name="Uhungarumlaut" unicode="&#x170;" horiz-adv-x="1509" 
d="M1350 1839l331 -102l-622 -232h-168zM758 1839l332 -102l-623 -232h-168zM655 -18q261 0 401 129t140 338v532q0 57 6 111t24 116.5t47 108t79 76t116 30.5l-2 19h-536v-19q56 0 100.5 -30t71.5 -76.5t44.5 -107.5t24.5 -117t7 -111v-532q0 -150 -85.5 -247.5
t-244.5 -97.5q-152 0 -237 84.5t-85 260.5v794v18q0 36 0.5 51.5t1.5 38t4.5 30.5t9 19t15 14.5t22 6t31.5 2.5v19h-585v-19q57 0 69.5 -30t11.5 -119v-31v-780q0 -97 30.5 -178t82.5 -136t122.5 -93.5t149.5 -56t164 -17.5z" />
    <glyph glyph-name="uhungarumlaut" unicode="&#x171;" 
d="M104 1108l459 334l332 -103l-623 -231h-168zM696 1108l459 334l332 -103l-623 -231h-168zM1114 182q0 -73 20 -97t85 -32v-16l-394 -53q-24 -4 -38.5 6t-16.5 22l-2 11v167q-13 -86 -89.5 -147t-197.5 -61q-52 0 -97 8.5t-89 31t-75.5 57t-50.5 90t-19 126.5v455
q0 89 -8 109q-12 29 -62 40q-17 4 -45 8v17l467 41v-664q0 -90 29 -130t104 -40q107 0 133 115v497q0 95 -5 114q-9 32 -50 43q-16 4 -41 7v17l442 41v-783z" />
    <glyph glyph-name="Ydieresis" unicode="&#x178;" horiz-adv-x="1591" 
d="M969 686q102 203 159 328q15 32 26.5 80.5t11.5 106.5t-15.5 107.5t-61 83t-116.5 33.5v17h594v-17q-99 0 -208 -104t-214 -315l-166 -336v-439q0 -17 -0.5 -43.5t-0.5 -40t0.5 -33t2 -29.5t5 -23.5t8.5 -19.5t13 -12.5t19 -9t25 -2.5v-18h-551v18q37 0 54 23t19.5 50
t1.5 98v42v334l-399 701q-44 77 -70.5 110.5t-41 40t-46.5 10.5v15h617v-15h-1h-1h-1q-50 0 -58 -11q-16 -20 39 -122q21 -39 57 -100zM737 1706q0 -60 -42 -102.5t-99 -42.5q-60 0 -102.5 42.5t-42.5 102.5q0 58 42.5 99.5t102.5 41.5q57 0 99 -41.5t42 -99.5zM1122 1706
q0 -60 -42 -102.5t-99 -42.5q-60 0 -102.5 42.5t-42.5 102.5q0 58 42.5 99.5t102.5 41.5q57 0 99 -41.5t42 -99.5z" />
    <glyph glyph-name="Zacute" unicode="&#x179;" horiz-adv-x="1406" 
d="M1303 1442l-728 -1424h21q124 0 219 13t177.5 44.5t138.5 83.5t92.5 131.5t48.5 186.5h16l-31 -477h-1206l783 1423h-97q-266 0 -431.5 -105.5t-190.5 -289.5h-17l27 414h1178zM406 1505l458 334l332 -102l-623 -232h-167z" />
    <glyph glyph-name="zacute" unicode="&#x17a;" horiz-adv-x="1083" 
d="M207 1108l459 334l331 -103l-622 -231h-168zM1010 946l-496 -928q87 0 160.5 23.5t118.5 55.5t80.5 76t51.5 75t27 63h17l-19 -311h-891l529 928q-192 0 -303 -70t-150 -182h-16l10 270h881z" />
    <glyph glyph-name="Zdotaccent" unicode="&#x17b;" horiz-adv-x="1406" 
d="M909 1735q0 -60 -42 -103t-99 -43q-60 0 -102.5 43t-42.5 103q0 58 42.5 99.5t102.5 41.5q57 0 99 -41.5t42 -99.5zM1303 1442l-728 -1424h21q124 0 219 13t177.5 44.5t138.5 83.5t92.5 131.5t48.5 186.5h16l-31 -477h-1206l783 1423h-97q-266 0 -431.5 -105.5
t-190.5 -289.5h-17l27 414h1178z" />
    <glyph glyph-name="zdotaccent" unicode="&#x17c;" horiz-adv-x="1083" 
d="M1010 946l-496 -928q87 0 160.5 23.5t118.5 55.5t80.5 76t51.5 75t27 63h17l-19 -311h-891l529 928q-192 0 -303 -70t-150 -182h-16l10 270h881zM725 1241q0 -60 -42 -102.5t-99 -42.5q-60 0 -103 42.5t-43 102.5q0 58 43 99.5t103 41.5q57 0 99 -41.5t42 -99.5z" />
    <glyph glyph-name="Zcaron" unicode="&#x17d;" horiz-adv-x="1406" 
d="M1303 1442l-728 -1424h21q124 0 219 13t177.5 44.5t138.5 83.5t92.5 131.5t48.5 186.5h16l-31 -477h-1206l783 1423h-97q-266 0 -431.5 -105.5t-190.5 -289.5h-17l27 414h1178zM367 1901h84l254 -168l253 168h84l-337 -396z" />
    <glyph glyph-name="zcaron" unicode="&#x17e;" horiz-adv-x="1083" 
d="M238 1401h84l253 -168l254 168h84l-338 -395zM1010 946l-496 -928q87 0 160.5 23.5t118.5 55.5t80.5 76t51.5 75t27 63h17l-19 -311h-891l529 928q-192 0 -303 -70t-150 -182h-16l10 270h881z" />
    <glyph glyph-name="florin" unicode="&#x192;" horiz-adv-x="1538" 
d="M1436 1401q21 -31 24 -77t-14 -83q-26 -52 -82 -71t-107 6q-54 26 -73.5 81.5t8.5 108.5q26 57 80 72q11 3 10 18q-3 28 -57 32l-17 1q-43 0 -80 -48.5t-60 -117.5t-40 -137.5t-24 -117.5l-7 -48l-32 -252h262l-4 -18h-260l-76 -549q-48 -362 -192.5 -526t-385.5 -164
q-85 0 -147.5 34t-87.5 74q-21 33 -24.5 78t13.5 82q28 54 83.5 73t107.5 -6q53 -28 71.5 -83t-8.5 -109q-27 -58 -75 -70q-13 -3 -12 -19q2 -28 50 -36l33 -2q41 0 77 48t58.5 116.5t39 137.5t23.5 117l7 48l98 756h-235l4 18h233q30 170 72.5 297t95 211t120 135
t140.5 72.5t164 21.5q70 0 137.5 -34t88.5 -70z" />
    <glyph glyph-name="uni0218" unicode="&#x218;" horiz-adv-x="1261" 
d="M899 813q202 -133 253 -314.5t-65 -348.5q-2 -4 -7 -10t-23.5 -23.5t-41 -33t-61.5 -35t-84 -33.5t-110 -23.5t-137 -9.5q-111 0 -208.5 10.5t-157.5 26t-104.5 31t-62.5 26.5l-18 10v393h18q11 -46 36.5 -103.5t73 -125t106 -122t142 -91.5t175.5 -37q80 0 131.5 46
t61 112.5t-30.5 149t-128 147.5l-315 198q-218 136 -268.5 312t80.5 340q5 6 14.5 16.5t47 37.5t83.5 47t127.5 37t175.5 17q98 0 184 -9.5t138.5 -23.5t91.5 -28t55 -23l16 -10v-344h-18q-11 38 -21.5 70t-31.5 77t-45 80.5t-60.5 73t-79.5 62.5t-102 41t-127 16
q-65 0 -112.5 -26.5t-66 -71.5t-12 -98.5t51 -113.5t121.5 -110zM768 -121q45 -45 55.5 -109.5t-9 -130t-45.5 -118t-58 -96.5q-23 -36 -74 -80.5t-119 -83.5l-14 20q51 41 86 99t37 92.5t-13 44.5q-88 7 -143 59q-63 63 -63.5 151t61.5 152q63 61 150 61t149 -61z" />
    <glyph glyph-name="uni0219" unicode="&#x219;" horiz-adv-x="909" 
d="M641 571q90 -55 138.5 -143t43.5 -178.5t-61 -157.5q-3 -4 -10 -11.5t-33 -26.5t-58.5 -33.5t-90 -26.5t-124.5 -12q-69 0 -132.5 7t-103.5 17t-70.5 20.5t-43.5 17.5l-14 7v268h18q30 -137 134.5 -228t211.5 -91q53 0 86 28.5t39 69t-20 89t-82 85.5l-207 125
q-145 95 -179 230t60 239q3 4 9.5 10.5t32.5 24t58 30.5t88.5 23.5t121.5 10.5q105 0 188 -14.5t114 -28.5l31 -15v-209h-18q-13 66 -47.5 116t-80 77.5t-93 41t-94.5 13.5q-49 0 -83.5 -23t-43.5 -57.5t18 -80t90 -85.5zM592 -121q45 -45 55.5 -109.5t-9 -130t-45.5 -118
t-58 -96.5q-23 -36 -74 -80.5t-119 -83.5l-14 20q51 41 86 99t37 92.5t-13 44.5q-88 7 -143 59q-63 63 -63.5 151t61.5 152q63 61 150 61t149 -61z" />
    <glyph glyph-name="uni021A" unicode="&#x21a;" horiz-adv-x="1560" 
d="M918 -121q45 -45 55.5 -109.5t-9.5 -130t-46 -118t-58 -96.5q-24 -37 -74 -81t-118 -83l-15 20q51 41 86 99t37 92.5t-12 44.5q-88 7 -143 59q-63 63 -64 151t61 152q63 61 150.5 61t149.5 -61zM41 1442h1464v-461h-16q-3 68 -37.5 136t-88 122t-116.5 96t-126.5 65
t-114.5 23h-23v-1192q0 -116 17.5 -164.5t74.5 -48.5v-18h-604v18q57 0 74.5 48.5t17.5 164.5v1192h-22q-65 0 -147 -36.5t-155.5 -95t-125.5 -142.5t-56 -168h-16v461z" />
    <glyph glyph-name="uni021B" unicode="&#x21b;" horiz-adv-x="817" 
d="M618 -121q45 -45 55.5 -109.5t-9 -130t-45.5 -118t-58 -96.5q-24 -37 -74 -81t-118 -83l-15 20q51 41 86 99t37 92.5t-12 44.5q-88 7 -143 59q-63 63 -64 151t61 152q63 61 150 61t149 -61zM655 131q72 0 125 62l13 -9q-19 -84 -101.5 -143t-193.5 -59q-52 0 -98.5 8.5
t-93 30.5t-80 56.5t-54 90t-20.5 127.5v633h-129v18h129v275l344 43v-318h264v-18h-264v-627q0 -89 36 -129.5t123 -40.5z" />
    <glyph glyph-name="circumflex" unicode="&#x2c6;" horiz-adv-x="675" 
d="M676 1087h-84l-254 168l-254 -168h-84l338 396z" />
    <glyph glyph-name="caron" unicode="&#x2c7;" horiz-adv-x="675" 
d="M0 1475h84l254 -168l254 168h84l-338 -396z" />
    <glyph glyph-name="uni02C9" unicode="&#x2c9;" horiz-adv-x="675" 
d="M-51 1374h727v-205h-727v205z" />
    <glyph glyph-name="breve" unicode="&#x2d8;" horiz-adv-x="546" 
d="M276 1323q149 0 209 29.5t60 89.5h4q0 -145 -66.5 -229.5t-206.5 -84.5q-143 0 -210.5 84.5t-67.5 229.5h6q0 -61 59.5 -90t212.5 -29z" />
    <glyph glyph-name="dotaccent" unicode="&#x2d9;" horiz-adv-x="575" 
d="M442 1323q0 -60 -42 -102.5t-99 -42.5q-60 0 -102.5 42.5t-42.5 102.5q0 58 42.5 99.5t102.5 41.5q57 0 99 -41.5t42 -99.5z" />
    <glyph glyph-name="ring" unicode="&#x2da;" horiz-adv-x="569" 
d="M289 1384q-34 0 -57 -22.5t-23 -56.5t23 -58t57 -24t57 24t23 58t-23 56.5t-57 22.5zM289 1509q88 0 149.5 -58.5t61.5 -145.5q0 -86 -61.5 -147.5t-149.5 -61.5q-86 0 -148.5 61.5t-62.5 147.5q0 87 62 145.5t149 58.5z" />
    <glyph glyph-name="ogonek" unicode="&#x2db;" horiz-adv-x="569" 
d="M506 -45q-71 -39 -98.5 -86t-16.5 -94q9 -35 32 -52.5t41 -17.5h19q3 0 7.5 0.5t15.5 3t20 6.5t16 12t7 19h20q0 -24 -1.5 -41t-8.5 -41t-19.5 -40.5t-37 -31.5t-58.5 -22q-54 -8 -97 0.5t-66 26.5t-38 37.5t-19 33.5l-5 15q-58 221 287 317v-45z" />
    <glyph glyph-name="tilde" unicode="&#x2dc;" horiz-adv-x="978" 
d="M580 1083l-244 97q-32 13 -80 24.5t-109 19.5t-112 -6t-70 -53l-8 2q35 81 78 140t84 89t83 47.5t77 18.5t62 -1t43 -7l15 -6l244 -94q31 -14 80.5 -26.5t109.5 -20t111.5 7t71.5 53.5l8 -2q-36 -77 -79.5 -134t-85 -87t-83 -48.5t-76.5 -21t-62 -2t-42 4.5z" />
    <glyph glyph-name="hungarumlaut" unicode="&#x2dd;" horiz-adv-x="1619" 
d="M178 1143l459 334l332 -103l-623 -231h-168zM770 1143l459 334l332 -103l-623 -231h-168z" />
    <glyph glyph-name="uni03A9" unicode="&#x3a9;" horiz-adv-x="1572" 
d="M1493 399h16l-84 -399h-551q13 57 33 153t53 338.5t33 419.5q0 239 -22 364.5t-65 169.5t-124 44q-80 0 -123 -44t-64.5 -169.5t-21.5 -364.5q0 -112 12.5 -247t29.5 -247.5t34.5 -209.5t30.5 -152l12 -55h-551l-84 399h17q30 -57 87 -85.5t113 -28.5h324q0 4 -3 10.5
t-23 24t-54 32.5q-51 20 -103 54t-104 86.5t-91.5 115t-64 144.5t-24.5 170q0 145 48.5 257.5t136.5 183.5t206 107.5t260 36.5t260.5 -36.5t207 -107.5t137.5 -183.5t49 -257.5q0 -88 -24.5 -170t-64 -144.5t-91 -115t-103 -86.5t-102.5 -54q-34 -15 -54 -31.5t-23 -26.5
l-3 -9h321q56 0 113.5 28.5t87.5 85.5z" />
    <glyph glyph-name="uni03BC" unicode="&#x3bc;" horiz-adv-x="1265" 
d="M1118 182q0 -74 21 -98.5t86 -30.5v-18l-396 -51q-24 -4 -38.5 5.5t-16.5 21.5l-2 12v182q-12 -61 -46.5 -107.5t-77 -70t-79.5 -34.5t-65 -11v-322q0 -75 20.5 -100t85.5 -31v-16l-413 -54q-26 -4 -41 5.5t-17 21.5l-2 12v1245q0 95 -5 114q-9 32 -50 43q-16 4 -41 7v17
l463 41v-662q0 -92 32 -131t119 -39q43 0 74.5 36.5t42.5 96.5v477q0 95 -5 114q-9 32 -50 43q-16 4 -41 7v17l442 41v-783z" />
    <glyph glyph-name="pi" unicode="&#x3c0;" horiz-adv-x="1249" 
d="M1126 133l13 -10q-17 -50 -72.5 -95.5t-136.5 -45.5q-64 0 -109.5 21t-65.5 50.5t-30.5 59t-10.5 50.5l-1 21v533h-178l-23 -359q-2 -65 -23.5 -124t-49 -100t-70 -79t-73 -59.5t-73 -42t-53.5 -25t-31 -11.5l-2 -1l-10 14q164 126 180 441l23 344q-5 0 -33.5 -0.5
t-34 -0.5t-30 -1.5t-31.5 -3.5t-28 -6t-30 -9.5t-26 -13.5t-28.5 -18.5t-26 -24.5t-27.5 -31l-19 8q1 8 2.5 21t11 51.5t23 73.5t40.5 77.5t61 73t87.5 51.5t116.5 21h578q63 0 101 3t74.5 12.5t55.5 29.5t23 53h18q0 -47 -0.5 -75.5t-5 -72t-12.5 -70t-23.5 -57.5
t-37.5 -48t-55.5 -29t-76.5 -12v-481q0 -39 8 -67.5t19 -41t22 -19.5t19 -8h8q17 0 30.5 8t18.5 16z" />
    <glyph glyph-name="uni2010" unicode="&#x2010;" horiz-adv-x="915" 
d="M776 385h-645v272h645v-272z" />
    <glyph glyph-name="endash" unicode="&#x2013;" horiz-adv-x="1148" 
d="M0 627h1149v-221h-1149v221z" />
    <glyph glyph-name="emdash" unicode="&#x2014;" horiz-adv-x="2160" 
d="M0 627h2161v-221h-2161v221z" />
    <glyph glyph-name="quoteleft" unicode="&#x2018;" horiz-adv-x="602" 
d="M166 889q-45 45 -55.5 109.5t9 130t45.5 118t58 96.5q23 36 74 80.5t119 83.5l14 -20q-51 -41 -86 -99t-37 -92.5t12 -44.5q89 -7 144 -59q63 -63 63.5 -151t-61.5 -152q-63 -61 -150 -61t-149 61z" />
    <glyph glyph-name="quoteright" unicode="&#x2019;" horiz-adv-x="630" 
d="M477 1444q45 -45 55.5 -109.5t-9 -130t-45.5 -118.5t-58 -97q-23 -36 -74 -80.5t-119 -83.5l-14 21q51 41 86 99t37 92t-12 44q-88 7 -144 60q-63 63 -63.5 151t61.5 152q63 62 150.5 62t148.5 -62z" />
    <glyph glyph-name="quotesinglbase" unicode="&#x201a;" horiz-adv-x="647" 
d="M473 348q45 -45 55.5 -109.5t-9 -130t-45.5 -118t-58 -96.5q-23 -36 -74 -80.5t-119 -83.5l-14 20q51 41 86 99t37 92.5t-13 44.5q-88 7 -143 59q-63 63 -63.5 151t61.5 152q63 62 150.5 62t148.5 -62z" />
    <glyph glyph-name="quotedblleft" unicode="&#x201c;" horiz-adv-x="1218" 
d="M166 889q-45 45 -55.5 109.5t9 130t45.5 118t58 96.5q23 36 74 80.5t119 83.5l14 -20q-51 -41 -86 -99t-37 -92.5t12 -44.5q89 -7 144 -59q63 -63 63.5 -151t-61.5 -152q-63 -61 -150 -61t-149 61zM733 889q-45 45 -55.5 109.5t9.5 130t46 118t58 96.5q24 37 74 81
t118 83l14 -20q-51 -41 -86 -99t-37 -92.5t13 -44.5q88 -7 143 -59q63 -63 63.5 -151t-61.5 -152q-63 -61 -150.5 -61t-148.5 61z" />
    <glyph glyph-name="quotedblright" unicode="&#x201d;" horiz-adv-x="1216" 
d="M1042 1444q45 -45 55.5 -109.5t-9 -130t-45.5 -118.5t-58 -97q-24 -37 -74 -81t-118 -83l-15 21q51 41 86 99t37 92t-12 44q-88 7 -144 60q-63 63 -63.5 151t61.5 152q63 62 150 62t149 -62zM475 1444q45 -45 55.5 -109.5t-9 -130t-45.5 -118.5t-58 -97
q-23 -36 -74 -80.5t-119 -83.5l-14 21q51 41 86 99t37 92t-12 44q-88 7 -144 60q-63 63 -63.5 151t61.5 152q63 62 150.5 62t148.5 -62z" />
    <glyph glyph-name="quotedblbase" unicode="&#x201e;" horiz-adv-x="1196" 
d="M1036 346q45 -45 55.5 -109.5t-9 -130t-45.5 -118.5t-58 -97q-54 -83 -193 -163l-14 20q51 41 86 99t37 92.5t-12 44.5q-89 7 -144 59q-63 63 -63.5 151t61.5 152q63 62 150 62t149 -62zM469 346q45 -45 55.5 -109.5t-9 -130t-45.5 -118.5t-58 -97q-54 -83 -193 -163
l-14 20q51 41 86 99t37 92.5t-13 44.5q-88 7 -143 59q-63 63 -63.5 151t61.5 152q63 62 150.5 62t148.5 -62z" />
    <glyph glyph-name="dagger" unicode="&#x2020;" horiz-adv-x="956" 
d="M61 965q27 28 71 30t81.5 -13t69.5 -38q48 -31 92 -104l-13 -9q-14 18 -32.5 32.5t-35 22t-31.5 12t-24 3.5t-10 -6q-3 -41 -28 -66q-28 -31 -68.5 -31t-71.5 29q-28 30 -28.5 70t28.5 68zM893 965q29 -28 29 -68.5t-29 -69.5t-69.5 -29t-69.5 31q-26 26 -29 66
q-1 5 -10 6t-24 -3.5t-32 -12t-36 -22t-33 -32.5l-15 9q42 70 99 104q32 23 69 38t80 13t70 -30zM592 1436q0 -47 -34.5 -81t-80.5 -34q-47 0 -81 34t-34 81q0 46 34 79t81 33q46 0 80.5 -33.5t34.5 -78.5zM489 825q0 -62 19 -96.5t108 -140.5q-45 -233 -78 -515.5
t-43 -448.5l-10 -167h-18q-1 25 -3.5 69t-12.5 177t-23.5 262t-37 302.5t-52.5 320.5q90 107 108.5 140.5t18.5 96.5q0 55 -37 141t-37 140v14.5t4 32.5t12 41t26 32.5t44 14.5t44.5 -14t26.5 -33.5t12 -39.5t4 -34l-1 -14q0 -54 -37 -138.5t-37 -142.5z" />
    <glyph glyph-name="daggerdbl" unicode="&#x2021;" horiz-adv-x="1210" 
d="M264 793q-35 -35 -85 -35t-87 35q-35 35 -35 85t35 85q33 34 86 35.5t98 -16.5t86 -46q61 -40 113 -127l-14 -10q-28 35 -68.5 57.5t-64 23.5t-29.5 -6q-3 -49 -35 -81zM907 874q-1 6 -12 7.5t-30 -3.5t-40 -14t-44.5 -26t-41.5 -39l-10 10q48 85 113 127q40 28 84.5 46
t98 16.5t87.5 -35.5q35 -35 35 -85t-35 -85q-37 -35 -87 -35t-85 35q-33 33 -33 81zM602 1262q-59 0 -100 40.5t-41 98.5q0 59 41.5 100t99.5 41q57 0 98 -41.5t41 -99.5t-41 -98.5t-98 -40.5zM754 504q-38 -27 -66.5 -58.5t-41.5 -57.5t-20.5 -48t-8.5 -34l-1 -13
q0 -67 43 -144.5t43 -144.5q-2 -1 0 -16t-3.5 -38.5t-14 -45.5t-30 -38t-52.5 -16q-48 0 -73.5 38.5t-26.5 77.5l-2 38q0 44 13.5 81.5t29.5 60t29.5 61.5t13.5 86q0 5 -1 13t-8.5 33t-21 49.5t-42 56.5t-67.5 59q39 24 67.5 54.5t42 57t21 50t8.5 37.5l1 14
q0 44 -13.5 81.5t-29.5 61.5t-29.5 62.5t-13.5 83.5v16.5t4.5 37t14 46.5t31 36.5t52.5 16.5q48 0 73 -38.5t26 -76.5l1 -38q0 -45 -13.5 -82.5t-29.5 -60.5t-29.5 -61.5t-13.5 -84.5q0 -5 1 -14.5t8.5 -36t20.5 -51.5t41.5 -56t66.5 -55zM1112 227q35 -35 35 -85t-35 -85
q-34 -34 -87.5 -35.5t-97.5 16t-85 44.5q-23 18 -36.5 30.5t-36.5 40.5t-40 60l10 8q18 -22 41.5 -39.5t44.5 -27t40 -14t30 -3.5t12 6q0 48 33 84q35 37 85 37t87 -37zM299 143q5 -6 28.5 -5t64.5 24t69 59l14 -8q-40 -72 -113 -131q-42 -27 -86.5 -44.5t-97.5 -16
t-86 35.5q-35 35 -35 85t35 85q35 37 86 37t86 -37q32 -35 35 -84zM602 -248q57 0 98 -41t41 -98q0 -59 -40.5 -100t-98.5 -41q-59 0 -100 40.5t-41 100.5q0 57 41.5 98t99.5 41z" />
    <glyph glyph-name="bullet" unicode="&#x2022;" horiz-adv-x="1071" 
d="M549 401q-122 0 -208.5 86t-86.5 209q0 124 86.5 210.5t208.5 86.5q125 0 212 -86.5t87 -210.5q0 -123 -87 -209t-212 -86z" />
    <glyph glyph-name="ellipsis" unicode="&#x2026;" horiz-adv-x="2015" 
d="M598 193q0 -89 -61 -150t-148 -61q-89 0 -151 61t-62 150q0 88 62 150.5t151 62.5q86 0 147.5 -62.5t61.5 -150.5zM1188 193q0 -89 -61 -150t-148 -61q-89 0 -151 61t-62 150q0 88 62 150.5t151 62.5q86 0 147.5 -62.5t61.5 -150.5zM1821 193q0 -89 -61 -150t-148 -61
q-89 0 -151 61t-62 150q0 88 62 150.5t151 62.5q86 0 147.5 -62.5t61.5 -150.5z" />
    <glyph glyph-name="perthousand" unicode="&#x2030;" horiz-adv-x="2650" 
d="M383 1391q114 0 194 -52.5t116 -135t36 -187.5q0 -159 -88.5 -260t-257.5 -101q-171 0 -259.5 101t-88.5 260q0 162 89 268.5t259 106.5zM383 674q25 0 41 5t28 22.5t18 38t9.5 65t4.5 88.5t1 123q0 220 -17.5 288t-84.5 68q-69 0 -86.5 -67t-17.5 -289q0 -216 17.5 -279
t86.5 -63zM1405 786q114 0 194 -51.5t117 -134t37 -186.5q0 -160 -89 -260.5t-259 -100.5q-171 0 -259.5 100t-88.5 261q0 162 89 267t259 105zM1405 72q70 0 86 60t16 282q0 218 -17.5 286t-84.5 68q-69 0 -87 -67t-18 -287q0 -76 1 -123.5t5.5 -89.5t11 -64t18.5 -38.5
t28.5 -21.5t40.5 -5zM1366 1442h205l-1129 -1442h-202zM2200 786q114 0 194 -51.5t117 -134t37 -186.5q0 -160 -89 -260.5t-259 -100.5q-171 0 -260 100.5t-89 260.5q0 162 89.5 267t259.5 105zM2200 72q70 0 86 60t16 282q0 218 -17.5 286t-84.5 68q-69 0 -87 -67t-18 -287
q0 -76 1 -123.5t5.5 -89.5t11 -64t18.5 -38.5t28.5 -21.5t40.5 -5z" />
    <glyph glyph-name="guilsinglleft" unicode="&#x2039;" horiz-adv-x="788" 
d="M686 1034v-100l-242 -389l242 -377v-100l-586 477z" />
    <glyph glyph-name="guilsinglright" unicode="&#x203a;" horiz-adv-x="788" 
d="M100 934v100l586 -489l-586 -477v100l242 377z" />
    <glyph glyph-name="fraction" unicode="&#x2044;" horiz-adv-x="808" 
d="M938 1503h195l-1239 -1503h-193z" />
    <glyph glyph-name="Euro" unicode="&#x20ac;" horiz-adv-x="1361" 
d="M1247 389h17l20 -311q-31 -21 -51 -32t-64 -29t-104.5 -26.5t-136.5 -8.5q-300 0 -476 164.5t-204 463.5h-219l8 19h211q-4 31 -4 92q0 63 4 94h-219l8 19h211q29 298 205 462t475 164q43 0 79.5 -1.5t66.5 -6t52.5 -8t43 -11.5t32.5 -11.5t27 -14t20 -13.5t19 -14.5
t16 -13.5l-20 -311h-17q-11 77 -27.5 137.5t-34 101t-42.5 69t-46.5 43.5t-53 23.5t-55.5 10.5t-60 2q-40 0 -70.5 -6t-54.5 -23t-40.5 -38.5t-28.5 -60.5t-19 -80t-11.5 -107t-6 -131t-1.5 -162h383l-10 -19h-373v-94v-92h351l-11 -19h-340q0 -96 2 -162.5t6 -132
t11.5 -107t19.5 -80.5t29 -60.5t41 -38t53.5 -23t69.5 -6.5q44 0 77.5 6.5t72.5 29.5t68 63.5t56 114t45 175.5z" />
    <glyph glyph-name="afii61289" unicode="&#x2113;" horiz-adv-x="790" 
d="M727 205l18 -12q4 -96 -71.5 -153.5t-173.5 -57.5q-61 0 -106 9t-88.5 35t-71 70t-44 117t-16.5 174v74l-129 -99v148l129 96v420q0 79 11.5 147.5t32.5 119t48.5 91.5t60 66.5t67.5 42t70.5 20t68.5 -2.5t63 -22t53 -40q45 -53 68 -136t20 -180.5t-45.5 -207
t-122.5 -201.5l-82 -96l-4 -252q0 -158 31 -217.5t113 -59.5q37 0 68.5 25.5t31.5 81.5zM489 1030v-229l54 51q59 57 96.5 117t53.5 109.5t17 103t-5.5 89t-22.5 75t-24 53.5t-19 33q-9 16 -31 26q-58 26 -89 -88q-30 -109 -30 -340z" />
    <glyph glyph-name="trademark" unicode="&#x2122;" horiz-adv-x="1546" 
d="M25 1442h600v-176h-19q-2 44 -24 77.5t-52.5 49.5t-56 23t-43.5 7h-20v-465q0 -34 1.5 -49t9.5 -26t25 -11v-18h-245v18q24 0 30.5 18.5t6.5 67.5v465h-21q-19 0 -44.5 -7t-55 -23t-51 -49.5t-23.5 -77.5h-18v176zM1145 1059l145 383h205v-19q-29 0 -34 -11t-5 -54v-426
q0 -42 7.5 -51t39.5 -9v-18h-256v18q31 0 37 8.5t6 51.5v452l-198 -536h-25l-266 498v-271q0 -203 123 -203v-18h-260v18q62 0 90 56t28 147v295q-14 25 -28 37t-23 14t-24 2v19h237z" />
    <glyph glyph-name="Omega" unicode="&#x2126;" horiz-adv-x="1572" 
d="M1493 399h16l-84 -399h-551q13 57 33 153t53 338.5t33 419.5q0 239 -22 364.5t-65 169.5t-124 44q-80 0 -123 -44t-64.5 -169.5t-21.5 -364.5q0 -112 12.5 -247t29.5 -247.5t34.5 -209.5t30.5 -152l12 -55h-551l-84 399h17q30 -57 87 -85.5t113 -28.5h324q0 4 -3 10.5
t-23 24t-54 32.5q-51 20 -103 54t-104 86.5t-91.5 115t-64 144.5t-24.5 170q0 145 48.5 257.5t136.5 183.5t206 107.5t260 36.5t260.5 -36.5t207 -107.5t137.5 -183.5t49 -257.5q0 -88 -24.5 -170t-64 -144.5t-91 -115t-103 -86.5t-102.5 -54q-34 -15 -54 -31.5t-23 -26.5
l-3 -9h321q56 0 113.5 28.5t87.5 85.5z" />
    <glyph glyph-name="estimated" unicode="&#x212e;" horiz-adv-x="1826" 
d="M1358 1341q-205 121 -449 121q-241 0 -440 -116v-560h889v555zM1755 752h-1286v-596q201 -117 440 -117q178 0 336 65.5t271 180.5h57q-120 -133 -293.5 -210t-370.5 -77q-230 0 -424.5 101t-308 274.5t-113.5 378.5q0 153 67 292t180.5 239.5t270 160t328.5 59.5
t328.5 -59.5t270 -160t180.5 -239.5t67 -292z" />
    <glyph glyph-name="partialdiff" unicode="&#x2202;" horiz-adv-x="1271" 
d="M580 1524q143 0 262 -60.5t201 -169.5t120.5 -270t22.5 -354q-27 -328 -179 -508t-427 -180q-159 0 -274 53.5t-175 166t-47 273.5q6 74 24 139t53.5 125t85 103t123.5 68.5t165 25.5q38 0 78 -10t81 -30.5t73 -59.5t46 -91q15 221 9 367t-40 233.5t-82.5 123.5
t-119.5 36q-64 0 -136.5 -54.5t-121.5 -135.5t-48 -152l-10 -2l-125 205q135 158 441 158zM580 0q99 0 147 160.5t82 544.5q-34 79 -69 110t-83 31q-166 0 -204 -424q-21 -256 1.5 -339t125.5 -83z" />
    <glyph glyph-name="Delta" unicode="&#x2206;" horiz-adv-x="1474" 
d="M805 1511l584 -1445l-31 -66h-1280l-12 53l2 4l569 1418zM174 90h838l-420 989z" />
    <glyph glyph-name="product" unicode="&#x220f;" horiz-adv-x="1761" 
d="M1698 1423q-156 0 -156 -202v-1137q0 -117 41 -178.5t115 -61.5v-18h-727v18q74 0 114.5 61.5t40.5 178.5v1069q0 109 -19 169.5t-50.5 80.5t-85.5 20h-193q-39 0 -65.5 -11t-47.5 -39.5t-30.5 -82.5t-9.5 -137v-1069q0 -117 40 -178.5t113 -61.5v-18h-725v18
q74 0 114 61t40 179v1137q0 104 -38 153t-116 49v19h1645v-19z" />
    <glyph glyph-name="summation" unicode="&#x2211;" horiz-adv-x="1480" 
d="M537 1423l417 -727l-516 -876q133 0 254 21.5t211 57t168.5 83t132 96t96 100.5t65.5 92t36 74h22l-55 -545h-1202l395 693l-518 950h1300l46 -473h-27q-40 116 -168.5 221t-305.5 169t-351 64z" />
    <glyph glyph-name="minus" unicode="&#x2212;" horiz-adv-x="1282" 
d="M1190 385h-1092v272h1092v-272z" />
    <glyph glyph-name="uni2215" unicode="&#x2215;" horiz-adv-x="829" 
d="M938 1503h195l-1239 -1503h-193z" />
    <glyph glyph-name="uni2219" unicode="&#x2219;" horiz-adv-x="604" 
d="M457 610q0 -62 -43.5 -104.5t-106.5 -42.5q-61 0 -104 42.5t-43 104.5t43 106t104 44q63 0 106.5 -44t43.5 -106z" />
    <glyph glyph-name="radical" unicode="&#x221a;" horiz-adv-x="1329" 
d="M895 160l281 1616l110 -31l-358 -2052l-230 -74l-385 875q-36 84 -96 133t-117 28l-6 15l500 188z" />
    <glyph glyph-name="infinity" unicode="&#x221e;" horiz-adv-x="1757" 
d="M1528 858q117 -117 117 -282.5t-117 -280.5v-2q-117 -117 -283 -117t-280 117l-91 90l-90 -90q-117 -117 -282 -117q-167 0 -281 117q-117 117 -117.5 281.5t115.5 281.5l2 2q117 117 281 117q162 0 282 -117l90 -90l91 90q117 117 280 117t283 -117zM414 666
q-38 -37 -38 -90.5t38 -90.5q33 -36 88 -36q54 0 90 36l90 90l-90 91q-39 36 -90 36q-52 0 -88 -36zM1155 666l-88 -91l90 -90q33 -36 88 -36q54 0 90 36q37 37 37 90.5t-37 90.5q-39 36 -90 36t-90 -36z" />
    <glyph glyph-name="integral" unicode="&#x222b;" horiz-adv-x="884" 
d="M807 1624q23 -26 28.5 -67.5t-8.5 -73.5q-19 -50 -67.5 -71t-95.5 1q-49 17 -70 64.5t-2 97.5q24 56 65 67q14 7 2 19q-16 14 -57 14l-18 -5q-68 -33 -82 -196q-8 -95 4 -225l123 -903q18 -136 15 -243.5t-15 -189t-40 -140.5t-60.5 -98t-77 -62.5t-89 -33t-96.5 -9.5
q-139 0 -194 72q-20 28 -26.5 68t5.5 73q19 51 67 72.5t95 -0.5q51 -19 72.5 -67t1.5 -95q-19 -56 -66 -70q-13 -5 -6 -20q11 -21 53 -21l18 5q67 31 81 191q8 96 -5 232l-122 901q-18 150 -18 266t24 202.5t58.5 146t84 96t102 52.5t111.5 16q75 0 125 -14.5t80 -51.5z" />
    <glyph glyph-name="approxequal" unicode="&#x2248;" horiz-adv-x="1189" 
d="M684 582l-244 96q-33 13 -80.5 25t-108 20t-111.5 -6t-70 -53l-9 2q35 81 78 140t84.5 88.5t83 47t76.5 19t62.5 -1t42.5 -7.5l16 -6l244 -94q31 -14 80.5 -26.5t109 -20t111 7t71.5 53.5l8 -2q-36 -77 -79.5 -134t-85 -87t-83 -48t-76.5 -21t-62 -2t-42 6zM684 197
l-244 96q-33 13 -80.5 25t-108 20t-111.5 -6t-70 -53l-9 2q35 81 78 140t84.5 88.5t83 47t76.5 19t62.5 -1t42.5 -8.5l16 -5l244 -94q31 -14 80.5 -26.5t109 -20t111 7t71.5 53.5l8 -2q-36 -77 -79.5 -134t-85 -87t-83 -48t-76.5 -21t-62 -2t-42 5z" />
    <glyph glyph-name="notequal" unicode="&#x2260;" horiz-adv-x="1110" 
d="M1024 684h-307l-96 -209h403v-180h-485l-115 -250l-168 78l78 172h-240v180h324l94 209h-418v180h502l121 264l168 -77l-86 -187h225v-180z" />
    <glyph glyph-name="lessequal" unicode="&#x2264;" horiz-adv-x="1251" 
d="M100 178h1057v-219h-1057v219zM537 788l620 -305v-272l-1038 532v88l1038 533v-274z" />
    <glyph glyph-name="greaterequal" unicode="&#x2265;" horiz-adv-x="1253" 
d="M104 178h1057v-219h-1057v219zM104 483l621 305l-621 302v274l1039 -533v-88l-1039 -532v272z" />
    <glyph glyph-name="lozenge" unicode="&#x25ca;" horiz-adv-x="1144" 
d="M616 1501l426 -831l-426 -832h-92l-426 832l426 831h92zM805 670l-236 479l-235 -479l235 -480z" />
    <glyph glyph-name="zero.taboldstyle" unicode="&#xf643;" horiz-adv-x="1327" 
d="M676 965q563 0 563 -482q0 -64 -10.5 -121.5t-34 -115.5t-66.5 -104.5t-103 -83t-148.5 -56.5t-198.5 -20q-131 0 -231.5 29.5t-162 77t-100.5 114.5t-54 134.5t-15 145.5q0 482 561 482zM678 0q11 0 20.5 2.5t23 14t24 30.5t21.5 55.5t18.5 86t12.5 125t5 169.5
q0 129 -9.5 221.5t-21.5 138t-31.5 70.5t-32.5 29t-32 4q-12 0 -20 -1.5t-22.5 -11t-24.5 -26.5t-21.5 -51.5t-19 -82t-12.5 -122t-5 -168.5t4.5 -169t11.5 -125t18 -86t21.5 -55.5t24.5 -30.5t24 -14t23 -3z" />
    <glyph glyph-name="one.taboldstyle" unicode="&#xf644;" horiz-adv-x="1060" 
d="M367 184v518q0 71 -33.5 90t-120.5 19v18l522 136v-781q0 -58 7 -92.5t24.5 -50t34.5 -19.5t49 -4v-18h-625v18q36 0 57.5 4.5t43 20.5t31.5 50.5t10 90.5z" />
    <glyph glyph-name="two.taboldstyle" unicode="&#xf645;" horiz-adv-x="1107" 
d="M940 387h16l-96 -387h-713l226 227q86 78 140 149.5t75.5 130.5t24 116t-14.5 108q-27 101 -102.5 149t-161.5 11q-32 -16 -43 -35.5t-6.5 -32t12.5 -12.5q57 3 90 -35q37 -39 36 -94.5t-40 -91.5q-38 -38 -92.5 -37t-91.5 39q-27 29 -35 66.5t4 70.5q7 20 13.5 33.5
t22.5 36.5t44 48.5t69 53.5q43 29 116 46.5t157.5 16t161.5 -22t134 -76t70 -138.5q9 -84 -16.5 -148t-71.5 -101t-108.5 -68t-120 -48.5t-113 -42.5t-82.5 -51h291q58 0 116.5 30.5t88.5 88.5z" />
    <glyph glyph-name="three.taboldstyle" unicode="&#xf646;" horiz-adv-x="1243" 
d="M1135 -80q0 -463 -605 -463q-134 0 -220 42.5t-138 131.5q-25 37 -21 90.5t35 94.5q41 61 114.5 73.5t131.5 -30.5q61 -43 73.5 -115.5t-30.5 -132.5q-47 -62 -113 -70q-13 0 -7 -13q13 -29 80 -43q40 -9 93 -9q115 0 166.5 112t20.5 287q-6 34 -12 59.5t-18 61.5
t-27 62.5t-39.5 55.5t-54.5 47t-73.5 30t-95.5 12v18q96 16 154.5 73t70.5 124.5t-8 133.5t-69 101q-45 31 -112 34t-121 -26t-60 -81l-21 -5q-16 45 -12.5 91t18 89.5t48.5 81.5t78.5 66.5t108 45t136.5 16.5q95 0 175 -39t129 -101t69.5 -141t7 -155.5t-69.5 -148
t-149 -116.5q160 -6 263.5 -111.5t103.5 -232.5z" />
    <glyph glyph-name="four.taboldstyle" unicode="&#xf647;" horiz-adv-x="1288" 
d="M1186 -98h-172v-164v-70.5t1.5 -55.5t2 -44.5t4 -33t6 -24.5t9 -16t11.5 -10.5t15.5 -5t18.5 -2.5h24v-19h-553v19q25 0 37 1t24.5 10.5t17 22t8.5 45.5t4.5 69t0.5 104v174l-528 -2v34l811 1031l86 -19v-901h172v-143zM645 45v528l-328 -413q-75 -98 -51 -113
q8 -4 33 -4z" />
    <glyph glyph-name="five.taboldstyle" unicode="&#xf648;" 
d="M264 397q226 36 393.5 10.5t277 -100.5t161 -180t43.5 -229q-5 -93 -38 -168t-84.5 -125.5t-121.5 -84t-147.5 -48.5t-163.5 -15q-228 0 -359 105q-36 31 -52.5 82.5t-6.5 103.5q19 72 84.5 112t140.5 23q73 -17 113.5 -82t21.5 -139q-19 -80 -77 -113q-17 -9 -7 -29
q20 -41 129 -44h13q88 0 153.5 53.5t86 134.5t-2.5 176q-8 26 -20 50.5t-36 55.5t-57 55t-81.5 48t-111 34.5t-145.5 14.5t-184 -12l162 860h760l-98 -342h-709z" />
    <glyph glyph-name="six.taboldstyle" unicode="&#xf649;" horiz-adv-x="1275" 
d="M745 965q439 0 439 -492q0 -233 -145 -362t-384 -129q-276 0 -419.5 178t-143.5 491q0 379 169.5 594t473.5 215q65 0 121.5 -14t90 -31.5t61 -41.5t37 -36.5t16.5 -23.5q22 -33 22 -80.5t-26 -83.5q-33 -58 -97.5 -72.5t-121.5 21.5q-57 34 -71.5 99t21.5 120
q17 27 40 41t59 20q10 3 -5 19q-38 40 -128 44q-9 1 -19 1q-77 0 -124.5 -56.5t-74.5 -205.5t-28 -406q14 86 86.5 138.5t150.5 52.5zM655 0q87 0 117 58q27 53 29 218v156q0 218 -29.5 332.5t-103.5 114.5q-127 0 -160 -170q5 -355 8 -415q12 -206 65 -263q29 -31 74 -31z
" />
    <glyph glyph-name="seven.taboldstyle" unicode="&#xf64a;" horiz-adv-x="1169" 
d="M203 946h923l-196 -338q-36 -74 -64.5 -159t-46.5 -157.5t-31 -168t-19 -158t-9.5 -161t-3.5 -144.5v-139v-45h-394q10 157 37.5 281.5t88.5 260t163 277.5t258 313h-563q-58 0 -117.5 -31t-89.5 -88h-18z" />
    <glyph glyph-name="eight.taboldstyle" unicode="&#xf64b;" horiz-adv-x="1191" 
d="M578 1018l188 -96q68 51 68 235q0 75 -19.5 132t-53 89.5t-73 48t-84.5 15.5q-73 0 -123 -48t-61 -118q-10 -73 29 -144t129 -114zM668 500l-256 139q-37 -34 -47.5 -95t-10.5 -179q0 -365 254 -365q93 0 154 53.5t74 134.5q13 83 -30 169t-138 143zM608 -18
q-267 0 -392.5 90.5t-125.5 275.5q0 219 270 318q-118 81 -181.5 178t-63.5 227q0 165 130.5 277t358.5 112q220 0 324 -82t104 -221q0 -51 -22 -93.5t-50 -67.5t-67.5 -45t-61.5 -27t-45 -13q176 -79 260 -208.5t84 -278.5q0 -210 -126 -326t-396 -116z" />
    <glyph glyph-name="nine.taboldstyle" unicode="&#xf64c;" horiz-adv-x="1230" 
d="M514 -18q-436 0 -436 499q0 232 144 358t384 126q290 0 426.5 -174.5t136.5 -493.5q0 -115 -7 -206t-25.5 -180.5t-49.5 -156.5t-80 -125t-116 -94.5t-158.5 -57t-206.5 -20.5q-80 0 -145 19.5t-102 49t-54 48.5t-24 33q-22 33 -22 82t26 88q35 58 101 73t126 -22
q57 -35 71.5 -101.5t-22.5 -123.5q-36 -53 -112 -64q-10 -3 6 -19q41 -40 135 -44h16q57 0 96 12t64 40t39 68.5t20 103t7.5 138t1.5 178.5v162q-8 -63 -49 -109t-91 -66.5t-100 -20.5zM606 946q-86 0 -115 -54q-28 -50 -30 -207v-163q0 -454 121 -454q135 0 172 168
q-5 355 -9 422q-13 204 -68 260q-29 28 -71 28z" />
    <glyph glyph-name="dollar.taboldstyle" unicode="&#xf653;" horiz-adv-x="1196" 
d="M594 0q64 0 111.5 29.5t66.5 79t14.5 107.5t-45.5 122.5t-112 116.5l-35 22v-477zM575 1008v434q-65 0 -112.5 -26.5t-66.5 -71.5t-13 -98.5t50.5 -113.5t121.5 -110zM870 813q202 -133 253.5 -314.5t-64.5 -348.5q-5 -7 -14.5 -18t-47.5 -40t-86 -51.5t-133 -40.5
t-184 -18v-250h-19v250q-108 1 -202.5 12t-152 26.5t-100 30t-60.5 25.5l-17 10v393h18q11 -46 36 -102t70 -122t101.5 -120.5t137 -92.5t169.5 -42v487l-262 166q-218 136 -268.5 312t80.5 340q5 6 14.5 16.5t47.5 37.5t84.5 47t128 37t175.5 17v250h19v-250
q94 -1 176.5 -11t133 -24t87.5 -27t53 -22l15 -10v-344h-19q-11 38 -21.5 69.5t-30.5 76t-42.5 79t-57.5 72t-76 62.5t-97 42t-121 19v-447z" />
    <glyph glyph-name="cent.taboldstyle" unicode="&#xf654;" horiz-adv-x="1191" 
d="M692 193v753q-139 -39 -139 -442q0 -240 139 -311zM770 786q23 60 78 82q15 5 6 26q-17 38 -94 49q-23 3 -49 3v-762q39 -18 88 -21.5t94.5 7t82.5 37.5t50 65l14 -6q0 -96 -89.5 -182t-239.5 -102v-224h-19v224q-153 0 -273.5 54.5t-193.5 168.5t-73 272q0 105 32 192
t96.5 153t169.5 103.5t242 39.5v249h19v-249q109 0 188.5 -37.5t124.5 -87.5q26 -28 34.5 -71.5t-3.5 -84.5q-20 -60 -78 -86.5t-117 -3.5q-60 20 -86.5 77t-3.5 115z" />
    <glyph glyph-name="dollar.oldstyle" unicode="&#xf724;" horiz-adv-x="1196" 
d="M594 0q64 0 111.5 29.5t66.5 79t14.5 107.5t-45.5 122.5t-112 116.5l-35 22v-477zM575 1008v434q-65 0 -112.5 -26.5t-66.5 -71.5t-13 -98.5t50.5 -113.5t121.5 -110zM870 813q202 -133 253.5 -314.5t-64.5 -348.5q-5 -7 -14.5 -18t-47.5 -40t-86 -51.5t-133 -40.5
t-184 -18v-250h-19v250q-108 1 -202.5 12t-152 26.5t-100 30t-60.5 25.5l-17 10v393h18q11 -46 36 -102t70 -122t101.5 -120.5t137 -92.5t169.5 -42v487l-262 166q-218 136 -268.5 312t80.5 340q5 6 14.5 16.5t47.5 37.5t84.5 47t128 37t175.5 17v250h19v-250
q94 -1 176.5 -11t133 -24t87.5 -27t53 -22l15 -10v-344h-19q-11 38 -21.5 69.5t-30.5 76t-42.5 79t-57.5 72t-76 62.5t-97 42t-121 19v-447z" />
    <glyph glyph-name="zero.oldstyle" unicode="&#xf730;" horiz-adv-x="1327" 
d="M676 965q563 0 563 -482q0 -64 -10.5 -121.5t-34 -115.5t-66.5 -104.5t-103 -83t-148.5 -56.5t-198.5 -20q-131 0 -231.5 29.5t-162 77t-100.5 114.5t-54 134.5t-15 145.5q0 482 561 482zM678 0q11 0 20.5 2.5t23 14t24 30.5t21.5 55.5t18.5 86t12.5 125t5 169.5
q0 129 -9.5 221.5t-21.5 138t-31.5 70.5t-32.5 29t-32 4q-12 0 -20 -1.5t-22.5 -11t-24.5 -26.5t-21.5 -51.5t-19 -82t-12.5 -122t-5 -168.5t4.5 -169t11.5 -125t18 -86t21.5 -55.5t24.5 -30.5t24 -14t23 -3z" />
    <glyph glyph-name="one.oldstyle" unicode="&#xf731;" horiz-adv-x="1060" 
d="M367 184v518q0 71 -33.5 90t-120.5 19v18l522 136v-781q0 -58 7 -92.5t24.5 -50t34.5 -19.5t49 -4v-18h-625v18q36 0 57.5 4.5t43 20.5t31.5 50.5t10 90.5z" />
    <glyph glyph-name="two.oldstyle" unicode="&#xf732;" horiz-adv-x="1107" 
d="M940 387h16l-96 -387h-713l226 227q86 78 140 149.5t75.5 130.5t24 116t-14.5 108q-27 101 -102.5 149t-161.5 11q-32 -16 -43 -35.5t-6.5 -32t12.5 -12.5q57 3 90 -35q37 -39 36 -94.5t-40 -91.5q-38 -38 -92.5 -37t-91.5 39q-27 29 -35 66.5t4 70.5q7 20 13.5 33.5
t22.5 36.5t44 48.5t69 53.5q43 29 116 46.5t157.5 16t161.5 -22t134 -76t70 -138.5q9 -84 -16.5 -148t-71.5 -101t-108.5 -68t-120 -48.5t-113 -42.5t-82.5 -51h291q58 0 116.5 30.5t88.5 88.5z" />
    <glyph glyph-name="three.oldstyle" unicode="&#xf733;" horiz-adv-x="1243" 
d="M1135 -80q0 -463 -605 -463q-134 0 -220 42.5t-138 131.5q-25 37 -21 90.5t35 94.5q41 61 114.5 73.5t131.5 -30.5q61 -43 73.5 -115.5t-30.5 -132.5q-47 -62 -113 -70q-13 0 -7 -13q13 -29 80 -43q40 -9 93 -9q115 0 166.5 112t20.5 287q-6 34 -12 59.5t-18 61.5
t-27 62.5t-39.5 55.5t-54.5 47t-73.5 30t-95.5 12v18q96 16 154.5 73t70.5 124.5t-8 133.5t-69 101q-45 31 -112 34t-121 -26t-60 -81l-21 -5q-16 45 -12.5 91t18 89.5t48.5 81.5t78.5 66.5t108 45t136.5 16.5q95 0 175 -39t129 -101t69.5 -141t7 -155.5t-69.5 -148
t-149 -116.5q160 -6 263.5 -111.5t103.5 -232.5z" />
    <glyph glyph-name="four.oldstyle" unicode="&#xf734;" horiz-adv-x="1288" 
d="M1186 -98h-172v-164v-70.5t1.5 -55.5t2 -44.5t4 -33t6 -24.5t9 -16t11.5 -10.5t15.5 -5t18.5 -2.5h24v-19h-553v19q25 0 37 1t24.5 10.5t17 22t8.5 45.5t4.5 69t0.5 104v174l-528 -2v34l811 1031l86 -19v-901h172v-143zM645 45v528l-328 -413q-75 -98 -51 -113
q8 -4 33 -4z" />
    <glyph glyph-name="five.oldstyle" unicode="&#xf735;" 
d="M264 397q226 36 393.5 10.5t277 -100.5t161 -180t43.5 -229q-5 -93 -38 -168t-84.5 -125.5t-121.5 -84t-147.5 -48.5t-163.5 -15q-228 0 -359 105q-36 31 -52.5 82.5t-6.5 103.5q19 72 84.5 112t140.5 23q73 -17 113.5 -82t21.5 -139q-19 -80 -77 -113q-17 -9 -7 -29
q20 -41 129 -44h13q88 0 153.5 53.5t86 134.5t-2.5 176q-8 26 -20 50.5t-36 55.5t-57 55t-81.5 48t-111 34.5t-145.5 14.5t-184 -12l162 860h760l-98 -342h-709z" />
    <glyph glyph-name="six.oldstyle" unicode="&#xf736;" horiz-adv-x="1275" 
d="M745 965q439 0 439 -492q0 -233 -145 -362t-384 -129q-276 0 -419.5 178t-143.5 491q0 379 169.5 594t473.5 215q65 0 121.5 -14t90 -31.5t61 -41.5t37 -36.5t16.5 -23.5q22 -33 22 -80.5t-26 -83.5q-33 -58 -97.5 -72.5t-121.5 21.5q-57 34 -71.5 99t21.5 120
q17 27 40 41t59 20q10 3 -5 19q-38 40 -128 44q-9 1 -19 1q-77 0 -124.5 -56.5t-74.5 -205.5t-28 -406q14 86 86.5 138.5t150.5 52.5zM655 0q87 0 117 58q27 53 29 218v156q0 218 -29.5 332.5t-103.5 114.5q-127 0 -160 -170q5 -355 8 -415q12 -206 65 -263q29 -31 74 -31z
" />
    <glyph glyph-name="seven.oldstyle" unicode="&#xf737;" horiz-adv-x="1169" 
d="M203 946h923l-196 -338q-36 -74 -64.5 -159t-46.5 -157.5t-31 -168t-19 -158t-9.5 -161t-3.5 -144.5v-139v-45h-394q10 157 37.5 281.5t88.5 260t163 277.5t258 313h-563q-58 0 -117.5 -31t-89.5 -88h-18z" />
    <glyph glyph-name="eight.oldstyle" unicode="&#xf738;" horiz-adv-x="1191" 
d="M578 1018l188 -96q68 51 68 235q0 75 -19.5 132t-53 89.5t-73 48t-84.5 15.5q-73 0 -123 -48t-61 -118q-10 -73 29 -144t129 -114zM668 500l-256 139q-37 -34 -47.5 -95t-10.5 -179q0 -365 254 -365q93 0 154 53.5t74 134.5q13 83 -30 169t-138 143zM608 -18
q-267 0 -392.5 90.5t-125.5 275.5q0 219 270 318q-118 81 -181.5 178t-63.5 227q0 165 130.5 277t358.5 112q220 0 324 -82t104 -221q0 -51 -22 -93.5t-50 -67.5t-67.5 -45t-61.5 -27t-45 -13q176 -79 260 -208.5t84 -278.5q0 -210 -126 -326t-396 -116z" />
    <glyph glyph-name="nine.oldstyle" unicode="&#xf739;" horiz-adv-x="1230" 
d="M514 -18q-436 0 -436 499q0 232 144 358t384 126q290 0 426.5 -174.5t136.5 -493.5q0 -115 -7 -206t-25.5 -180.5t-49.5 -156.5t-80 -125t-116 -94.5t-158.5 -57t-206.5 -20.5q-80 0 -145 19.5t-102 49t-54 48.5t-24 33q-22 33 -22 82t26 88q35 58 101 73t126 -22
q57 -35 71.5 -101.5t-22.5 -123.5q-36 -53 -112 -64q-10 -3 6 -19q41 -40 135 -44h16q57 0 96 12t64 40t39 68.5t20 103t7.5 138t1.5 178.5v162q-8 -63 -49 -109t-91 -66.5t-100 -20.5zM606 946q-86 0 -115 -54q-28 -50 -30 -207v-163q0 -454 121 -454q135 0 172 168
q-5 355 -9 422q-13 204 -68 260q-29 28 -71 28z" />
    <glyph glyph-name="cent.oldstyle" unicode="&#xf7a2;" horiz-adv-x="1191" 
d="M692 193v753q-139 -39 -139 -442q0 -240 139 -311zM770 786q23 60 78 82q15 5 6 26q-17 38 -94 49q-23 3 -49 3v-762q39 -18 88 -21.5t94.5 7t82.5 37.5t50 65l14 -6q0 -96 -89.5 -182t-239.5 -102v-224h-19v224q-153 0 -273.5 54.5t-193.5 168.5t-73 272q0 105 32 192
t96.5 153t169.5 103.5t242 39.5v249h19v-249q109 0 188.5 -37.5t124.5 -87.5q26 -28 34.5 -71.5t-3.5 -84.5q-20 -60 -78 -86.5t-117 -3.5q-60 20 -86.5 77t-3.5 115z" />
    <glyph glyph-name="fi" unicode="&#xfb01;" horiz-adv-x="1320" 
d="M1245 16v-16h-512v16q28 8 45 27t24.5 52t9 60t1.5 76v533v10q0 29 -0.5 44t-4 39.5t-11 37.5t-22.5 23t-36 10h-221v-697q0 -97 16.5 -149t67.5 -66v-16h-512v16q28 8 45 27t24.5 52t9 60t1.5 76v697h-133v18h133q0 133 31 236t81.5 167t122 104.5t145 56.5t157.5 16
q75 0 155.5 -15.5t156 -53.5t105.5 -91q23 -43 20.5 -99t-30.5 -102q-40 -58 -111 -72.5t-131 23.5q-62 40 -76 110t27 132q34 58 103 74q27 6 0 26q-47 34 -154 45l-67 4q-36 0 -64 -14t-47.5 -37.5t-33.5 -63.5t-22 -82.5t-12.5 -105t-6 -120.5t-1.5 -138h221
q130 0 235.5 15.5t145.5 30.5l41 16v-777q0 -98 16.5 -150.5t67.5 -64.5z" />
    <glyph glyph-name="fl" unicode="&#xfb02;" horiz-adv-x="1271" 
d="M1241 16v-16h-512v16q28 8 45 27t24.5 52t9 60t1.5 76v1063q0 62 -13 95t-59 53q-33 9 -61 9.5t-50.5 -6.5t-40 -23.5t-31 -39t-23 -56t-16 -71t-10.5 -87.5t-5.5 -103t-1.5 -119h219v-18h-219v-697q0 -97 16.5 -149t67.5 -66v-16h-512v16q28 8 45 27t24.5 52t9 60
t1.5 76v697h-134v18h134v164q0 103 27.5 182t66.5 121.5t90 69.5t90.5 35t75.5 8q3 -1 17 0.5t42.5 -2t58 -9t62.5 -20t57 -35.5l420 68v-1297q0 -98 16.5 -150.5t67.5 -64.5z" />
    <glyph glyph-name="NULL" horiz-adv-x="0" 
 />
    <glyph glyph-name="CR" horiz-adv-x="569" 
 />
    <glyph glyph-name="two.superior" horiz-adv-x="573" 
d="M465 975h18l-55 -199h-371l187 250q103 151 54 231q-30 48 -94 48q-60 0 -90 -41q-22 -29 -14 -70l-16 -8q-24 42 -19 87.5t28 83t69.5 61.5t105.5 24q70 0 124 -51t54 -115q0 -49 -30.5 -102.5t-67 -89t-80.5 -76t-57 -56.5l-23 -30h193q55 0 84 53z" />
    <glyph glyph-name="one.superior" horiz-adv-x="475" 
d="M332 870q0 -40 6 -56.5t29 -16.5v-19h-244v19q27 0 35 17t8 56v396q0 32 -20.5 34t-41.5 -12l-20 -14l-14 16l176 152h86v-572z" />
    <glyph glyph-name="a.superior" horiz-adv-x="671" 
d="M317 1044v148q-25 -5 -42.5 -16t-26.5 -22t-13.5 -29.5t-5 -29.5t-0.5 -32q0 -3 0.5 -7.5t2.5 -15.5t6 -20t13 -16t21 -7q26 0 45 47zM573 1014l17 -6q-10 -36 -49.5 -58t-91.5 -22q-5 0 -12.5 0.5t-28 5t-37 12.5t-31.5 25t-18 41q-12 -39 -51.5 -61.5t-96.5 -22.5
q-19 0 -39.5 4.5t-43.5 15.5t-37.5 34.5t-14.5 55.5q0 20 3.5 36t14 29.5t19.5 23.5t31.5 20t37.5 16.5t49 16t55.5 14.5t67.5 16v70q0 83 -39 120.5t-96 8.5q-24 -15 11 -25q25 -6 38 -38q12 -31 0 -60t-41 -41q-31 -11 -59.5 1.5t-40.5 41.5q-15 41 12 80q23 31 66 53
q18 10 45 16t45 7h18q104 0 162 -59t58 -156v-160q0 -3 0.5 -8.5t3 -18.5t7.5 -23.5t16 -18.5t26 -7q18 3 24 21z" />
    <glyph glyph-name="three.superior" horiz-adv-x="591" 
d="M510 977q0 -207 -274 -207q-115 0 -162 80q-22 43 6 82q19 28 52 33.5t61 -13.5q27 -21 32.5 -52t-14.5 -58q-17 -28 -51 -35q-8 0 -2 -8q16 -21 78 -21q52 0 74.5 50.5t8.5 129.5q-4 23 -8 39t-14.5 38.5t-24.5 36t-39.5 24t-58.5 10.5v8q57 9 84.5 48.5t20.5 81.5
t-37 63q-20 14 -50 15.5t-54.5 -12t-28.5 -38.5l-9 -2q-19 60 27.5 116t142.5 56q51 0 92.5 -23.5t60.5 -60.5t21 -78.5t-24.5 -81.5t-77.5 -65q73 -3 120.5 -50t47.5 -106z" />
    <glyph glyph-name="o.superior" horiz-adv-x="704" 
d="M319 1442q131 0 197 -68.5t66 -191.5q0 -121 -66 -188.5t-197 -67.5t-196.5 67t-65.5 189q0 123 66 191.5t196 68.5zM319 944q30 0 46.5 9.5t24 41t8.5 59.5t1 97v31q0 150 -10 186q-13 50 -59 54q-5 1 -11 1q-29 0 -45.5 -9.5t-24 -42.5t-8.5 -62t-1 -100v-27v-17
q0 -73 1 -103.5t8.5 -64t24 -43.5t45.5 -10z" />
    </font>
</defs>
</svg>
